<svg width="214" height="320" viewBox="0 0 214 320" fill="none" xmlns="http://www.w3.org/2000/svg">
<path d="M1.99031 75.9694H87.8578V275H41.7964V112.932H1.99031V75.9694Z" fill="#F68B21"/>
<path d="M129.971 193.017C119.487 193.017 108.887 190.137 103.127 186.335L109.118 173.431C114.648 177.003 123.058 179.422 130.662 179.422C138.957 179.422 142.068 177.233 142.068 173.777C142.068 163.638 104.624 174.007 104.624 149.237C104.624 137.485 115.224 129.19 133.312 129.19C141.838 129.19 151.285 131.149 157.161 134.605L151.17 147.394C145.064 143.937 138.957 142.785 133.312 142.785C125.247 142.785 121.791 145.32 121.791 148.546C121.791 159.145 159.235 148.891 159.235 173.316C159.235 184.837 148.52 193.017 129.971 193.017ZM205.463 176.427L210.302 189.1C206.616 191.75 201.201 193.017 195.67 193.017C181.039 193.017 172.513 185.529 172.513 170.782V145.32H162.95V131.494H172.513V116.402H190.486V131.494H205.924V145.32H190.486V170.551C190.486 175.851 193.366 178.731 198.205 178.731C200.855 178.731 203.505 177.925 205.463 176.427Z" fill="#F68B21"/>
</svg>
