<svg width="631" height="350" viewBox="0 0 631 350" fill="none" xmlns="http://www.w3.org/2000/svg">
<g clip-path="url(#clip0_3311_10602)">
<g style="mix-blend-mode:hard-light" opacity="0.3">
<path d="M615.377 267.082L601.764 267.373L594.853 267.487C592.54 267.539 590.215 267.487 587.902 267.549H587.445V267.082L587.383 255.441V254.922H587.902L601.639 254.984C606.225 254.984 610.801 255.098 615.377 255.15H615.667V255.441C615.667 257.412 615.584 259.373 615.532 261.313L615.377 267.082ZM615.377 267.082L615.231 261.22C615.179 259.29 615.117 257.381 615.096 255.472L615.377 255.762C610.801 255.814 606.225 255.928 601.639 255.928L587.902 255.991L588.42 255.472V267.082L587.953 266.626C590.215 266.626 592.477 266.626 594.75 266.678L601.504 266.854L615.377 267.082Z" fill="#EBEBEB"/>
<path d="M600.053 281.723L586.44 282.013L579.519 282.128C577.216 282.128 574.891 282.128 572.578 282.19H572.121V281.723V270.113V269.594H572.64L586.377 269.666C590.953 269.666 595.539 269.78 600.115 269.832H600.405V270.113C600.405 272.084 600.322 274.045 600.27 275.985L600.053 281.723ZM600.053 281.723L599.907 275.861C599.855 273.931 599.793 272.022 599.772 270.113L600.053 270.403C595.477 270.455 590.891 270.569 586.315 270.569L572.578 270.631L573.096 270.113V281.723L572.629 281.266C574.891 281.266 577.153 281.266 579.426 281.318L586.242 281.443L600.053 281.723Z" fill="#EBEBEB"/>
<path d="M630.709 281.723L617.096 282.013L610.185 282.128C607.872 282.128 605.547 282.128 603.234 282.19H602.777V281.723L602.715 270.113V269.594H603.234L616.971 269.666C621.557 269.666 626.133 269.78 630.709 269.832H630.999V270.113C630.999 272.084 630.906 274.045 630.864 275.985L630.709 281.723ZM630.709 281.723L630.563 275.861C630.563 273.931 630.449 272.022 630.428 270.113L630.709 270.403C626.133 270.455 621.557 270.569 616.971 270.569L603.234 270.631L603.752 270.113V281.723L603.286 281.266C605.558 281.266 607.809 281.266 610.082 281.318L616.909 281.443L630.709 281.723Z" fill="#EBEBEB"/>
<path d="M223.611 128.932L209.998 129.222L203.088 129.336C200.774 129.336 198.45 129.336 196.136 129.336H195.679V128.869L195.617 117.259V116.74H196.136L209.873 116.802C214.46 116.802 219.035 116.917 223.611 116.968H223.901V117.249C223.901 119.22 223.808 121.171 223.756 123.111L223.611 128.932ZM223.611 128.932L223.466 123.059C223.466 121.129 223.352 119.22 223.331 117.321L223.611 117.601C219.035 117.601 214.46 117.767 209.873 117.767L196.136 117.84L196.655 117.321L196.603 128.932L196.136 128.465C198.398 128.465 200.66 128.465 202.932 128.527L209.759 128.641L223.611 128.932Z" fill="#EBEBEB"/>
<path d="M208.27 143.566L194.657 143.857L187.737 143.971C185.433 143.971 183.109 143.971 180.795 144.023H180.339V143.556L180.256 131.966V131.447H180.775L194.512 131.51C199.088 131.51 203.674 131.624 208.25 131.676H208.54V131.966C208.54 133.937 208.457 135.888 208.405 137.828L208.27 143.566ZM208.27 143.566L208.125 137.693C208.073 135.764 208.011 133.854 207.99 131.956L208.27 132.236C203.695 132.288 199.109 132.402 194.533 132.402L180.795 132.474L181.314 131.956L181.293 143.566L180.827 143.099C183.088 143.099 185.35 143.099 187.623 143.161L194.44 143.276L208.27 143.566Z" fill="#EBEBEB"/>
<path d="M238.939 143.566L225.326 143.857L218.416 143.971C216.102 143.971 213.788 143.971 211.464 144.023H211.008V143.556L210.945 131.966V131.447H211.464L225.202 131.51C229.788 131.51 234.363 131.624 238.939 131.676H239.23V131.966C239.23 133.937 239.136 135.888 239.095 137.828L238.939 143.566ZM238.939 143.566L238.794 137.693C238.794 135.764 238.68 133.854 238.659 131.956L238.939 132.236C234.363 132.288 229.788 132.402 225.202 132.402L211.464 132.474L211.983 131.956L211.931 143.566L211.464 143.099C213.736 143.099 215.988 143.099 218.26 143.161L225.087 143.276L238.939 143.566Z" fill="#EBEBEB"/>
<path d="M455.064 128.921L441.451 129.211L434.541 129.326C432.227 129.377 429.903 129.326 427.589 129.377H427.133V128.91L427.07 117.3V116.781H427.589L441.327 116.844C445.913 116.844 450.488 116.968 455.064 117.02H455.355V117.3C455.355 119.271 455.272 121.232 455.22 123.162L455.064 128.921ZM455.064 128.921L454.919 123.059C454.867 121.118 454.805 119.209 454.784 117.31L455.064 117.591C450.488 117.642 445.913 117.757 441.327 117.767L427.589 117.829L428.108 117.31L428.056 128.921L427.589 128.454C429.851 128.454 432.113 128.454 434.385 128.516L441.212 128.63L455.064 128.921Z" fill="#EBEBEB"/>
<path d="M613.791 16.1527L600.178 16.4432L593.257 16.5573C590.954 16.5573 588.63 16.5573 586.316 16.6196H585.859V16.1527V4.54222V4.02344H586.378L600.116 4.08569C604.691 4.08569 609.277 4.2102 613.853 4.26208H614.144V4.54222C614.144 6.51361 614.061 8.47463 614.009 10.4045L613.791 16.1527ZM613.791 16.1527L613.646 10.2904C613.594 8.35012 613.531 6.44098 613.511 4.54222L613.791 4.82237C609.215 4.82237 604.629 4.98838 600.053 4.99876L586.316 5.06101L586.835 4.54222L586.783 16.1527L586.316 15.6858C588.578 15.6858 590.84 15.6858 593.112 15.748L599.929 15.8622L613.791 16.1527Z" fill="#EBEBEB"/>
<path d="M629.115 30.7959L615.502 31.0864L608.592 31.2005C606.278 31.2524 603.954 31.2005 601.64 31.2524H601.183V30.7855L601.121 19.175V18.6562H601.64L615.377 18.7185C619.963 18.7185 624.539 18.843 629.115 18.8949H629.405V19.175C629.405 21.1464 629.312 23.1074 629.26 25.0373L629.115 30.7959ZM629.115 30.7959L628.97 24.9336C628.97 22.9933 628.855 21.0842 628.835 19.1854L629.115 19.4656C624.539 19.5174 619.963 19.6316 615.377 19.6419L601.64 19.7042L602.159 19.1854V30.7959L601.692 30.329C603.954 30.329 606.216 30.329 608.488 30.3912L615.315 30.5053L629.115 30.7959Z" fill="#EBEBEB"/>
<path d="M-37.8867 112.868H82.1917V36.6895H-37.8867V112.868Z" fill="#EBEBEB"/>
<path d="M104.659 112.872H82.1953V89.4746L104.659 112.872Z" fill="#EBEBEB"/>
<path d="M68.2916 49.8555H-23.9902V51.3081H68.2916V49.8555Z" fill="white"/>
<path d="M23.707 57.6797H-23.9902V59.1323H23.707V57.6797Z" fill="white"/>
<path d="M50.6321 73.3125H-23.9902V74.7651H50.6321V73.3125Z" fill="white"/>
<path d="M68.2916 81.1289H-23.9902V82.5815H68.2916V81.1289Z" fill="white"/>
<path d="M68.2916 88.9355H-23.9902V90.3881H68.2916V88.9355Z" fill="white"/>
<path d="M8.79709 96.7617H-23.9902V98.2143H8.79709V96.7617Z" fill="white"/>
<path d="M610.059 143.293H489.98V210.476H610.059V143.293Z" fill="#DBDBDB"/>
<path d="M467.516 210.485H489.979V187.088L467.516 210.485Z" fill="#DBDBDB"/>
<path d="M584.49 178.369H504.15V179.822H584.49V178.369Z" fill="white"/>
<path d="M567.972 186.193H504.15V187.646H567.972V186.193Z" fill="white"/>
<path d="M572.786 162.736H504.15V164.189H572.786V162.736Z" fill="white"/>
<path d="M593.766 154.918H504.15V156.371H593.766V154.918Z" fill="white"/>
<path d="M574.591 194.008H504.15V195.46H574.591V194.008Z" fill="white"/>
<path d="M549.395 71.8809H328.9V81.5511H549.395V71.8809Z" fill="#EBEBEB"/>
<path d="M350.92 81.5645H341.25V113.542H350.92V81.5645Z" fill="#EBEBEB"/>
<path d="M350.92 81.5645H341.25V91.4525H350.92V81.5645Z" fill="#DBDBDB"/>
<path d="M537.03 81.5645H527.359V113.542H537.03V81.5645Z" fill="#EBEBEB"/>
<path d="M537.03 81.5645H527.359V91.4525H537.03V81.5645Z" fill="#DBDBDB"/>
<path d="M385.578 71.8852V10.2637L370.056 10.2637V71.8852H385.578Z" fill="#C7C7C7"/>
<path d="M385.578 13.7363V6.96094L370.056 6.96094V13.7363H385.578Z" fill="#DBDBDB"/>
<path d="M385.568 24.9308V22.4199H370.046V24.9308H385.568Z" fill="#DBDBDB"/>
<path d="M387.51 63.8086V57.0332H370.058V63.8086H387.51Z" fill="#DBDBDB"/>
<path d="M396.426 71.8831V0L385.583 0V71.8831H396.426Z" fill="#DBDBDB"/>
<path d="M394.211 34.4092V6.75781H387.705V34.4092H394.211Z" fill="#EBEBEB"/>
<path d="M473.547 64.2054L422.426 13.6699L414.803 21.3809L465.924 71.9163L473.547 64.2054Z" fill="#C7C7C7"/>
<path d="M460.059 53.8692L440.395 34.4297L435.821 39.0562L455.486 58.4958L460.059 53.8692Z" fill="#DBDBDB"/>
<path d="M414.828 71.9005V17.293H396.411V71.9005H414.828Z" fill="#A6A6A6"/>
<path d="M414.828 66.0997V61.0156H396.411V66.0997H414.828Z" fill="#C7C7C7"/>
<path d="M414.828 57.6921V55.7207H396.411V57.6921H414.828Z" fill="#C7C7C7"/>
<path d="M370.059 71.9004V20.582H357.338V71.9004H370.059Z" fill="#A6A6A6"/>
<path d="M370.059 66.459V61.6758H357.338V66.459H370.059Z" fill="#C7C7C7"/>
<path d="M370.059 35.9434V31.1602H357.338V35.9434H370.059Z" fill="#C7C7C7"/>
<path d="M370.059 41.078V39.2207H357.338V41.078H370.059Z" fill="#C7C7C7"/>
<path d="M526.214 47.9828L524.834 51.6454L523.983 53.8762L522.593 57.5492L517.177 71.8989H487.886L482.449 57.5492L481.059 53.8762L480.218 51.6454L478.828 47.9828L489.64 32.2221L484.037 21.8359H521.037L515.403 32.2221L526.214 47.9828Z" fill="#DBDBDB"/>
<path d="M526.214 47.9785L524.834 51.6411H480.218L478.828 47.9785H526.214Z" fill="#A6A6A6"/>
<path d="M523.985 53.8672L522.595 57.5402H482.451L481.061 53.8672H523.985Z" fill="#A6A6A6"/>
</g>
<path d="M6.33984 340.771L76.2785 340.561L146.208 340.482L286.077 340.342L425.946 340.482L495.876 340.561L565.814 340.771L495.876 340.99L425.946 341.069L286.077 341.209L146.208 341.069L76.2785 340.99L6.33984 340.771Z" fill="#263238"/>
<path d="M278.482 340.761H385.985L364.556 216.072H284.162L278.482 340.761Z" fill="#FBFBFB"/>
<path d="M278.482 340.761H287.913L293.198 216.072H284.162L278.482 340.761Z" fill="#EEEEEE"/>
<path d="M371.89 240.509C384.055 267.678 413.45 312.771 426.606 301.596C446.281 284.891 459.603 247.941 464.862 232.998C467.815 224.628 425.177 210.623 422.565 218.222C418.849 229.019 413.021 251.587 409.647 254.786C407.894 256.46 393.924 236.855 383.354 227.556C368.095 214.155 368.008 231.833 371.89 240.509Z" fill="#F0A69C"/>
<path d="M475.513 220.424C471.718 228.961 457.108 243.396 452.253 245.525C447.397 247.655 421.753 224.491 422.288 219.04C422.822 213.588 438.125 185.034 446.6 180.652C455.075 176.27 479.448 211.573 475.513 220.424Z" fill="#F0A69C"/>
<path d="M424.296 213.047C424.296 213.047 424.909 200.9 421.842 190.628C419.265 181.996 414.471 169.472 419.055 167.912C428.485 164.713 440.44 195.957 440.44 195.957C440.44 195.957 443.507 210.593 434.454 214.59C428.774 217.096 424.296 213.047 424.296 213.047Z" fill="#F0A69C"/>
<path d="M434.922 190.006C435.535 194.922 440.978 191.382 440.978 191.382C440.978 191.382 434.379 198.393 436.973 203.187C439.497 207.823 445.912 203.31 446.377 202.994C446.026 203.371 440.137 209.944 443.248 214.519C446.482 219.27 452.144 213.643 452.512 213.275C452.293 213.722 449.541 219.778 452.696 222.723C458.112 227.762 465.579 212.477 471.329 210.768C471.329 210.768 475.343 220.172 475.509 220.409C475.509 220.409 482.915 206 480.181 198.376C479.797 197.262 479.046 196.312 478.05 195.682C477.054 195.053 475.873 194.782 474.703 194.914C474.703 194.914 477.604 190.532 475.273 186.851C474.063 184.966 470.014 185.212 470.014 185.212C470.014 185.212 472.188 181.61 469.909 178.472C468.095 175.957 464.282 176.596 464.282 176.596C464.282 176.596 464.764 172.162 462.082 170.199C456.631 166.237 433.599 179.48 434.922 190.006Z" fill="#F0A69C"/>
<path d="M463.627 176.624C463.706 176.58 463.627 176.466 463.583 176.492C454.941 178.999 446.221 184.38 440.665 191.54C440.48 191.777 440.778 192.171 441.033 191.952C448.211 185.686 455.003 180.717 463.627 176.624Z" fill="#263238"/>
<path d="M470.069 185.096C470.165 185.052 470.069 184.895 469.99 184.921C461.094 187.55 451.445 193.913 446.002 202.896C445.818 203.203 445.958 203.668 446.204 203.335C450.27 197.655 462.286 188.751 470.069 185.096Z" fill="#263238"/>
<path d="M452.345 214.024C457.892 205.61 465.579 199.817 474.334 195.005C474.439 194.944 474.334 194.795 474.238 194.821C469.312 196.005 464.054 199.651 460.215 202.841C456.582 205.727 453.771 209.517 452.064 213.831C451.985 214.024 452.231 214.217 452.345 214.024Z" fill="#263238"/>
<path d="M440.805 191.375C440.585 191.655 441.243 191.664 441.032 191.953C440.156 193.163 435.467 200.919 437.614 203.347C439.367 205.284 443.127 204.302 444.442 203.347L447.728 200.972L445.467 204.381C444.449 205.875 443.68 207.523 443.188 209.263C442.916 210.055 442.815 210.896 442.892 211.73C442.969 212.564 443.223 213.372 443.635 214.101C444.022 214.776 444.63 215.297 445.356 215.577C446.083 215.856 446.883 215.877 447.623 215.634C449.272 215.067 450.747 214.086 451.909 212.786L455.239 209.28L453.241 213.662C452.682 214.875 452.279 216.153 452.04 217.466C451.772 218.701 451.873 219.987 452.33 221.165C452.556 221.683 452.921 222.129 453.385 222.452C453.849 222.776 454.394 222.964 454.959 222.996C456.239 222.866 457.455 222.374 458.465 221.577C460.677 219.886 462.755 218.025 464.678 216.011C465.686 215.03 466.694 214.039 467.755 213.093C468.751 212.096 469.945 211.32 471.26 210.814C470.01 211.447 468.897 212.32 467.982 213.382C467.01 214.39 466.081 215.442 465.152 216.502C463.326 218.691 461.302 220.707 459.104 222.523C457.926 223.523 456.483 224.159 454.95 224.355C454.105 224.363 453.276 224.126 452.562 223.674C451.848 223.221 451.28 222.572 450.927 221.804C450.314 220.359 450.146 218.763 450.445 217.221C450.681 215.754 451.108 214.325 451.716 212.97L453.048 213.847C451.698 215.405 449.964 216.583 448.018 217.265C446.927 217.613 445.749 217.57 444.687 217.142C443.661 216.692 442.793 215.944 442.198 214.995C441.676 214.07 441.356 213.045 441.26 211.987C441.163 210.93 441.292 209.864 441.637 208.86C442.197 206.955 443.071 205.157 444.223 203.54L445.248 204.539C443.495 205.678 439.429 207.238 436.37 204.583C432.987 200.472 439.516 192.707 440.805 191.375Z" fill="#263238"/>
<path d="M440.984 191.377C440.037 191.755 439.038 191.989 438.022 192.07C437.614 192.112 437.202 192.044 436.829 191.873C436.456 191.702 436.135 191.434 435.901 191.097C435.488 190.286 435.321 189.372 435.419 188.468C435.471 187.469 435.577 186.426 435.734 185.348C435.067 186.228 434.595 187.241 434.35 188.319C434.181 188.9 434.129 189.509 434.197 190.111C434.264 190.713 434.45 191.295 434.744 191.824C435.128 192.375 435.668 192.796 436.295 193.034C436.899 193.231 437.545 193.255 438.162 193.104C439.261 192.84 440.249 192.236 440.984 191.377Z" fill="#263238"/>
<path d="M419.974 219.043L464.356 249.954C464.356 249.954 437.844 304.88 421.464 304.731C405.083 304.582 381.42 263.443 373.26 245.66C365.101 227.877 369.965 212.812 386.477 229.008C402.989 245.204 408.904 251.883 409.439 251.664C410.438 251.26 419.974 219.043 419.974 219.043Z" fill="#2C3D68"/>
<path d="M464.356 249.954C464.356 249.954 445.951 288.043 430.36 300.699C427.231 303.24 424.225 304.756 421.464 304.721C405.084 304.581 381.42 263.433 373.217 245.659C368.142 234.651 368.099 224.686 372.709 222.539C375.557 221.216 380.158 222.846 386.442 229.033C403.094 245.344 408.861 251.899 409.404 251.68C410.439 251.259 419.983 219.051 419.983 219.051L464.356 249.954Z" fill="#2C3D68"/>
<path d="M436.889 294.21C436.346 294.841 435.794 295.455 435.241 296.051C430.247 299.196 424.644 301.248 418.8 302.072C417.188 302.25 415.565 302.315 413.944 302.265L412.936 301.634C414.871 301.751 416.812 301.701 418.738 301.485C421.044 301.233 423.312 300.709 425.496 299.925L427.152 299.381L428.756 298.707C429.29 298.479 429.843 298.286 430.36 298.023L431.911 297.234C433.637 296.34 435.3 295.33 436.889 294.21ZM403.217 245.823C398.152 248.127 393.533 251.304 389.571 255.21C387.001 257.742 384.625 260.463 382.463 263.352C382.568 263.544 382.682 263.746 382.805 263.939C384.992 261.002 387.404 258.239 390.018 255.674C393.338 252.412 397.121 249.657 401.245 247.497L402.796 246.708C403.081 246.564 403.374 246.435 403.673 246.323L403.217 245.823ZM441.552 248.619C437.343 246.559 432.939 244.923 428.405 243.737C427.932 243.623 427.459 243.509 426.977 243.413C426.67 243.343 426.354 243.273 426.048 243.22C422.217 242.417 418.284 242.216 414.391 242.624C413.821 242.703 413.261 242.791 412.691 242.896C412.63 243.097 412.559 243.308 412.498 243.501C413.147 243.387 413.804 243.29 414.461 243.211C418.075 242.83 421.724 242.98 425.294 243.658L426.249 243.834C426.924 243.974 427.599 244.123 428.274 244.289C432.769 245.448 437.137 247.051 441.315 249.075C447.573 252.144 453.642 255.583 459.492 259.373C459.58 259.224 459.659 259.075 459.729 258.934C453.88 255.137 447.81 251.693 441.552 248.619ZM446.153 237.278C439.047 237.571 432.124 239.612 425.995 243.22L425.241 243.658C423.694 244.586 422.199 245.598 420.763 246.691C413.252 252.405 407.257 259.749 401.552 267.138C398.694 270.845 395.89 274.579 392.928 278.189C392.717 278.452 392.498 278.706 392.279 278.969L392.612 279.451C392.866 279.153 393.12 278.855 393.366 278.575C396.346 274.955 399.159 271.222 402.025 267.523C407.73 260.161 413.716 252.869 421.148 247.234C422.759 246.005 424.445 244.878 426.197 243.86C426.433 243.711 426.679 243.571 426.924 243.439C428.965 242.294 431.093 241.309 433.287 240.494L434.926 239.898C435.469 239.706 436.039 239.574 436.6 239.408L438.274 238.943L440.027 238.601C442.289 238.091 444.605 237.85 446.924 237.883H447.029L446.153 237.278ZM391.683 234.219C388.621 235.58 385.421 236.606 382.139 237.278L380.43 237.611C379.86 237.716 379.282 237.751 378.677 237.83L376.924 238.032L375.171 238.102C373.571 238.213 371.964 238.184 370.368 238.014L370.526 238.593C377.934 239.133 385.359 237.795 392.112 234.701C392.016 234.535 391.85 234.377 391.683 234.219ZM379.045 223.334C375.941 225.442 372.723 227.376 369.404 229.127C369.404 229.364 369.404 229.6 369.404 229.846C372.945 227.994 376.37 225.928 379.658 223.658C379.448 223.544 379.247 223.43 379.045 223.334Z" fill="white"/>
<path d="M453.863 255.103C452.689 254.13 451.506 253.184 450.314 252.237C447.895 250.327 445.476 248.425 443.057 246.532C438.236 242.772 433.311 239.144 428.35 235.576C425.537 233.543 422.768 231.405 419.867 229.503C419.853 229.493 419.837 229.485 419.82 229.481C419.804 229.476 419.786 229.475 419.769 229.478C419.752 229.48 419.736 229.486 419.721 229.495C419.706 229.504 419.693 229.515 419.683 229.529C419.672 229.543 419.665 229.559 419.66 229.575C419.656 229.592 419.655 229.61 419.658 229.627C419.66 229.644 419.666 229.66 419.675 229.675C419.683 229.69 419.695 229.703 419.709 229.713C422.014 231.747 424.485 233.605 426.878 235.541C429.271 237.478 431.646 239.424 434.073 241.317C438.9 245.068 443.784 248.746 448.727 252.351C450.103 253.368 451.462 254.437 452.89 255.392C453.618 255.883 454.31 256.427 455.046 256.9C455.782 257.373 456.571 257.776 457.29 258.311C457.306 258.32 457.326 258.323 457.344 258.32C457.363 258.316 457.379 258.306 457.391 258.291C457.403 258.276 457.409 258.258 457.408 258.239C457.407 258.22 457.399 258.202 457.386 258.188C456.186 257.18 455.064 256.085 453.863 255.103Z" fill="#263238"/>
<path d="M409.781 250.678C408.087 255.256 406.694 259.941 405.609 264.701C405.031 267.049 404.575 269.425 404.128 271.791C403.655 274.142 403.339 276.523 403.182 278.916C403.182 279.004 403.313 279.004 403.331 278.916C404.067 276.629 404.61 274.245 405.136 271.905C405.662 269.565 406.258 267.207 406.784 264.893C407.844 260.178 409.089 255.507 410.009 250.766C410.015 250.751 410.018 250.735 410.017 250.719C410.017 250.703 410.013 250.687 410.007 250.672C410 250.657 409.991 250.644 409.979 250.633C409.968 250.622 409.954 250.614 409.939 250.608C409.924 250.602 409.908 250.599 409.892 250.6C409.876 250.6 409.86 250.604 409.845 250.61C409.831 250.617 409.818 250.626 409.807 250.638C409.796 250.649 409.787 250.663 409.781 250.678Z" fill="#263238"/>
<path opacity="0.1" d="M430.36 300.697C427.231 303.238 424.225 304.755 421.464 304.719C405.084 304.579 381.42 263.431 373.217 245.657C368.142 234.649 368.099 224.684 372.709 222.537L430.36 300.697Z" fill="black"/>
<path d="M404.952 340.756H298.405C297.231 338.6 314.689 245.278 350.623 218.994C358.598 213.166 372.743 216.917 376.67 222.588C396.442 251.08 404.952 340.756 404.952 340.756Z" fill="#2C3D68"/>
<path d="M399.417 299.33C396.757 298.388 394.15 297.303 391.608 296.079C388.041 294.37 384.596 292.477 381.169 290.478L380.67 290.18C377.164 288.103 373.659 285.903 370.223 283.686L369.732 283.371L367.401 281.863C359.513 276.806 351.748 271.6 343.325 267.551C339.162 265.469 334.742 263.949 330.179 263.029C327.889 262.62 325.559 262.491 323.238 262.643C322.659 262.643 322.09 262.766 321.485 262.845C321.091 262.924 320.696 262.976 320.293 263.055C320.354 262.915 320.407 262.783 320.477 262.643C320.793 262.582 321.117 262.529 321.432 262.459C322.011 262.389 322.598 262.301 323.185 262.258C325.529 262.1 327.883 262.227 330.197 262.634C334.807 263.546 339.276 265.07 343.483 267.165C351.949 271.215 359.767 276.421 367.637 281.46L369.951 282.941L370.451 283.257C373.956 285.509 377.462 287.744 381.099 289.856L381.599 290.154C384.929 292.091 388.321 293.932 391.809 295.588C394.246 296.754 396.741 297.792 399.285 298.699L399.417 299.33ZM389.934 254.834L389.574 255.176C382.817 261.758 377.769 269.786 373.01 277.814C372.005 279.526 370.994 281.235 369.978 282.941C369.899 283.09 369.82 283.23 369.732 283.371C368.444 285.544 367.147 287.709 365.797 289.839C364.614 291.714 363.378 293.563 362.063 295.351C361.941 295.518 361.827 295.684 361.704 295.842C360.374 297.639 358.94 299.357 357.41 300.987C355.815 302.679 354.053 304.206 352.151 305.544L351.441 306.044C351.204 306.21 350.942 306.342 350.696 306.491L349.197 307.367C348.165 307.888 347.099 308.342 346.007 308.726C341.586 310.194 336.958 310.942 332.3 310.943C327.658 310.924 323.032 310.398 318.505 309.374C314.123 308.445 309.872 307.201 305.587 305.956C305.587 306.096 305.516 306.236 305.473 306.368C309.75 307.621 314.044 308.883 318.409 309.821C322.99 310.866 327.671 311.407 332.37 311.434C337.081 311.436 341.762 310.685 346.235 309.208C347.352 308.824 348.441 308.364 349.495 307.832L351.029 306.955C351.288 306.817 351.54 306.665 351.783 306.499L352.51 305.991C354.441 304.639 356.23 303.095 357.848 301.381C359.479 299.635 361.007 297.794 362.423 295.868C362.554 295.702 362.668 295.544 362.782 295.378C364.027 293.677 365.201 291.933 366.288 290.163C367.646 288.033 368.917 285.868 370.232 283.704L370.486 283.274L373.527 278.138C378.295 270.119 383.343 262.161 390.03 255.658L390.144 255.553C390.065 255.299 389.995 255.062 389.934 254.834ZM394.991 275.649C394.316 276.526 393.632 277.35 392.94 278.191C390.038 281.839 386.795 285.202 383.255 288.235C382.554 288.787 381.853 289.339 381.126 289.856L380.67 290.18C379.656 290.896 378.592 291.541 377.488 292.109L376.726 292.52C376.472 292.661 376.191 292.757 375.928 292.88L374.333 293.563C373.246 293.956 372.133 294.275 371.003 294.519C368.286 295.1 365.516 295.394 362.738 295.395H362.063C360.416 295.395 358.768 295.264 357.129 295.088C352.504 294.506 347.957 293.416 343.571 291.837C339.189 290.321 334.868 288.454 330.573 286.578C326.299 284.645 321.909 282.979 317.427 281.591C316.104 281.215 314.798 280.882 313.396 280.636L313.264 281.013C314.631 281.267 315.99 281.591 317.313 281.977C321.769 283.369 326.133 285.038 330.381 286.973C334.675 288.822 338.97 290.697 343.396 292.231C347.82 293.823 352.404 294.928 357.068 295.527C358.61 295.702 360.153 295.816 361.695 295.842C361.923 295.842 362.142 295.842 362.37 295.842C365.313 295.89 368.252 295.614 371.134 295.018C372.287 294.764 373.422 294.439 374.535 294.045L376.165 293.344C376.437 293.222 376.708 293.125 376.971 292.985L377.751 292.564C378.948 291.954 380.097 291.254 381.187 290.47L381.643 290.145C382.309 289.663 382.966 289.155 383.615 288.638C387.19 285.593 390.466 282.212 393.396 278.541C393.98 277.823 394.564 277.095 395.148 276.359C395.096 276.131 395.043 275.886 394.991 275.649ZM383.983 236.867C383.369 237.016 382.756 237.157 382.142 237.279L380.433 237.612C379.864 237.718 379.285 237.753 378.68 237.832L376.928 238.033L375.175 238.103C372.86 238.253 370.536 238.129 368.251 237.735C364.665 237.115 361.192 235.967 357.944 234.326L357.068 233.896C356.454 233.581 355.85 233.248 355.254 232.906C351.241 230.55 347.477 227.796 344.018 224.685L343.632 225.071C347.124 228.215 350.92 231.004 354.964 233.397C355.385 233.642 355.841 233.879 356.244 234.107L357.12 234.545C360.586 236.363 364.31 237.637 368.163 238.322C373.504 239.072 378.94 238.774 384.167 237.446C384.132 237.253 384.053 237.06 383.983 236.867ZM377.743 224.203C373.088 227.325 368.121 229.954 362.922 232.047C361.037 232.782 359.108 233.399 357.147 233.896L356.323 234.107C354.045 234.636 351.73 234.997 349.399 235.185L347.646 235.299C347.068 235.342 346.489 235.299 345.893 235.299H344.141L342.388 235.158C340.276 235.036 338.184 234.687 336.148 234.115C336.025 234.282 335.902 234.449 335.788 234.624C342.788 236.382 350.117 236.355 357.103 234.545L357.979 234.326C359.728 233.863 361.448 233.301 363.133 232.643C368.358 230.536 373.351 227.892 378.032 224.755L377.743 224.203ZM403.957 331.591C403.08 331.591 402.134 331.67 401.222 331.697H401.152L400.617 331.74C396.126 332.211 391.761 333.509 387.743 335.57C384.868 337.072 382.121 338.807 379.531 340.759H380.083C382.554 338.929 385.169 337.299 387.9 335.886C391.953 333.817 396.36 332.529 400.889 332.091H401.213H401.424C402.3 332.091 403.124 331.995 403.965 332.003C403.983 331.846 403.974 331.723 403.957 331.591ZM404.412 335.623C403.46 334.414 402.475 333.225 401.459 332.056C401.362 331.933 401.257 331.819 401.152 331.705L400.793 331.285C397.73 327.716 394.209 324.568 390.319 321.925C388.345 320.637 386.22 319.598 383.992 318.831C383.439 318.647 382.861 318.489 382.3 318.331C381.739 318.173 381.152 318.051 380.547 317.972C379.39 317.753 378.207 317.735 377.042 317.621C372.33 317.449 367.629 318.196 363.203 319.821C358.817 321.488 354.629 323.634 350.714 326.219C343.702 330.733 337.313 336.044 330.486 340.759H330.775C337.567 336.123 343.921 330.908 350.863 326.491C354.764 323.924 358.938 321.799 363.308 320.154C367.69 318.55 372.343 317.815 377.006 317.989C378.155 318.112 379.329 318.13 380.468 318.349C381.047 318.428 381.599 318.594 382.169 318.708C382.738 318.822 383.29 319.015 383.834 319.199C386.03 319.959 388.123 320.99 390.065 322.266C393.921 324.893 397.408 328.023 400.433 331.574C400.486 331.635 400.538 331.688 400.582 331.749L400.889 332.091C402.116 333.52 403.317 334.974 404.474 336.473C404.482 336.193 404.447 335.921 404.395 335.623H404.412Z" fill="white"/>
<path d="M336.477 230.434C314.785 255.526 285.548 299.847 297.493 309.645C317.134 325.754 374.496 335.062 387.66 336.622C393.339 337.305 404.715 300.18 400.92 295.377C397.125 290.574 336.477 287.182 336.065 283.458C335.828 281.345 345.039 262.976 350.964 240.443C357.774 214.465 342.585 223.361 336.477 230.434Z" fill="#F0A69C"/>
<path d="M390.979 292.321C390.979 292.321 408.385 292.189 419.769 292.636C426.123 292.882 436.974 294.284 441.557 296.606C448.411 300.068 474.861 318.955 470.427 325.467C466.404 331.357 445.738 312.251 445.738 312.251C445.738 312.251 468.297 329.692 462.153 335.914C456.009 342.137 435.527 317.439 435.527 317.439C435.527 317.439 458.315 335.844 450.961 341.278C445.405 345.353 425.598 324.039 425.598 324.039C425.598 324.039 445.063 340.016 439.533 344.459C433.398 349.367 413.897 330.84 413.897 330.84C397.946 339.762 386.728 337.483 378.84 334.915C376.991 334.258 390.979 292.321 390.979 292.321Z" fill="#F0A69C"/>
<path d="M438.321 305.717C441.047 307.672 443.817 309.626 446.358 311.852C448.9 314.079 451.363 316.313 453.694 318.732C459.399 324.657 462.046 329.249 461.845 328.987C457.252 322.685 448.278 314.718 445.736 312.527C443.194 310.336 440.767 308.031 438.234 305.849C438.172 305.753 438.26 305.674 438.321 305.717Z" fill="#263238"/>
<path d="M430.265 314.75C433.63 317.379 437.074 319.885 440.326 322.681C443.577 325.477 447.977 329.509 451.018 332.506C451.246 332.734 451.018 333.172 450.773 332.953C447.618 330.078 442.929 326.152 439.739 323.312C436.548 320.473 433.472 317.519 430.194 314.811C430.142 314.802 430.212 314.706 430.265 314.75Z" fill="#263238"/>
<path d="M421.919 321.253C427.274 325.031 431.928 329.79 436.38 334.566C436.608 334.803 436.38 334.838 436.099 334.61C431.376 330.097 427.695 326.521 421.787 321.464C421.717 321.359 421.831 321.175 421.919 321.253Z" fill="#263238"/>
<path d="M388.537 291.764C396.478 291.711 419.799 291.65 427.722 292.263C434.734 292.798 440.509 294.305 446.39 298.197C459.011 306.54 467.144 316.339 469.177 319.231C470.404 320.984 472.183 323.815 470.562 325.778C468.572 328.162 461.254 325.83 453.533 318.845C453.253 318.591 453.428 318.433 453.717 318.67C464.558 327.434 468.87 326.435 470.001 324.936C470.737 323.964 470.001 322.307 469.37 320.992C468.314 319.132 467.024 317.415 465.531 315.883C460.551 310.556 455.042 305.748 449.09 301.536C442.712 296.775 435.114 293.922 427.179 293.306C419.063 292.64 396.609 292.85 388.502 292.07C388.336 292.018 388.362 291.772 388.537 291.764Z" fill="#263238"/>
<path d="M463.441 332.401C462.994 330.237 461.434 328.256 460.198 326.468C458.697 324.218 456.973 322.125 455.054 320.219C454.975 320.14 454.826 320.219 454.905 320.342C456.54 322.253 458.059 324.261 459.453 326.354C460.195 327.506 460.868 328.7 461.469 329.93C462.039 331.113 462.714 332.48 462.416 333.83C461.855 336.407 458.577 336.345 456.64 335.653C455.385 335.181 454.176 334.594 453.029 333.9C451.466 332.904 449.983 331.788 448.594 330.561C448.48 330.456 448.165 330.5 448.288 330.614C451.18 333.366 456.657 339.089 461.127 336.994C461.985 336.615 462.685 335.95 463.107 335.112C463.529 334.275 463.647 333.316 463.441 332.401Z" fill="#263238"/>
<path d="M391.243 290.064L370.393 337.39C370.393 337.39 297.527 320.94 293.303 307.11C289.078 293.28 311.909 256.277 332.514 233.175C352.777 210.475 355.774 225.874 350.735 243.429C345.695 260.984 337.431 281.22 338.351 282.737C339.271 284.253 391.243 290.064 391.243 290.064Z" fill="#2C3D68"/>
<path d="M343.038 266.961C342.985 267.093 342.941 267.233 342.889 267.364C338.841 265.374 334.551 263.918 330.128 263.035C327.838 262.627 325.507 262.497 323.187 262.649C322.608 262.649 322.038 262.772 321.434 262.851C320.829 262.93 320.294 263.026 319.733 263.184C318.594 263.429 317.516 263.868 316.403 264.209C312.108 265.843 308.169 268.289 304.799 271.414L305.351 270.458C308.565 267.62 312.265 265.385 316.272 263.859C317.393 263.508 318.489 263.061 319.646 262.816C320.216 262.658 320.803 262.588 321.399 262.465C321.995 262.343 322.564 262.308 323.152 262.264C325.495 262.106 327.85 262.233 330.163 262.641C334.624 263.515 338.952 264.967 343.038 266.961ZM381.6 290.16L381.101 289.862L379.102 288.679L377.893 288.539C378.769 289.091 379.725 289.652 380.645 290.187L381.145 290.485C383.774 292.018 386.403 293.491 389.103 294.867L389.313 294.385C386.719 293.044 384.151 291.633 381.6 290.16ZM367.376 287.259C366.85 288.136 366.315 289.012 365.772 289.845C364.589 291.72 363.353 293.57 362.039 295.357C361.916 295.524 361.802 295.691 361.679 295.848C360.349 297.645 358.915 299.363 357.385 300.993C355.79 302.685 354.028 304.212 352.126 305.55L351.416 306.05C351.18 306.216 350.917 306.348 350.671 306.497L349.173 307.373C348.14 307.894 347.074 308.348 345.982 308.732C341.561 310.2 336.933 310.949 332.275 310.949C327.639 310.929 323.019 310.403 318.498 309.38C313.932 308.407 309.453 307.084 304.957 305.778C300.969 304.621 296.955 303.456 292.854 302.693C292.854 302.833 292.854 302.974 292.854 303.105C296.911 303.868 300.882 305.042 304.852 306.19C309.339 307.505 313.835 308.819 318.419 309.827C323 310.872 327.682 311.413 332.38 311.44C337.091 311.442 341.772 310.691 346.245 309.214C347.362 308.83 348.451 308.37 349.506 307.838L351.039 306.961C351.299 306.823 351.55 306.671 351.793 306.506L352.521 305.997C354.451 304.646 356.24 303.101 357.858 301.387C359.49 299.641 361.017 297.8 362.433 295.875C362.564 295.708 362.678 295.55 362.792 295.384C364.037 293.684 365.211 291.939 366.298 290.169C366.894 289.24 367.472 288.294 368.051 287.356L367.376 287.259ZM382.205 289.012C381.846 289.293 381.478 289.573 381.101 289.836L380.645 290.16C379.631 290.876 378.568 291.52 377.464 292.088L376.701 292.5C376.447 292.641 376.166 292.737 375.904 292.86L374.308 293.543C373.221 293.936 372.108 294.255 370.978 294.499C368.262 295.08 365.491 295.374 362.713 295.375H362.039C360.391 295.375 358.743 295.244 357.104 295.068C352.479 294.486 347.932 293.396 343.546 291.817C339.164 290.301 334.843 288.434 330.549 286.558C326.274 284.625 321.884 282.959 317.402 281.571C312.906 280.283 308.112 279.582 303.458 280.493C301.978 280.791 300.545 281.289 299.199 281.974C299.111 282.15 299.024 282.334 298.945 282.509C300.385 281.741 301.929 281.186 303.528 280.861C308.103 279.985 312.836 280.669 317.288 281.957C321.744 283.349 326.108 285.017 330.356 286.953C334.65 288.802 338.945 290.677 343.371 292.211C347.799 293.813 352.39 294.927 357.06 295.533C358.603 295.708 360.145 295.822 361.688 295.848C361.916 295.848 362.135 295.848 362.363 295.848C365.306 295.896 368.245 295.62 371.127 295.024C372.279 294.77 373.415 294.445 374.528 294.052L376.158 293.35C376.429 293.228 376.701 293.131 376.964 292.991L377.744 292.57C378.941 291.961 380.089 291.26 381.18 290.476L381.635 290.152C382.091 289.818 382.512 289.468 383.003 289.117L382.205 289.012ZM344.045 224.648C343.669 224.315 343.301 223.99 342.932 223.648L342.459 223.955L343.686 225.051C346.539 227.606 349.587 229.935 352.801 232.018C352.801 231.799 352.801 231.58 352.801 231.37C349.725 229.36 346.804 227.122 344.063 224.674L344.045 224.648ZM349.374 235.165L347.621 235.279C347.043 235.322 346.464 235.279 345.868 235.279H344.116L342.363 235.138C340.045 235 337.751 234.594 335.527 233.929C334.554 233.64 333.59 233.307 332.643 232.921L332.433 233.158L332.231 233.386C333.253 233.814 334.298 234.185 335.36 234.499C340.911 235.981 346.708 236.303 352.389 235.445C352.389 235.226 352.45 235.016 352.485 234.797C351.513 234.989 350.452 235.112 349.392 235.191L349.374 235.165ZM377.034 317.601C372.32 317.437 367.62 318.193 363.195 319.827C358.81 321.495 354.622 323.64 350.706 326.225C348.515 327.645 346.377 329.135 344.265 330.669L344.606 330.765C346.657 329.284 348.734 327.855 350.864 326.497C354.765 323.93 358.939 321.805 363.309 320.16C367.692 318.556 372.344 317.821 377.008 317.996C377.613 318.057 378.217 318.092 378.822 318.145L378.989 317.776C378.366 317.724 377.7 317.689 377.052 317.627L377.034 317.601Z" fill="white"/>
<path d="M362.031 329.569C362.741 328.22 363.425 326.87 364.108 325.512C365.481 322.76 366.849 320.002 368.21 317.238C370.909 311.752 373.469 306.195 375.931 300.586C377.342 297.413 378.876 294.276 380.147 291.042C380.162 291.009 380.164 290.972 380.151 290.938C380.139 290.905 380.114 290.877 380.081 290.862C380.049 290.847 380.011 290.846 379.978 290.858C379.944 290.87 379.917 290.895 379.902 290.928C378.385 293.601 377.071 296.397 375.668 299.14C374.266 301.883 372.838 304.6 371.488 307.37C368.8 312.856 366.194 318.386 363.67 323.96C362.96 325.52 362.189 327.063 361.549 328.658C361.216 329.473 360.831 330.262 360.506 331.086C360.182 331.91 359.937 332.751 359.63 333.566C359.626 333.575 359.624 333.584 359.623 333.593C359.623 333.603 359.624 333.613 359.627 333.621C359.631 333.63 359.636 333.639 359.642 333.646C359.649 333.653 359.656 333.658 359.665 333.662C359.674 333.666 359.683 333.669 359.692 333.669C359.702 333.67 359.711 333.668 359.72 333.665C359.729 333.662 359.738 333.657 359.745 333.65C359.752 333.644 359.757 333.636 359.761 333.627C360.471 332.269 361.304 330.954 362.031 329.569Z" fill="#263238"/>
<path d="M371.963 334.146L370.499 337.459L370.455 337.564H370.315C363.418 336.285 356.564 334.751 349.754 333.042C342.944 331.333 336.187 329.396 329.5 327.24C322.789 325.119 316.208 322.608 309.789 319.72C306.569 318.271 303.458 316.59 300.482 314.69C298.996 313.721 297.592 312.634 296.283 311.438C294.934 310.281 293.9 308.8 293.277 307.135C294.052 308.699 295.184 310.059 296.581 311.105C297.965 312.168 299.433 313.115 300.972 313.936C304.016 315.628 307.16 317.135 310.385 318.449C316.827 321.123 323.444 323.401 330.096 325.54C336.748 327.678 343.461 329.668 350.192 331.578C356.923 333.489 363.681 335.382 370.447 337.196L370.271 337.284L371.963 334.146Z" fill="#263238"/>
<path d="M390.412 291.906L391.139 290.022L391.218 290.153C383.909 289.671 376.608 289.084 369.307 288.321C362.007 287.559 354.75 286.726 347.493 285.64C345.679 285.359 343.865 285.061 342.051 284.711C341.174 284.526 340.236 284.351 339.299 284.088C339.062 284.018 338.834 283.948 338.58 283.852C338.434 283.804 338.293 283.742 338.159 283.668C338.057 283.613 337.96 283.548 337.87 283.475C337.776 283.396 337.696 283.301 337.633 283.194C337.598 283.126 337.566 283.056 337.537 282.984C337.532 282.949 337.532 282.914 337.537 282.879C337.502 282.545 337.52 282.208 337.59 281.88C337.633 281.643 337.677 281.389 337.739 281.17C338.668 277.533 339.842 274.097 341.034 270.653C343.418 263.72 346.012 256.875 348.747 250.074C346.634 257.086 344.47 264.097 342.314 271.108C341.279 274.614 340.14 278.12 339.342 281.626C339.29 281.845 339.264 282.046 339.22 282.257C339.176 282.467 339.22 282.712 339.176 282.625C339.166 282.578 339.148 282.534 339.123 282.493C339.123 282.406 338.966 282.318 339.001 282.335C339.036 282.353 338.957 282.335 339.001 282.335L339.22 282.423L339.798 282.607C340.675 282.835 341.551 283.001 342.427 283.177C344.18 283.501 346.012 283.782 347.809 284.053C351.42 284.597 355.036 285.108 358.659 285.587L369.535 287.051C376.783 288.015 384.031 289.049 391.279 290.109H391.411L391.358 290.223L390.412 291.906Z" fill="#263238"/>
<path d="M349.523 254.564C349.009 255.801 348.359 256.977 347.586 258.07C346.86 259.189 345.974 260.196 344.957 261.059C345.623 259.893 346.333 258.789 347.087 257.693C347.818 256.59 348.633 255.544 349.523 254.564Z" fill="#263238"/>
<path d="M370.763 238.368C364.575 240.121 353.427 231.068 348.852 223.522C348.537 223.005 349.781 201.69 349.588 197.439C349.588 196.563 376.53 202.698 376.53 202.698C376.53 202.698 374.312 211.725 374.698 219.131C374.724 219.762 376.731 236.668 370.763 238.368Z" fill="#F0A69C"/>
<path d="M349.172 210.796C361.784 219.7 374.071 216.282 374.588 216.125C374.796 211.607 375.42 207.118 376.455 202.715C376.455 202.715 349.461 196.58 349.505 197.457C349.663 199.446 349.444 205.196 349.172 210.796Z" fill="#263238"/>
<path d="M376.395 185.14C377.088 191.433 382.127 196.043 387.64 195.43C393.153 194.816 397.07 189.233 396.404 182.949C395.738 176.665 390.681 172.047 385.16 172.66C379.638 173.274 375.703 178.856 376.395 185.14Z" fill="#455A64"/>
<path d="M373.206 185.904C373.977 192.916 379.577 198.025 385.712 197.35C391.847 196.675 396.229 190.462 395.432 183.459C394.634 176.456 389.069 171.338 382.925 172.013C376.782 172.688 372.435 178.91 373.206 185.904Z" fill="#C7C7C7"/>
<path d="M345.851 165.422C342.906 174.87 347.735 202.232 354.422 208.367C364.124 217.263 380.093 218.201 387.665 206.527C395.009 195.203 388.086 159.664 380.601 154.081C369.584 145.843 350.198 151.478 345.851 165.422Z" fill="#F0A69C"/>
<path d="M368.59 182.601C368.59 182.539 368.467 182.715 368.484 182.793C368.888 184.616 369.054 186.781 367.512 187.71C367.459 187.71 367.512 187.833 367.512 187.807C369.519 187.132 369.273 184.266 368.59 182.601Z" fill="#263238"/>
<path d="M366.579 180.992C363.582 181.334 364.484 187.311 367.263 186.996C370.041 186.68 369.094 180.712 366.579 180.992Z" fill="#263238"/>
<path d="M379.228 181.164C379.228 181.093 379.386 181.234 379.394 181.313C379.613 183.171 380.183 185.256 381.945 185.625C381.997 185.625 382.015 185.73 381.945 185.73C379.85 185.747 379.14 182.96 379.228 181.164Z" fill="#263238"/>
<path d="M380.586 178.96C383.531 178.285 384.661 184.218 381.936 184.849C379.21 185.48 378.097 179.547 380.586 178.96Z" fill="#263238"/>
<path d="M363.815 178.62C364.567 178.274 365.299 177.884 366.006 177.455C366.834 177.152 367.54 176.585 368.013 175.842C368.116 175.579 368.129 175.289 368.049 175.018C367.97 174.747 367.803 174.51 367.575 174.343C367.076 174.082 366.517 173.959 365.954 173.986C365.392 174.014 364.847 174.192 364.376 174.501C363.32 174.977 362.479 175.831 362.019 176.894C361.926 177.142 361.909 177.412 361.968 177.67C362.027 177.928 362.16 178.163 362.351 178.346C362.542 178.53 362.782 178.653 363.042 178.702C363.302 178.751 363.571 178.722 363.815 178.62Z" fill="#263238"/>
<path d="M382.477 175.621C381.65 175.58 380.825 175.496 380.006 175.367C379.126 175.4 378.26 175.141 377.543 174.631C377.346 174.426 377.223 174.162 377.193 173.879C377.163 173.597 377.227 173.313 377.377 173.071C377.744 172.642 378.218 172.319 378.75 172.132C379.283 171.946 379.855 171.904 380.409 172.01C381.566 172.058 382.663 172.537 383.485 173.351C383.662 173.546 383.778 173.788 383.819 174.048C383.861 174.308 383.826 174.574 383.72 174.814C383.613 175.054 383.439 175.259 383.218 175.402C382.998 175.545 382.74 175.621 382.477 175.621Z" fill="#263238"/>
<path d="M369.601 199.94C370.109 200.308 370.644 200.816 371.354 200.816C372.04 200.7 372.694 200.441 373.273 200.054C373.284 200.041 373.299 200.033 373.315 200.031C373.332 200.03 373.348 200.035 373.361 200.045C373.374 200.056 373.382 200.071 373.383 200.087C373.385 200.103 373.38 200.12 373.37 200.133C373.162 200.538 372.847 200.879 372.459 201.119C372.071 201.358 371.626 201.487 371.17 201.491C370.778 201.451 370.408 201.296 370.105 201.045C369.802 200.793 369.581 200.458 369.47 200.08C369.391 199.992 369.522 199.887 369.601 199.94Z" fill="#263238"/>
<path d="M370.707 194.113C371.288 194.773 371.998 195.306 372.795 195.678C373.591 196.051 374.456 196.255 375.335 196.277C376.104 196.308 376.875 196.228 377.622 196.041C377.766 196.014 377.907 195.973 378.043 195.918C378.176 195.884 378.308 195.843 378.437 195.795C378.533 195.763 378.616 195.7 378.673 195.616C378.73 195.532 378.758 195.432 378.753 195.331C378.747 195.268 378.733 195.206 378.709 195.147V194.989C378.525 193.56 378.06 191.413 378.06 191.413C378.621 191.597 381.461 192.386 381.303 191.65C380.006 185.515 378.56 178.749 375.974 172.956C375.957 172.918 375.926 172.887 375.888 172.869C375.85 172.852 375.807 172.849 375.766 172.86C375.726 172.872 375.691 172.898 375.668 172.933C375.645 172.968 375.636 173.01 375.641 173.052C376.658 178.968 378.709 184.665 379.831 190.581C378.82 190.284 377.772 190.134 376.719 190.134C376.527 190.221 377.692 194.262 377.718 194.91C377.724 194.933 377.724 194.957 377.718 194.98C375.37 195.646 373.459 195.199 370.891 193.946C370.698 193.858 370.576 193.981 370.707 194.113Z" fill="#263238"/>
<path d="M376.668 195.445C376.045 196.58 375.139 197.534 374.039 198.215C373.425 198.565 372.718 198.718 372.014 198.653C370.481 198.486 370.262 197.137 370.332 195.936C370.39 195.298 370.522 194.668 370.726 194.061C372.509 195.143 374.591 195.628 376.668 195.445Z" fill="#263238"/>
<path d="M374.027 198.241C373.413 198.59 372.706 198.743 372.003 198.679C370.469 198.512 370.25 197.163 370.32 195.962C371.959 195.857 373.659 196.698 374.027 198.241Z" fill="#FF99BA"/>
<path opacity="0.2" d="M350.339 175.133C349.261 177.85 347.044 184.231 345.782 184.677C344.581 175.808 344.537 167.762 346.737 162.819C347.647 160.778 348.924 158.921 350.506 157.342C350.69 159.717 351.487 172.294 350.339 175.133Z" fill="#263238"/>
<path d="M374.046 162.456C373.296 163.757 372.224 164.843 370.933 165.611C369.643 166.378 368.177 166.801 366.676 166.839C365.148 166.879 363.635 166.528 362.28 165.819C360.926 165.11 359.775 164.068 358.937 162.789C358.932 162.781 358.926 162.774 358.919 162.769C358.911 162.763 358.903 162.759 358.894 162.756C358.885 162.754 358.876 162.753 358.866 162.754C358.857 162.756 358.848 162.759 358.84 162.763C358.832 162.768 358.825 162.774 358.819 162.781C358.814 162.789 358.81 162.797 358.807 162.806C358.805 162.815 358.804 162.824 358.805 162.833C358.806 162.843 358.809 162.852 358.814 162.86C359.576 164.286 360.714 165.477 362.104 166.303C363.495 167.13 365.084 167.56 366.702 167.548C368.286 167.459 369.819 166.955 371.147 166.085C372.474 165.216 373.55 164.013 374.265 162.597C374.284 162.568 374.29 162.532 374.283 162.499C374.275 162.465 374.255 162.436 374.226 162.417C374.197 162.398 374.162 162.392 374.128 162.4C374.094 162.407 374.065 162.427 374.046 162.456Z" fill="#263238"/>
<path d="M392.328 148.357C391.066 146.028 389.02 144.221 386.553 143.256C383.135 141.906 379.708 142.809 376.316 143.782C376.298 143.782 376.28 143.789 376.267 143.802C376.253 143.816 376.246 143.833 376.246 143.852C376.246 143.871 376.253 143.888 376.267 143.902C376.28 143.915 376.298 143.922 376.316 143.922C379.2 143.107 382.179 142.45 385.124 143.344C387.562 144.073 389.673 145.621 391.101 147.726C392.495 149.906 393.057 152.514 392.685 155.075C392.314 157.635 391.033 159.976 389.077 161.67C387.924 162.616 386.59 163.316 385.157 163.727C383.723 164.139 382.221 164.253 380.742 164.062C380.628 164.062 380.576 164.22 380.698 164.238C382.712 164.579 384.78 164.353 386.672 163.583C388.563 162.814 390.203 161.533 391.407 159.883C392.61 158.234 393.33 156.281 393.485 154.245C393.64 152.209 393.224 150.17 392.285 148.357H392.328Z" fill="#263238"/>
<path d="M345.057 170.88C345.057 170.88 338.72 162.738 341.788 156.858C343.54 153.518 351.087 152.598 351.087 152.598C351.087 152.598 352.839 148.733 358.808 146.227C364.776 143.72 372.831 145.192 372.831 145.192C372.831 145.192 378.186 140.74 384.321 142.949C392.874 146.034 393.961 158.05 386.81 163.22C381.779 166.858 373.47 163.299 373.47 163.299C372.769 163.518 366.196 169.233 359.5 163.65C359.5 163.65 355.688 168.453 351.139 166.349C350.709 167.635 349.895 168.758 348.808 169.568C347.721 170.378 346.412 170.836 345.057 170.88Z" fill="#263238"/>
<path d="M351.559 187.727C351.559 187.727 345.258 178.963 341.279 181.233C337.3 183.503 342.155 196.237 346.853 197.885C347.443 198.144 348.079 198.282 348.723 198.29C349.368 198.297 350.007 198.175 350.603 197.929C351.199 197.684 351.739 197.32 352.191 196.861C352.643 196.401 352.997 195.855 353.233 195.256L351.559 187.727Z" fill="#F0A69C"/>
<path d="M342.748 184.859C342.669 184.859 342.66 184.956 342.748 184.982C346.07 186.279 347.849 189.312 349.111 192.467C348.112 191.257 346.771 190.609 345.149 191.801C345.062 191.862 345.149 191.993 345.237 191.976C345.814 191.792 346.434 191.79 347.013 191.97C347.591 192.15 348.101 192.504 348.471 192.984C349.095 193.8 349.626 194.681 350.057 195.613C350.215 195.902 350.741 195.736 350.627 195.403V195.324C350.627 191.064 347.27 185.219 342.748 184.859Z" fill="#263238"/>
<path d="M346.309 181.589C346.309 181.589 342.9 168.004 345.555 159.678C348.509 150.423 359.648 141.361 372.812 145.208C372.812 145.208 358.202 147.093 351.103 159.301C347.843 164.91 350.971 181.107 350.971 181.107L346.309 181.589Z" fill="#C7C7C7"/>
<path d="M360.45 186.17C361.782 193.181 357.899 199.789 351.764 200.964C345.629 202.138 339.564 197.458 338.223 190.447C336.882 183.435 340.774 176.827 346.909 175.653C353.044 174.478 359.109 179.176 360.45 186.17Z" fill="#C7C7C7"/>
<path d="M357.14 186.396C358.341 192.68 354.844 198.665 349.331 199.691C343.818 200.716 338.367 196.492 337.166 190.217C335.966 183.942 339.454 177.947 344.966 176.921C350.479 175.896 355.93 180.103 357.14 186.396Z" fill="#455A64"/>
<path d="M9.38672 340.757H116.889L95.4516 216.068H15.066L9.38672 340.757Z" fill="#FBFBFB"/>
<path d="M9.38672 340.757H18.8083L24.1019 216.068H15.066L9.38672 340.757Z" fill="#EEEEEE"/>
<path d="M73.1019 161.694C63.1194 171.623 60.2535 187.986 60.2535 187.986C60.2535 187.986 50.6829 204.454 53.356 213.403C54.0631 215.94 55.375 218.268 57.1793 220.186C58.9836 222.105 61.2264 223.558 63.7154 224.419L62.7688 219.476C62.7688 219.476 65.9766 225.83 76.6952 228.39C87.4139 230.949 101.594 227.653 108.974 223.92C113.348 221.73 117.08 218.445 119.807 214.384L117.046 221.571C117.046 221.571 127.449 221.203 133.628 210.134C139.807 199.064 122.059 183.157 120.552 179.73C119.044 176.304 117.133 151.334 90.867 155.637C90.9021 155.576 80.0081 154.857 73.1019 161.694Z" fill="#263238"/>
<path d="M59.9543 223.706C57.2199 221.664 54.5205 219.324 53.013 216.432C51.3692 213.434 50.7856 209.969 51.3566 206.598C52.084 202.558 54.2137 198.991 56.2821 195.511C58.3504 192.032 60.8395 188.5 62.9166 184.845C63.0305 184.644 62.7238 184.477 62.5836 184.635C60.2498 187.376 58.0728 190.246 56.063 193.233C54.0068 195.963 52.2773 198.925 50.9096 202.058C49.6313 204.943 49.2113 208.135 49.7001 211.252C50.2171 213.786 51.342 216.156 52.978 218.158C54.9149 220.568 57.3601 222.111 59.8141 223.925C59.9543 224.039 60.1033 223.82 59.9543 223.706Z" fill="#263238"/>
<path d="M135.88 198.683C132.725 189.489 124.486 183.652 119.429 175.633C116.712 171.294 114.6 166.492 111.059 162.723C110.963 162.618 110.788 162.784 110.875 162.889C113.785 166.281 115.468 170.365 117.571 174.283C119.812 178.138 122.431 181.761 125.389 185.098C130.595 191.338 136.826 198.727 135.634 207.464C135.082 211.496 132.698 215.966 128.562 217.219C128.404 217.272 128.5 217.535 128.658 217.464C130.29 216.809 131.77 215.829 133.011 214.583C134.251 213.337 135.224 211.851 135.871 210.216C137.265 206.499 137.268 202.402 135.88 198.683Z" fill="#263238"/>
<path d="M136.257 201.155C136.542 197.673 135.739 194.188 133.961 191.181C132.147 188.219 129.298 186.08 126.45 184.17C123.163 181.987 119.701 179.91 117.615 176.448C117.528 176.299 117.317 176.448 117.396 176.597C120.709 182.312 127.037 184.976 131.27 189.788C136.134 195.283 136.143 203.285 132.795 209.569C130.667 213.399 127.664 216.672 124.031 219.122C123.969 219.122 124.031 219.253 124.101 219.209C130.297 215.143 135.757 208.885 136.257 201.155Z" fill="#263238"/>
<path d="M96.5374 243.04C123.137 257.641 154.977 275.967 174.487 271.655C183.137 269.745 221.98 218.825 223.628 212.935C225.039 207.878 189.868 187.519 185.942 191.506C179.316 198.193 161.402 235.845 158.772 236.476C156.143 237.107 133.812 232.576 110.569 228.378C88.2026 224.364 78.0711 232.909 96.5374 243.04Z" fill="#FFCDC2"/>
<path d="M219.848 219.278C222.88 215.457 235.255 196.719 237.525 190.733C239.795 184.747 245.106 167.07 240.706 164.844C236.307 162.617 234.361 167.657 234.361 167.657C234.361 167.657 235.422 159.83 230.785 158.016C226.149 156.202 223.345 164.151 223.345 164.151C223.345 164.151 223.844 156.036 219.085 154.511C214.326 152.986 212.854 161.522 212.854 161.522C212.854 161.522 213.66 154.125 209.225 154.511C203.897 155.028 203.967 168.84 200.952 175.256C200.268 176.71 184.992 203.809 184.992 203.809L219.848 219.278Z" fill="#FFCDC2"/>
<path d="M212.961 160.831C212.961 170.989 211.208 175.441 205.95 183.907C205.844 184.065 206.063 184.258 206.195 184.1C212.155 176.282 215.152 171.024 213.487 160.805C213.373 160.305 212.961 160.349 212.961 160.831Z" fill="#263238"/>
<path d="M223.296 163.355C222.419 173.872 220.544 178.745 215.627 188.027C215.557 188.158 215.776 188.289 215.855 188.158C221.438 179.464 224.312 174.135 223.821 163.487C223.848 163.005 223.339 162.873 223.296 163.355Z" fill="#263238"/>
<path d="M234.068 168.123C232.464 178.272 230.658 183.671 224.734 192.067C224.718 192.086 224.706 192.108 224.699 192.131C224.692 192.155 224.69 192.179 224.692 192.204C224.695 192.228 224.702 192.252 224.714 192.273C224.725 192.295 224.741 192.314 224.76 192.33C224.779 192.345 224.801 192.357 224.824 192.364C224.848 192.371 224.872 192.373 224.897 192.371C224.921 192.368 224.945 192.361 224.967 192.35C224.988 192.338 225.007 192.322 225.023 192.303C231.903 184.328 234.208 177.614 234.374 168.202C234.366 167.571 234.173 167.483 234.068 168.123Z" fill="#263238"/>
<path d="M177.465 206.874C177.465 206.874 176.72 194.175 177.631 188.522C178.543 182.869 189.664 163.044 194.046 165.2C199.752 167.996 195.58 180.704 192.723 186.664C192.723 186.664 205.922 193.097 204.905 202.869C203.889 212.641 177.465 206.874 177.465 206.874Z" fill="#FFCDC2"/>
<path d="M195.397 166.481C198.762 172.783 194.52 180.364 192.171 186.35C192.133 186.436 192.116 186.531 192.122 186.625C192.128 186.72 192.157 186.811 192.206 186.892C192.255 186.973 192.323 187.041 192.404 187.09C192.485 187.139 192.577 187.168 192.671 187.174C198.026 190.241 204.687 196.131 205.256 202.616C205.256 202.656 205.272 202.694 205.3 202.722C205.328 202.75 205.366 202.765 205.405 202.765C205.445 202.765 205.483 202.75 205.511 202.722C205.539 202.694 205.554 202.656 205.554 202.616C205.887 195.605 199.814 189.26 193.74 186.271C196.229 180.136 200.164 172.38 195.493 166.446C195.432 166.42 195.379 166.446 195.397 166.481Z" fill="#263238"/>
<path d="M152.445 234.407L120.429 261.244C120.429 261.244 100.885 251.077 86.4504 239.394C72.0157 227.712 88.0017 222.032 112.787 226.195C137.572 230.358 152.445 234.407 152.445 234.407Z" fill="#2C3D68"/>
<path d="M114.522 239.788C113.615 238.55 112.565 237.423 111.393 236.432C112.69 239.218 114.563 241.697 116.888 243.706C116.26 242.31 115.466 240.994 114.522 239.788ZM86.4765 239.403L86.8621 239.701C87.1163 239.429 87.3705 239.14 87.6071 238.824C87.2039 239.008 86.8271 239.201 86.459 239.438L86.4765 239.403ZM140.07 239.578C138.555 239.356 137.02 239.309 135.495 239.438C136.926 239.978 138.414 240.351 139.93 240.551C141.443 240.781 142.979 240.831 144.505 240.7C143.069 240.155 141.575 239.778 140.052 239.578H140.07ZM129.351 229.201C129.331 229.786 129.352 230.372 129.413 230.954C129.626 230.428 129.808 229.889 129.956 229.341L129.351 229.201Z" fill="white"/>
<path d="M113.262 255.501C119.774 249.243 126.733 243.432 133.788 237.771C135.787 236.176 137.82 234.616 139.923 233.117C139.985 233.073 140.063 233.117 140.002 233.196C136.689 236.255 133.245 239.173 129.818 242.109C126.391 245.045 122.921 247.981 119.406 250.83C117.417 252.442 115.436 254.055 113.42 255.624C113.297 255.685 113.184 255.58 113.262 255.501Z" fill="#263238"/>
<path d="M134.026 249.833L120.416 261.226C120.416 261.226 100.871 251.069 86.4366 239.386C81.3095 235.24 80.0211 231.857 81.5899 229.395L134.026 249.833Z" fill="#263238"/>
<path d="M127.439 340.657H25.4141C25.4141 340.657 47.5789 255.057 68.096 230.955C68.5517 230.403 69.025 229.877 69.4982 229.386C69.5946 229.272 69.6823 229.193 69.7787 229.097C71.367 227.4 73.2162 225.968 75.2564 224.855C75.6157 224.662 75.975 224.478 76.3519 224.32C84.2397 220.683 92.6008 223.698 98.6218 228.851C100.532 230.482 122.163 258.65 124.038 269.351C125.695 278.825 119.297 289 119.297 289L127.439 340.657Z" fill="#2C3D68"/>
<path d="M104.013 285.338C99.6685 285.762 95.3621 286.509 91.1291 287.573C89.0257 288.134 86.9748 288.783 84.9152 289.475C83.8898 289.826 82.8644 290.141 81.8302 290.448C80.7535 290.798 79.638 291.016 78.5086 291.097C78.4876 291.097 78.4676 291.105 78.4528 291.12C78.438 291.134 78.4297 291.155 78.4297 291.175C78.4297 291.196 78.438 291.216 78.4528 291.231C78.4676 291.246 78.4876 291.254 78.5086 291.254C79.5785 291.3 80.6504 291.27 81.7163 291.167C82.7425 291.038 83.7587 290.839 84.7575 290.571C86.896 290.019 88.9994 289.379 91.1291 288.818C95.4236 287.679 99.7093 286.539 104.074 285.707C104.123 285.698 104.166 285.671 104.195 285.631C104.224 285.591 104.235 285.541 104.227 285.492C104.219 285.443 104.192 285.399 104.152 285.371C104.111 285.342 104.061 285.33 104.013 285.338Z" fill="#263238"/>
<path d="M114.797 289.091C111.211 288.746 107.609 288.603 104.008 288.661C102.255 288.705 100.423 288.845 98.6265 289.029C97.7501 289.126 96.8736 289.231 96.0673 289.345C95.261 289.459 94.2093 289.722 93.2715 289.836C93.1751 289.836 93.1751 290.002 93.2715 289.993C94.1479 289.914 95.0682 289.993 95.9622 289.95L98.6528 289.853C100.406 289.8 102.237 289.757 104.034 289.678C107.627 289.529 111.212 289.415 114.805 289.38C114.998 289.389 114.981 289.108 114.797 289.091Z" fill="#263238"/>
<path d="M58.4092 251.075C57.9272 250.462 57.4364 249.857 56.9018 249.322L56.5249 250.111C56.8755 250.654 57.2523 251.189 57.638 251.706C58.5459 252.936 59.5962 254.054 60.7668 255.037C60.1271 253.634 59.3366 252.306 58.4092 251.075ZM70.2497 228.621C70.0712 229.99 70.0418 231.374 70.1621 232.749C70.7066 231.312 71.0744 229.814 71.2576 228.288C71.2576 228.06 71.319 227.824 71.3453 227.596C70.9772 227.92 70.6091 228.262 70.2497 228.621ZM101.214 257.14C100.668 258.575 100.292 260.07 100.092 261.592C99.8712 263.11 99.8212 264.647 99.943 266.176C100.493 264.743 100.864 263.248 101.047 261.724C101.288 260.208 101.344 258.669 101.214 257.14ZM81.7134 306.5C81.1733 307.93 80.8026 309.419 80.6091 310.935C80.3868 312.452 80.3398 313.99 80.4688 315.519C81.5105 312.633 81.9345 309.56 81.7134 306.5ZM48.567 269.235C48.0318 270.675 47.6614 272.172 47.4627 273.696C47.2396 275.21 47.1926 276.745 47.3224 278.271C47.8588 276.834 48.2265 275.34 48.418 273.818C48.6477 272.302 48.6977 270.763 48.567 269.235ZM75.9991 262.977C74.4845 262.755 72.9494 262.708 71.4241 262.837C72.8548 263.377 74.3428 263.75 75.8588 263.95C77.3726 264.179 78.9083 264.229 80.4338 264.099C79.008 263.544 77.5228 263.156 76.0078 262.942L75.9991 262.977ZM112.704 305.045C111.186 304.823 109.648 304.776 108.12 304.905C111.006 305.947 114.078 306.371 117.138 306.15C115.711 305.608 114.226 305.232 112.713 305.028L112.704 305.045ZM44.1848 301.005C42.6963 300.789 41.1888 300.736 39.6888 300.847H39.6011H39.68C41.0958 301.37 42.5657 301.731 44.0621 301.925C45.5767 302.148 47.1118 302.195 48.6371 302.066C47.199 301.541 45.7049 301.185 44.1848 301.005ZM82.6774 337.193C81.1629 336.97 79.6278 336.923 78.1025 337.052C80.9908 338.096 84.0671 338.517 87.1297 338.288C85.6805 337.753 84.175 337.386 82.6424 337.193H82.6774ZM41.2751 332.758C39.7576 332.536 38.2196 332.488 36.6914 332.618C38.123 333.151 39.6109 333.519 41.1261 333.713C42.6424 333.949 44.182 333.996 45.7098 333.853C44.267 333.318 42.7672 332.95 41.2401 332.758H41.2751ZM83.6766 241.189C82.442 242.107 81.3158 243.163 80.3198 244.335C81.7183 243.699 83.0411 242.908 84.2638 241.978C85.496 241.063 86.6141 240.004 87.5942 238.823C86.2052 239.465 84.8914 240.259 83.6766 241.189ZM94.5968 288.104C93.3651 289.01 92.2469 290.06 91.2664 291.233C92.6606 290.601 93.9756 289.806 95.184 288.867C96.4178 287.964 97.5362 286.913 98.5144 285.738C97.1211 286.379 95.8065 287.179 94.5968 288.122V288.104ZM56.3058 316.781C55.0671 317.684 53.9454 318.738 52.9666 319.918C54.3556 319.276 55.6694 318.482 56.8842 317.552C58.1163 316.637 59.2422 315.588 60.241 314.423C58.8339 315.045 57.5116 315.843 56.3058 316.798V316.781ZM119.899 275.527C118.992 274.289 117.942 273.162 116.77 272.171C118.067 274.957 119.94 277.436 122.266 279.445C121.636 278.055 120.842 276.745 119.899 275.545V275.527ZM106.849 328.612C105.935 327.38 104.885 326.254 103.72 325.256C104.335 326.663 105.127 327.985 106.078 329.191C106.983 330.425 108.034 331.546 109.207 332.53C108.568 331.141 107.777 329.827 106.849 328.612ZM68.4268 286.86C67.5171 285.623 66.4672 284.497 65.2979 283.503C65.9193 284.908 66.7143 286.23 67.6643 287.438C68.5672 288.674 69.6179 289.796 70.7931 290.777C70.1549 289.386 69.361 288.072 68.4268 286.86Z" fill="white"/>
<path d="M66.0118 231.617C46.3886 247.437 -3.86557 310.127 7.4666 324.615C18.7988 339.102 94.1187 332.503 115.986 325.649C122.489 323.616 104.75 282.345 97.7208 280.443C91.8663 278.857 59.4035 288.453 58.7725 286.578C58.0626 284.457 66.7918 272.722 77.8873 247.297C90.6831 217.971 74.6796 224.632 66.0118 231.617Z" fill="#FFCDC2"/>
<path d="M133.168 276.998C148.164 278.751 151.748 281.477 165.184 276.218C174.001 272.774 179.987 276.919 173.536 284.36C163.019 296.534 143.177 298.383 136.122 297.016L133.168 276.998Z" fill="#FFCDC2"/>
<path d="M91.1133 280.969C91.1133 280.969 109.72 276.158 125.881 276.421C137.064 276.605 161.341 279.716 177.818 308.734C181.727 315.614 182.419 328.2 171.946 319.251C164.514 312.915 161.718 306.648 156.722 303.747C156.722 303.747 155.697 319.847 148.651 323.502C142.487 326.689 136.106 329.433 129.553 331.714C128.859 330.611 128.238 329.463 127.695 328.279C127.695 328.279 120.789 331.066 110.167 327.201L91.1133 280.969Z" fill="#FFCDC2"/>
<path d="M136.527 278.307C140.909 282.233 149.954 290.699 154.932 300.217C160.506 310.787 168.394 332.645 160.55 336.685C154.8 339.648 151.049 331.558 151.049 331.558C151.049 331.558 152.408 341.287 146.667 342.82C141.408 344.223 138.876 337.79 138.876 337.79C138.876 337.79 138.683 343.828 133.354 344.205C126.939 344.643 128.394 331.935 121.505 326.755C119.954 325.59 136.527 278.307 136.527 278.307Z" fill="#FFCDC2"/>
<path d="M142.823 304.29C146.329 308.673 151.684 320.592 151.228 331.398C151.228 331.644 151.027 331.766 150.992 331.538C149.348 322.181 146.572 313.057 142.727 304.369C142.717 304.356 142.712 304.34 142.713 304.324C142.715 304.307 142.723 304.292 142.736 304.282C142.749 304.271 142.765 304.266 142.781 304.268C142.798 304.27 142.813 304.278 142.823 304.29Z" fill="#263238"/>
<path d="M132.308 310.181C134.938 314.256 139.924 326.833 139.083 337.744C139.083 337.99 138.864 338.095 138.838 337.867C137.679 328.431 135.454 319.158 132.203 310.224C132.203 310.212 132.206 310.2 132.213 310.19C132.22 310.18 132.23 310.172 132.241 310.167C132.252 310.162 132.265 310.161 132.277 310.163C132.289 310.166 132.3 310.172 132.308 310.181Z" fill="#263238"/>
<path d="M156.751 303.685C161.133 306.314 163.578 309.408 166.839 313.203C168.432 315.103 170.129 316.914 171.922 318.628C173.57 320.161 175.997 322.466 178.469 321.371C179.845 320.757 180.222 319.11 180.336 317.742C180.444 316.205 180.22 314.663 179.678 313.22C179.678 313.15 179.784 313.097 179.81 313.176C180.348 314.449 180.702 315.792 180.862 317.164C181.07 318.454 180.883 319.777 180.327 320.959C178.96 323.378 175.805 322.922 173.824 321.651C172.652 320.84 171.563 319.915 170.572 318.891C169.6 317.935 168.67 316.936 167.768 315.92C165.919 313.816 164.192 311.616 162.369 309.504C160.583 307.49 158.668 305.593 156.637 303.825C156.558 303.755 156.663 303.632 156.751 303.685Z" fill="#263238"/>
<path d="M162.32 322.839C161.803 319.833 158.086 306.914 156.614 303.768C156.605 303.752 156.602 303.732 156.607 303.714C156.612 303.696 156.624 303.681 156.64 303.671C156.657 303.662 156.676 303.66 156.694 303.665C156.712 303.67 156.727 303.681 156.737 303.698C159.515 308.141 163.021 318.93 163.634 322.252C164.248 325.573 164.835 329.684 163.985 332.953C162.705 337.878 159.2 337.966 157.929 337.896C156.427 337.786 155.008 337.168 153.906 336.143C152.65 334.833 151.672 333.283 151.031 331.586C151.031 331.507 151.11 331.437 151.154 331.515C152.363 333.899 154.703 336.555 157.473 336.897C158.086 336.992 158.712 336.963 159.314 336.813C159.916 336.662 160.482 336.393 160.979 336.02C162.019 335.024 162.663 333.686 162.793 332.252C163.175 329.11 163.015 325.926 162.32 322.839Z" fill="#263238"/>
<path d="M139.093 337.746C139.628 338.509 140.513 340.919 142.643 341.936C143.383 342.358 144.215 342.594 145.067 342.623C145.919 342.652 146.765 342.473 147.533 342.102C148.997 341.194 150.05 339.751 150.469 338.079C150.823 335.941 151.014 333.779 151.039 331.611C151.039 331.506 151.17 331.498 151.179 331.611C151.452 333.962 151.369 336.341 150.934 338.667C150.728 339.578 150.342 340.439 149.798 341.199C149.255 341.959 148.565 342.603 147.77 343.093C146.927 343.553 145.973 343.771 145.014 343.723C144.055 343.675 143.128 343.363 142.336 342.821C141.538 342.269 139.224 339.771 138.83 337.808C138.839 337.746 139.067 337.711 139.093 337.746Z" fill="#263238"/>
<path d="M122.184 325.981C122.817 326.683 123.367 327.457 123.823 328.286C124.34 329.162 124.831 329.995 125.295 330.871C126.218 332.642 126.955 334.505 127.495 336.428C128.056 338.356 128.494 340.459 129.817 342.046C130.437 342.83 131.287 343.399 132.249 343.673C133.21 343.947 134.233 343.911 135.172 343.571C136.167 343.175 136.994 342.447 137.512 341.511C138.113 340.501 138.515 339.385 138.696 338.224C138.692 338.214 138.69 338.202 138.692 338.191C138.693 338.18 138.697 338.169 138.704 338.16C138.71 338.151 138.719 338.143 138.729 338.138C138.739 338.133 138.75 338.13 138.761 338.13C138.773 338.13 138.784 338.133 138.794 338.138C138.804 338.143 138.812 338.151 138.819 338.16C138.825 338.169 138.83 338.18 138.831 338.191C138.832 338.202 138.831 338.214 138.827 338.224C138.752 339.277 138.57 340.32 138.284 341.336C137.952 342.249 137.387 343.059 136.645 343.684C135.866 344.279 134.939 344.648 133.965 344.75C132.991 344.852 132.008 344.683 131.123 344.263C129.16 343.386 128.056 341.406 127.372 339.443C126.61 337.26 126.101 335.008 125.234 332.852C124.787 331.713 124.357 330.573 123.814 329.478C123.271 328.382 122.517 327.243 122.061 326.068C122.009 325.998 122.114 325.902 122.184 325.981Z" fill="#263238"/>
<path d="M115.34 328.697C118.111 329.097 120.913 329.235 123.71 329.109C123.798 329.109 123.85 329.363 123.763 329.38C122.376 329.64 120.966 329.749 119.556 329.705C118.126 329.644 116.714 329.37 115.366 328.89C115.252 328.828 115.252 328.679 115.34 328.697Z" fill="#263238"/>
<path d="M29.2822 295.964C33.9673 293.702 38.8088 291.781 43.7695 290.214C48.6783 288.68 53.6933 287.508 58.7739 286.709C61.6748 286.227 64.5846 285.885 67.5381 285.525C67.6258 285.525 67.6433 285.648 67.5381 285.657C62.4331 286.483 57.3796 287.601 52.4023 289.005C47.4475 290.354 42.522 291.795 37.6257 293.326C34.8562 294.202 32.1218 295.184 29.3786 296.139C29.2822 296.209 29.1945 296.025 29.2822 295.964Z" fill="#263238"/>
<path d="M25.0117 269.679L66.5455 274.193C66.5455 274.193 77.1415 254.911 82.6542 237.146C88.1669 219.381 72.514 222.834 54.223 240.056C35.932 257.278 25.0117 269.679 25.0117 269.679Z" fill="#2C3D68"/>
<path d="M25.0117 269.679L66.5455 274.193C66.5455 274.193 77.1415 254.911 82.6542 237.146C88.1669 219.381 72.514 222.834 54.223 240.056C35.932 257.278 25.0117 269.679 25.0117 269.679Z" fill="#2C3D68"/>
<path d="M70.3164 228.036C70.3207 228.079 70.3207 228.123 70.3164 228.167C70.094 229.685 70.0469 231.223 70.1762 232.751C70.7207 231.314 71.0885 229.816 71.2717 228.29C71.2717 228.027 71.3418 227.773 71.3681 227.51L70.3164 228.036ZM48.5635 269.228C48.1831 270.184 47.8898 271.172 47.6871 272.181L48.5635 272.269C48.6599 271.257 48.6599 270.239 48.5635 269.228ZM34.1551 259.876L33.752 260.297C34.2077 260.297 34.6284 260.297 35.1279 260.218C34.7949 260.086 34.4794 259.973 34.1551 259.876ZM71.4295 262.795C71.6749 262.891 71.929 262.987 72.1832 263.066C72.2285 262.952 72.2812 262.841 72.3409 262.733C72.043 262.742 71.7362 262.76 71.4295 262.795ZM58.4058 251.068C57.4914 249.836 56.4419 248.71 55.277 247.711C55.8932 249.12 56.6854 250.445 57.6345 251.655C58.5425 252.885 59.5927 254.003 60.7634 254.986C60.1208 253.599 59.3304 252.285 58.4058 251.068Z" fill="white"/>
<path d="M64.8628 273.811C65.0906 273.811 66.6156 273.811 66.6156 273.811C66.7997 273.276 70.3755 265.046 71.2519 263.293C73.0573 259.691 75.0731 256.186 77.0363 252.671C77.0977 252.557 77.2729 252.671 77.2116 252.75C75.8268 255.818 74.4947 258.885 73.0836 261.97C73.4342 261.558 73.7848 261.146 74.1266 260.726C74.8189 259.849 75.45 258.973 76.1073 258.044C76.1686 257.965 76.2913 258.044 76.2475 258.14C75.6203 259.408 74.8275 260.587 73.8899 261.646C73.4919 262.111 73.0614 262.547 72.6016 262.952C72.4877 263.206 72.3737 263.469 72.251 263.714C71.3746 265.467 67.0538 274.301 66.8961 274.293L64.8978 274.047C64.7488 274.082 64.7488 273.802 64.8628 273.811Z" fill="#263238"/>
<path d="M32.8366 262.623C41.8462 263.228 50.8296 264.464 59.7604 265.866C62.2961 266.269 64.8144 266.728 67.3151 267.242C67.3852 267.242 67.3852 267.365 67.3151 267.356C62.8278 266.962 58.3493 266.383 53.8708 265.831C49.3922 265.279 44.8787 264.683 40.4001 263.973C37.876 263.587 35.3432 263.202 32.8278 262.772C32.7226 262.781 32.7226 262.615 32.8366 262.623Z" fill="#263238"/>
<path d="M80.582 225.501C80.7398 227.324 87.5233 239.998 95.6478 240.778C98.2771 241.023 100.302 226.641 100.302 226.641L100.687 225.615L106.147 211.225L90.2841 197.508L87.9791 195.668C87.9791 195.668 86.7433 199.7 85.2621 204.739C85.192 204.976 85.1131 205.212 85.043 205.458C84.9729 205.703 84.8678 206.01 84.7889 206.273C84.561 207.026 84.3244 207.789 84.114 208.56C83.9475 209.147 83.781 209.717 83.6232 210.313C83.4655 210.909 83.3077 211.54 83.1324 212.154C81.9794 216.54 81.1273 220.999 80.582 225.501Z" fill="#FFCDC2"/>
<path d="M85.2578 204.739C86.1611 209.129 88.0086 213.27 90.6722 216.875C93.3358 220.48 96.7516 223.462 100.683 225.615L106.143 211.225L90.2797 197.508L87.9747 195.668C87.9747 195.668 86.739 199.7 85.2578 204.739Z" fill="#263238"/>
<path d="M110.944 189.114C112.337 195.249 117.859 199.29 123.275 198.071C128.691 196.853 131.943 190.85 130.549 184.68C129.156 178.51 123.634 174.496 118.218 175.723C112.802 176.95 109.55 182.936 110.944 189.114Z" fill="#455A64"/>
<path d="M107.855 190.221C109.415 197.084 115.55 201.545 121.579 200.186C127.609 198.828 131.22 192.158 129.669 185.287C128.117 178.416 121.974 173.964 115.953 175.322C109.932 176.68 106.303 183.341 107.855 190.221Z" fill="#C7C7C7"/>
<path d="M125.572 181.444C132.934 207.43 118.201 214.748 112.592 216.361C107.5 217.798 89.989 222.04 79.9802 196.948C69.9715 171.856 79.7261 160.217 91.1897 156.317C102.653 152.417 118.21 155.449 125.572 181.444Z" fill="#FFCDC2"/>
<path d="M116.527 178.177C115.91 178.238 115.289 178.264 114.669 178.256C114.017 178.38 113.342 178.284 112.75 177.984C112.581 177.854 112.46 177.671 112.406 177.465C112.352 177.259 112.368 177.041 112.452 176.844C112.675 176.483 112.991 176.189 113.368 175.991C113.744 175.794 114.166 175.701 114.59 175.723C115.453 175.627 116.322 175.855 117.027 176.362C117.179 176.49 117.291 176.658 117.35 176.847C117.409 177.037 117.413 177.239 117.36 177.43C117.307 177.621 117.201 177.793 117.053 177.926C116.905 178.058 116.723 178.145 116.527 178.177Z" fill="#263238"/>
<path d="M99.3922 184.216C99.9877 184.032 100.573 183.815 101.145 183.568C101.794 183.424 102.378 183.074 102.81 182.569C102.913 182.382 102.951 182.167 102.919 181.956C102.888 181.746 102.788 181.551 102.635 181.403C102.287 181.158 101.881 181.011 101.457 180.975C101.034 180.94 100.608 181.018 100.225 181.201C99.3935 181.451 98.6846 182.001 98.2353 182.744C98.143 182.919 98.1035 183.117 98.1214 183.314C98.1393 183.512 98.214 183.699 98.3363 183.855C98.4586 184.011 98.6235 184.128 98.8108 184.192C98.9982 184.256 99.2001 184.264 99.3922 184.216Z" fill="#263238"/>
<path d="M104.653 188.802C104.653 188.732 104.539 188.925 104.565 188.995C105.126 190.748 105.442 192.851 104.04 193.894C103.996 193.894 104.04 194.008 104.083 193.991C105.941 193.158 105.451 190.353 104.653 188.802Z" fill="#263238"/>
<path d="M102.534 187.402C99.6239 187.998 101.026 193.765 103.726 193.212C106.425 192.66 104.97 186.902 102.534 187.402Z" fill="#263238"/>
<path d="M101.469 187.976C101.048 188.432 100.689 189.125 100.102 189.335C99.5144 189.545 98.7344 189.098 98.1384 188.625C98.0771 188.581 98.0332 188.625 98.0508 188.721C98.3049 189.826 99.0061 190.86 100.233 190.737C101.46 190.614 101.89 189.458 101.89 188.274C101.898 188.055 101.644 187.801 101.469 187.976Z" fill="#263238"/>
<path d="M114.9 185.64C114.9 185.57 115.067 185.693 115.076 185.763C115.444 187.568 116.162 189.575 117.924 189.786C117.977 189.786 117.994 189.882 117.924 189.891C115.891 190.075 114.962 187.402 114.9 185.64Z" fill="#263238"/>
<path d="M116.045 183.396C118.867 182.52 120.427 188.216 117.798 189.049C115.169 189.882 113.688 184.141 116.045 183.396Z" fill="#263238"/>
<path d="M117.361 183.439C117.896 183.614 118.492 184.044 119.044 183.93C119.596 183.816 119.973 183.054 120.209 182.344C120.209 182.274 120.297 182.344 120.315 182.344C120.648 183.43 120.604 184.666 119.605 185.166C118.606 185.665 117.738 184.877 117.177 183.86C117.072 183.72 117.142 183.343 117.361 183.439Z" fill="#263238"/>
<path d="M108.702 203.218C109.21 203.56 109.754 204.094 110.455 203.98C111.125 203.835 111.758 203.552 112.313 203.148C112.323 203.135 112.338 203.127 112.355 203.125C112.371 203.124 112.388 203.129 112.4 203.139C112.413 203.15 112.421 203.165 112.423 203.181C112.425 203.198 112.42 203.214 112.409 203.227C112.219 203.632 111.924 203.978 111.554 204.23C111.184 204.481 110.752 204.628 110.306 204.655C109.915 204.636 109.538 204.499 109.226 204.263C108.913 204.027 108.679 203.703 108.553 203.332C108.492 203.235 108.623 203.174 108.702 203.218Z" fill="#263238"/>
<path d="M114.583 194.307C114.583 194.307 115.626 196.874 115.95 198.128C115.95 198.25 111.638 200.354 108.851 197.777C108.822 197.757 108.802 197.727 108.795 197.692C108.789 197.658 108.796 197.622 108.816 197.593C108.836 197.564 108.866 197.544 108.901 197.538C108.935 197.531 108.971 197.538 109 197.558C110.88 198.243 112.93 198.301 114.846 197.725C114.846 197.357 112.9 193.386 113.093 193.343C114.089 193.179 115.103 193.149 116.108 193.255C114.074 187.847 111.2 182.808 109.263 177.383C109.246 177.343 109.244 177.298 109.259 177.256C109.273 177.215 109.302 177.181 109.34 177.16C109.379 177.139 109.424 177.133 109.466 177.144C109.508 177.154 109.545 177.18 109.57 177.216C112.961 182.291 115.433 188.47 117.668 194C117.966 194.675 115.17 194.394 114.583 194.307Z" fill="#263238"/>
<path d="M114.838 198.334C114.373 199.497 113.619 200.523 112.647 201.314C112.102 201.723 111.444 201.956 110.763 201.98C109.264 201.98 108.87 200.744 108.817 199.579C108.796 198.962 108.846 198.344 108.966 197.738C110.809 198.56 112.868 198.769 114.838 198.334Z" fill="#263238"/>
<path d="M112.65 201.311C112.105 201.72 111.447 201.953 110.766 201.977C109.267 201.977 108.873 200.741 108.82 199.576C110.354 199.304 112.107 199.9 112.65 201.311Z" fill="#FF99BA"/>
<path d="M81.2325 196.077C86.2631 196.401 86.8416 184.894 86.8416 184.894C86.8416 184.894 107.876 179.995 108.629 162.571C108.629 162.571 112.95 173.387 124.405 177.699C124.405 177.699 122.503 158.768 107.236 155.998C107.236 155.998 88.1474 150.337 78.5506 165.797C68.9537 181.257 77.8582 195.858 81.2325 196.077Z" fill="#263238"/>
<path d="M108.632 161.289C109.047 163.947 108.889 166.664 108.167 169.256C107.486 171.89 106.262 174.353 104.574 176.486C104.16 177.023 103.712 177.532 103.233 178.011L102.532 178.756C102.286 178.984 102.024 179.194 101.761 179.414C101.235 179.834 100.726 180.29 100.183 180.684C99.6397 181.079 99.0437 181.403 98.4302 181.754C98.141 181.92 97.8605 182.104 97.5538 182.262L96.6774 182.683L94.8456 183.515C93.5836 183.953 92.304 184.322 91.0332 184.672C92.2164 184.067 93.4434 183.585 94.609 182.981L96.318 182.017L97.1945 181.534C97.4662 181.359 97.7203 181.158 97.9832 180.965C98.5091 180.579 99.035 180.202 99.5696 179.834C100.104 179.466 100.534 178.958 101.016 178.563L101.743 177.924L102.392 177.205C102.838 176.745 103.256 176.259 103.645 175.75C105.238 173.718 106.474 171.43 107.3 168.984C107.722 167.756 108.045 166.496 108.264 165.215C108.497 163.919 108.62 162.606 108.632 161.289Z" fill="#263238"/>
<path d="M84.9873 195.81C84.9873 195.81 77.6078 188.632 74.2511 191.428C70.8944 194.223 77.5465 205.389 82.2704 206.178C82.869 206.322 83.4906 206.343 84.0976 206.241C84.7047 206.138 85.2848 205.914 85.8031 205.582C86.3213 205.249 86.767 204.816 87.1133 204.307C87.4596 203.798 87.6993 203.224 87.8182 202.62L84.9873 195.81Z" fill="#FFCDC2"/>
<path d="M76.2352 194.573C76.2189 194.573 76.2033 194.579 76.1918 194.591C76.1803 194.602 76.1738 194.618 76.1738 194.634C76.1738 194.651 76.1803 194.666 76.1918 194.678C76.2033 194.689 76.2189 194.696 76.2352 194.696C79.5744 195.353 81.7479 197.912 83.4657 200.664C82.3263 199.7 80.9503 199.314 79.6269 200.664C79.5568 200.743 79.6269 200.848 79.7409 200.813C80.2527 200.537 80.8373 200.426 81.4146 200.495C81.9918 200.564 82.5337 200.81 82.9661 201.199C83.6856 201.851 84.3321 202.58 84.8943 203.372C85.0871 203.626 85.5603 203.372 85.3938 203.083L85.35 203.013C84.6664 199.122 80.5384 194.161 76.2352 194.573Z" fill="#263238"/>
<path d="M79.9344 192.154C79.9344 192.154 75.1491 179.402 76.8056 171.076C78.6461 161.804 90.136 151.225 103.274 155.187C103.274 155.187 87.647 157.527 82.1255 170.086C79.5839 175.87 84.3867 191.182 84.3867 191.182L79.9344 192.154Z" fill="#C7C7C7"/>
<path d="M87.3201 210.324C93.1199 208.518 96.1518 201.692 94.092 195.079C92.0322 188.466 85.6608 184.569 79.8609 186.376C74.0611 188.182 71.0292 195.008 73.0889 201.621C75.1487 208.234 81.5202 212.131 87.3201 210.324Z" fill="#C7C7C7"/>
<path d="M90.9309 195.61C92.7802 201.552 90.0545 207.687 84.796 209.308C79.5374 210.93 73.8582 207.433 72.0002 201.491C70.1421 195.548 72.8766 189.413 78.1351 187.783C83.3937 186.153 89.0817 189.703 90.9309 195.61Z" fill="#455A64"/>
<path d="M100.62 225.699L95.7995 237.864L80.6374 222.57L76.3867 227.513C76.3867 227.513 91.2859 251.86 91.3385 250.756L96.2991 240.239L103.556 247.487L102.899 229.24L100.62 225.699Z" fill="#EBEBEB"/>
<path d="M103.773 238.462C103.554 235.456 103.431 232.406 103.081 229.409C103.081 229.304 102.897 229.26 102.87 229.409C102.283 232.319 103.151 243.844 103.151 246.604C102.853 246.289 96.4287 240.224 96.3674 240.32C95.2894 241.986 91.6522 249.628 91.4068 250.32C89.0492 246.455 79.0755 231.214 76.2972 227.533C76.2807 227.517 76.259 227.506 76.2356 227.503C76.2122 227.5 76.1885 227.505 76.1682 227.517C76.148 227.529 76.1325 227.548 76.1241 227.57C76.1157 227.592 76.1149 227.616 76.122 227.638C78.1991 231.723 91.0825 251.837 91.2666 251.784C93.1832 248.179 94.9149 244.478 96.455 240.697C97.5418 242.021 104.027 248.865 104.045 248.418C104.126 245.097 104.036 241.774 103.773 238.462Z" fill="#263238"/>
<path d="M188.335 144.665C187.809 149.706 185.892 154.502 182.799 158.518C179.706 162.534 175.557 165.611 170.817 167.406C166.077 169.201 160.931 169.644 155.953 168.685C150.976 167.726 146.363 165.402 142.629 161.974L128.939 163.981L135.793 152.149C134.242 148.301 133.587 144.15 133.877 140.01C134.167 135.871 135.395 131.852 137.468 128.258C139.541 124.663 142.405 121.588 145.842 119.264C149.28 116.94 153.201 115.428 157.309 114.843C161.417 114.259 165.604 114.616 169.553 115.889C173.502 117.162 177.11 119.316 180.104 122.189C183.098 125.063 185.398 128.579 186.832 132.473C188.265 136.367 188.794 140.536 188.379 144.665H188.335Z" fill="white"/>
<path d="M188.337 144.661C187.807 149.706 185.897 154.506 182.816 158.535C181.302 160.547 179.494 162.32 177.452 163.794C175.435 165.322 173.214 166.558 170.852 167.466C168.489 168.39 166.008 168.98 163.482 169.219C162.22 169.334 160.952 169.357 159.687 169.289C158.416 169.259 157.15 169.127 155.901 168.894C150.852 167.986 146.157 165.688 142.342 162.26L142.666 162.356L128.994 164.46L128.004 164.609L128.503 163.732L135.331 151.874V152.347C133.726 148.425 133.043 144.187 133.336 139.959C133.63 135.732 134.891 131.628 137.022 127.965C139.151 124.316 142.078 121.197 145.585 118.842C149.089 116.521 153.073 115.024 157.238 114.463C161.403 113.901 165.641 114.29 169.634 115.599C173.579 116.947 177.172 119.16 180.151 122.076C183.134 124.977 185.421 128.516 186.839 132.428C188.256 136.34 188.769 140.523 188.337 144.661ZM188.337 144.661C188.774 140.541 188.26 136.376 186.833 132.486C185.406 128.596 183.105 125.086 180.108 122.225C177.11 119.365 173.496 117.231 169.544 115.988C165.592 114.745 161.407 114.426 157.312 115.056C153.254 115.665 149.39 117.194 146.014 119.525C142.671 121.871 139.878 124.915 137.829 128.447C135.812 131.992 134.625 135.949 134.358 140.019C134.091 144.088 134.75 148.166 136.286 151.944L136.383 152.19L136.251 152.409L129.362 164.223L128.872 163.496L142.57 161.576H142.763L142.894 161.708C146.565 165.134 151.117 167.471 156.041 168.456C157.263 168.701 158.503 168.851 159.748 168.903C160.994 168.991 162.244 168.991 163.49 168.903C165.989 168.708 168.449 168.168 170.8 167.299C173.164 166.448 175.388 165.248 177.399 163.741C179.455 162.277 181.27 160.503 182.78 158.482C185.871 154.475 187.794 149.692 188.337 144.661Z" fill="#263238"/>
<path d="M173.075 145.96C174.904 145.96 176.387 144.477 176.387 142.647C176.387 140.817 174.904 139.334 173.075 139.334C171.245 139.334 169.762 140.817 169.762 142.647C169.762 144.477 171.245 145.96 173.075 145.96Z" fill="#263238"/>
<path d="M161.196 145.96C163.025 145.96 164.509 144.477 164.509 142.647C164.509 140.817 163.025 139.334 161.196 139.334C159.366 139.334 157.883 140.817 157.883 142.647C157.883 144.477 159.366 145.96 161.196 145.96Z" fill="#263238"/>
<path d="M149.327 145.96C151.156 145.96 152.639 144.477 152.639 142.647C152.639 140.817 151.156 139.334 149.327 139.334C147.497 139.334 146.014 140.817 146.014 142.647C146.014 144.477 147.497 145.96 149.327 145.96Z" fill="#263238"/>
<path d="M460.485 144.659C459.959 149.7 458.042 154.496 454.949 158.512C451.856 162.528 447.708 165.605 442.967 167.4C438.227 169.195 433.081 169.638 428.104 168.679C423.126 167.72 418.513 165.396 414.78 161.968L401.09 163.975L407.935 152.143C406.377 148.293 405.716 144.138 406.003 139.994C406.289 135.851 407.515 131.826 409.588 128.227C411.661 124.627 414.526 121.547 417.966 119.219C421.407 116.892 425.332 115.378 429.444 114.793C433.556 114.207 437.748 114.566 441.701 115.841C445.654 117.117 449.265 119.275 452.259 122.153C455.254 125.032 457.554 128.554 458.986 132.453C460.417 136.352 460.942 140.526 460.52 144.659H460.485Z" fill="white"/>
<path d="M460.484 144.66C459.95 149.704 458.04 154.503 454.962 158.534C454.192 159.532 453.364 160.483 452.482 161.382C451.569 162.256 450.603 163.073 449.59 163.828C447.576 165.359 445.353 166.596 442.99 167.5C440.63 168.425 438.152 169.015 435.628 169.253C434.364 169.368 433.092 169.392 431.824 169.323C430.554 169.292 429.288 169.16 428.038 168.928C422.995 168.002 418.309 165.69 414.506 162.25L414.831 162.346L401.158 164.45L400.168 164.599L400.668 163.722L407.477 151.864V152.338C405.873 148.416 405.19 144.178 405.482 139.951C405.773 135.724 407.032 131.62 409.16 127.956C411.292 124.306 414.222 121.187 417.732 118.832C421.235 116.512 425.219 115.014 429.384 114.453C433.549 113.891 437.787 114.28 441.781 115.589C445.726 116.936 449.319 119.149 452.298 122.066C455.284 124.967 457.572 128.507 458.99 132.421C460.408 136.335 460.919 140.52 460.484 144.66ZM460.484 144.66C460.921 140.54 460.406 136.375 458.979 132.485C457.553 128.595 455.252 125.085 452.255 122.224C449.257 119.364 445.643 117.23 441.691 115.987C437.738 114.744 433.553 114.425 429.458 115.055C425.401 115.664 421.537 117.193 418.161 119.524C414.818 121.87 412.025 124.914 409.975 128.446C407.944 131.99 406.746 135.949 406.469 140.024C406.212 144.09 406.868 148.163 408.389 151.943L408.494 152.189L408.363 152.408L401.474 164.222L400.983 163.495L414.682 161.575H414.874L415.006 161.707C418.664 165.126 423.2 167.462 428.108 168.455C429.331 168.7 430.57 168.85 431.816 168.902C433.062 168.99 434.312 168.99 435.558 168.902C438.057 168.707 440.517 168.167 442.867 167.298C445.231 166.445 447.455 165.246 449.467 163.74C451.517 162.273 453.329 160.5 454.839 158.481C457.964 154.486 459.918 149.701 460.484 144.66Z" fill="#263238"/>
<path d="M445.168 145.96C446.998 145.96 448.481 144.477 448.481 142.647C448.481 140.817 446.998 139.334 445.168 139.334C443.339 139.334 441.855 140.817 441.855 142.647C441.855 144.477 443.339 145.96 445.168 145.96Z" fill="#263238"/>
<path d="M433.305 145.96C435.135 145.96 436.618 144.477 436.618 142.647C436.618 140.817 435.135 139.334 433.305 139.334C431.475 139.334 429.992 140.817 429.992 142.647C429.992 144.477 431.475 145.96 433.305 145.96Z" fill="#263238"/>
<path d="M424.751 142.64C424.752 143.296 424.56 143.937 424.197 144.483C423.834 145.029 423.317 145.455 422.712 145.707C422.107 145.959 421.44 146.026 420.797 145.899C420.154 145.772 419.563 145.457 419.098 144.994C418.634 144.532 418.318 143.941 418.189 143.298C418.061 142.655 418.126 141.989 418.376 141.383C418.627 140.777 419.051 140.259 419.596 139.895C420.141 139.53 420.782 139.336 421.438 139.336C422.315 139.336 423.156 139.684 423.777 140.303C424.398 140.923 424.748 141.763 424.751 142.64Z" fill="#263238"/>
<path d="M143.049 338.629H137.186V342.459H143.049V338.629Z" fill="#455A64"/>
<path d="M150.65 338.373H144.787V342.203H150.65V338.373Z" fill="#455A64"/>
<path d="M158.262 338.123H152.398V341.953H158.262V338.123Z" fill="#455A64"/>
<path d="M165.855 337.863H159.992V341.693H165.855V337.863Z" fill="#455A64"/>
<path d="M173.461 337.611H167.598V341.441H173.461V337.611Z" fill="#455A64"/>
<path d="M181.074 337.371H175.211V341.201H181.074V337.371Z" fill="#455A64"/>
<path d="M188.676 337.115H182.812V340.945H188.676V337.115Z" fill="#455A64"/>
<path d="M196.279 336.855H190.416V340.685H196.279V336.855Z" fill="#455A64"/>
<path d="M203.875 336.604H198.012V340.434H203.875V336.604Z" fill="#455A64"/>
<path d="M205.309 344.656H135.738V339.994L205.309 338.057V344.656Z" fill="#37474F"/>
<path d="M273.22 326.287H158.373L176.638 240.783H291.484L273.22 326.287Z" fill="#455A64"/>
<path d="M277.467 326.287H162.611L180.876 240.783H295.731L277.467 326.287Z" fill="#37474F"/>
<path d="M239.101 278.584C238.749 280.53 237.74 282.297 236.242 283.589C234.745 284.881 232.849 285.62 230.872 285.683C229.98 285.71 229.093 285.536 228.278 285.171C227.463 284.807 226.741 284.263 226.167 283.58C225.593 282.897 225.18 282.092 224.962 281.227C224.743 280.361 224.723 279.458 224.903 278.584C225.252 276.636 226.258 274.868 227.755 273.574C229.251 272.28 231.147 271.539 233.124 271.476C234.018 271.446 234.907 271.62 235.724 271.985C236.54 272.349 237.264 272.893 237.839 273.578C238.415 274.262 238.828 275.068 239.046 275.936C239.265 276.803 239.284 277.708 239.101 278.584Z" fill="#263238"/>
<path d="M244.991 348.616H188.506V344.225L244.991 342.402V348.616Z" fill="#455A64"/>
<path d="M260.348 348.611H230.015L211.75 300.697H242.083L260.348 348.611Z" fill="#455A64"/>
<path d="M265.331 348.611H235.007L216.742 300.697H247.066L265.331 348.611Z" fill="#263238"/>
<path d="M133.578 349.785H75.366C70.3967 349.785 77.5834 335.631 95.7254 330.206C113.867 324.781 139.319 344.474 133.578 349.785Z" fill="#37474F"/>
<path d="M110.791 349.785C110.83 348.173 111.096 346.574 111.58 345.035C112.047 343.48 112.704 341.987 113.534 340.592C114.367 339.187 115.41 337.919 116.628 336.832C117.835 335.752 119.224 334.895 120.73 334.299C120.107 334.807 119.398 335.175 118.828 335.727L117.951 336.49L117.128 337.366C116.051 338.494 115.107 339.74 114.314 341.082C113.508 342.424 112.816 343.831 112.246 345.289C111.661 346.754 111.175 348.256 110.791 349.785Z" fill="#263238"/>
<path d="M117.643 336.312C121.107 337.409 124.384 339.025 127.362 341.107C128.869 342.148 130.234 343.383 131.42 344.779C132.664 346.168 133.421 347.925 133.576 349.783C133.093 348.069 132.168 346.513 130.894 345.27C129.652 344.005 128.294 342.86 126.836 341.852C125.39 340.809 123.874 339.871 122.331 338.951C120.789 338.03 119.238 337.163 117.643 336.312Z" fill="#263238"/>
<path d="M411.98 338.629H406.117V342.459H411.98V338.629Z" fill="#455A64"/>
<path d="M419.59 338.373H413.727V342.203H419.59V338.373Z" fill="#455A64"/>
<path d="M427.199 338.123H421.336V341.953H427.199V338.123Z" fill="#455A64"/>
<path d="M434.795 337.863H428.932V341.693H434.795V337.863Z" fill="#455A64"/>
<path d="M442.402 337.611H436.539V341.441H442.402V337.611Z" fill="#455A64"/>
<path d="M450.01 337.371H444.146V341.201H450.01V337.371Z" fill="#455A64"/>
<path d="M457.607 337.115H451.744V340.945H457.607V337.115Z" fill="#455A64"/>
<path d="M465.219 336.855H459.355V340.685H465.219V336.855Z" fill="#455A64"/>
<path d="M472.828 336.604H466.965V340.434H472.828V336.604Z" fill="#455A64"/>
<path d="M474.26 344.656H404.689V339.994L474.26 338.057V344.656Z" fill="#37474F"/>
<path d="M542.159 326.287H427.312L445.577 240.783H560.424L542.159 326.287Z" fill="#455A64"/>
<path d="M546.409 326.287H431.562L449.827 240.783H564.674L546.409 326.287Z" fill="#37474F"/>
<path d="M508.043 278.584C507.691 280.529 506.683 282.294 505.187 283.586C503.691 284.878 501.798 285.618 499.822 285.683C498.929 285.712 498.041 285.538 497.225 285.174C496.409 284.811 495.686 284.267 495.111 283.583C494.536 282.9 494.123 282.095 493.903 281.229C493.684 280.363 493.664 279.459 493.845 278.584C494.195 276.637 495.202 274.869 496.698 273.576C498.194 272.282 500.089 271.541 502.066 271.476C502.959 271.446 503.848 271.62 504.665 271.985C505.482 272.349 506.205 272.893 506.781 273.578C507.356 274.262 507.769 275.068 507.988 275.936C508.206 276.803 508.225 277.708 508.043 278.584Z" fill="#263238"/>
<path d="M513.923 348.616H457.438V344.225L513.923 342.402V348.616Z" fill="#455A64"/>
<path d="M529.285 348.611H498.952L480.688 300.697H511.021L529.285 348.611Z" fill="#455A64"/>
<path d="M534.279 348.611H503.946L485.682 300.697H516.015L534.279 348.611Z" fill="#263238"/>
<path d="M402.546 349.785H344.307C339.338 349.785 346.525 335.631 364.667 330.206C382.809 324.781 408.26 344.474 402.546 349.785Z" fill="#37474F"/>
<path d="M379.688 349.785C379.731 348.173 379.996 346.575 380.476 345.035C380.947 343.481 381.604 341.989 382.431 340.592C383.269 339.191 384.312 337.924 385.524 336.832C386.732 335.752 388.12 334.895 389.626 334.299C389.004 334.807 388.294 335.175 387.724 335.727L386.848 336.49L386.024 337.366C384.942 338.491 383.995 339.738 383.202 341.082C382.396 342.424 381.704 343.831 381.134 345.289C380.552 346.754 380.069 348.256 379.688 349.785Z" fill="#263238"/>
<path d="M386.582 336.312C390.046 337.409 393.323 339.025 396.302 341.107C397.81 342.15 399.177 343.385 400.368 344.779C401.609 346.158 402.371 347.901 402.542 349.748C402.056 348.034 401.128 346.477 399.851 345.234C398.609 343.97 397.251 342.825 395.793 341.816C394.356 340.774 392.831 339.836 391.288 338.915C389.746 337.995 388.186 337.163 386.582 336.312Z" fill="#263238"/>
</g>
<defs>
<clipPath id="clip0_3311_10602">
<rect width="631" height="350" fill="white"/>
</clipPath>
</defs>
</svg>
