<svg width="146" height="60" viewBox="0 0 146 60" fill="none" xmlns="http://www.w3.org/2000/svg">
<path d="M94.851 66.0406C79.1605 68.83 63.1029 65.6553 47.2472 64.0036C31.3916 62.352 14.3247 62.5354 0.854712 71.0689C-1.7512 65.9672 1.91905 58.8468 7.57131 57.9843C4.23134 54.5342 5.05719 48.0378 9.14957 45.5236C8.8743 40.9174 8.67245 35.9992 11.0031 32.017C13.3337 28.0347 19.2246 25.7957 22.693 28.8421C22.7847 24.089 23.0049 18.9507 25.9779 15.2437C28.9508 11.5367 35.7593 10.7476 38.0165 14.9317C37.1907 9.05924 40.8793 2.87474 46.4214 0.782671C51.9636 -1.3094 58.8087 0.929519 62.0753 5.86607C66.1126 2.34258 72.3888 1.68194 77.0684 4.2695C81.7481 6.85706 84.5008 12.5459 83.6567 17.8312C86.3176 15.3721 90.6852 15.0418 93.6949 17.0788C96.6862 19.0975 98.0259 23.2816 96.7413 26.6766C100.155 24.2542 104.853 23.7955 108.688 25.4838C112.505 27.1905 115.313 30.9893 115.809 35.1367C121.094 33.2098 127.664 36.8984 128.765 42.4222C136.546 42.2204 144.07 48.0928 145.758 55.6903C128.544 52.8275 112.065 62.9759 94.8694 66.0406H94.851Z" fill="#6FB2BA"/>
<path d="M14.6066 49.4844C14.2029 49.5211 13.8175 49.6496 13.4872 49.8698C12.3494 50.6589 11.9824 52.2188 12.2026 53.5952C12.4412 54.9532 13.1569 56.1827 13.8726 57.3572C12.5513 56.0176 9.96368 57.5408 10.0004 59.431C10.0371 61.3028 11.8906 62.7342 13.7441 62.9912C14.0561 63.0279 14.3681 63.0462 14.6617 63.0462C14.6066 58.5317 14.5699 54.0172 14.5699 49.5027L14.6066 49.4844Z" fill="#219982"/>
<path d="M22.9936 36.4375C21.9659 37.7955 21.1767 39.3554 20.7363 41.007C20.5344 40.3096 20.3326 39.594 20.1307 38.8967C16.387 41.3741 14.9372 46.7694 16.9192 50.7884C16.7357 50.1828 16.2218 49.7791 15.6162 49.5956C15.6162 54.055 15.6346 58.5144 15.708 62.9738C16.9008 62.827 18.0937 62.4417 19.2682 62.093C20.1307 61.8361 20.9932 61.5791 21.8741 61.3405C22.0025 53.0273 22.3696 44.7324 23.0119 36.4559L22.9936 36.4375Z" fill="#219982"/>
<path d="M30.9951 31.2793C28.3892 31.8482 25.9668 33.2245 24.1133 35.1514C23.416 43.7583 23.0306 52.402 22.8838 61.0639C25.4897 60.3665 28.1323 59.7976 30.7933 59.4122C30.5547 50.0346 30.6464 40.6569 30.9951 31.2977V31.2793Z" fill="#219982"/>
<path d="M46.7593 42.547C46.9795 40.3815 47.1997 38.2343 47.4199 36.0688C47.218 36.2707 47.0528 36.491 46.906 36.7296C46.8326 34.6375 45.1627 32.7105 43.1073 32.3252C42.1714 32.16 41.1988 32.3252 40.3362 32.729C39.3269 41.3909 38.6662 50.0894 38.2441 58.788C39.3452 58.788 40.4279 58.7881 41.529 58.8798C42.7953 58.9716 44.0799 59.1367 45.3462 59.3019C45.7499 53.7047 46.2271 48.1074 46.7776 42.5286L46.7593 42.547Z" fill="#219982"/>
<path d="M63.9167 42.2537C62.834 39.7946 59.6224 38.7302 57.1266 39.5927C56.6495 46.658 56.5761 53.76 56.4844 60.7519C57.4203 60.7886 58.3379 60.807 59.2738 60.7703C60.4667 60.7152 61.6595 60.5867 62.834 60.4032C62.9625 54.3289 63.2377 48.2546 63.8983 42.2353L63.9167 42.2537Z" fill="#219982"/>
<path d="M72.7622 36.5664C71.8263 37.539 71.1106 38.7502 70.8354 40.0899C69.3122 38.6401 66.743 38.9521 65.2014 40.3101C64.3756 46.8983 64.0269 53.5783 63.8984 60.2583C66.7613 59.7444 69.5874 58.9736 72.4319 58.2763C72.3402 51.0458 72.3035 43.7969 72.7622 36.5848V36.5664Z" fill="#219982"/>
<path d="M80.2856 34.6007C79.2762 34.2703 78.2119 34.1419 77.1475 34.2887C75.9547 34.4355 74.8353 34.931 73.8443 35.6283C73.7892 36.5092 73.7341 37.3717 73.6791 38.2526C73.3487 44.8408 73.3855 51.4474 73.4589 58.0356C74.1562 57.8704 74.8536 57.7052 75.5693 57.5584C76.7805 57.3198 77.9917 57.1179 79.2029 56.9528C79.2763 49.4837 79.5332 42.0147 80.2673 34.6007H80.2856Z" fill="#219982"/>
<path d="M100.675 42.9155C100.491 42.6585 100.271 42.42 100.033 42.2181C98.6378 41.0986 96.4357 41.1721 95.1144 42.3649C94.9676 40.9886 94.3252 39.7039 93.3709 38.7129C93.114 44.7138 92.8387 50.7331 92.5635 56.7341C95.2979 57.0093 98.014 57.4865 100.675 58.1472V42.9338V42.9155Z" fill="#219982"/>
<path d="M108.145 52.3841C107.741 52.3841 107.319 52.3841 106.915 52.4942C108.126 50.916 107.888 48.4202 106.438 47.0622C105.19 45.9061 103.19 45.7408 101.722 46.5483V58.3851C103.667 58.8989 105.575 59.5229 107.447 60.2386C107.649 57.6143 107.888 54.99 108.163 52.3657L108.145 52.3841Z" fill="#219982"/>
<path d="M112.843 55.4132C112.182 53.9268 110.751 52.8624 109.173 52.5137C108.897 55.2113 108.64 57.9274 108.438 60.6434C109.319 60.9921 110.182 61.3591 111.044 61.7628C113.026 60.4231 113.834 57.5971 112.861 55.4132H112.843Z" fill="#219982"/>
<path d="M92.3619 37.8492C91.9766 37.5922 91.5729 37.3537 91.1508 37.1885C89.022 36.3627 86.4712 36.8031 84.7461 38.2896C84.0121 36.8398 82.7458 35.6837 81.2777 34.9863C80.5803 42.2352 80.3234 49.5207 80.25 56.8063C83.9937 56.3659 87.774 56.3107 91.5361 56.6227C91.8297 50.3648 92.105 44.107 92.3619 37.8492Z" fill="#219982"/>
<path d="M56.0817 40.1245C55.7514 40.3447 55.4578 40.5832 55.2009 40.8952C56.0267 38.7664 54.9991 36.0871 52.9437 35.0595C51.5857 34.3805 49.8973 34.509 48.5577 35.2247C48.3925 36.8029 48.209 38.3811 48.0621 39.941C47.4015 46.4191 46.8326 52.9339 46.3555 59.4487C49.4018 59.9075 52.4299 60.458 55.4579 60.6782C55.5313 53.8698 55.623 46.9696 56.0635 40.1061L56.0817 40.1245Z" fill="#219982"/>
<path d="M39.2345 33.464C38.7023 33.9228 38.2802 34.455 38.0049 35.0973C38.2619 33.7209 37.381 32.3262 36.1514 31.6472C34.9402 30.9682 33.4721 30.9131 32.0774 31.0783C32.059 31.0783 32.0407 31.0783 32.0223 31.0783C31.6553 40.4559 31.5819 49.8519 31.8205 59.2296C33.6189 58.991 35.4174 58.8441 37.2342 58.8074C37.6379 50.329 38.2802 41.869 39.2345 33.4456V33.464Z" fill="#219982"/>
</svg>
