<svg width="71" height="41" viewBox="0 0 71 41" fill="none" xmlns="http://www.w3.org/2000/svg">
<path d="M5.18164 37.5556C21.0538 35.6915 36.9534 33.8548 52.8256 31.9907C49.9473 28.427 48.138 24.0135 47.672 19.4629C33.1704 24.6714 18.9704 30.7023 5.18164 37.5281V37.5556Z" fill="#DAD2BF"/>
<path d="M0 40.8729C23.6575 33.7455 47.3425 26.6181 71 19.4907C59.3768 17.8185 47.7263 16.1463 36.1032 14.4741C36.0209 9.64941 35.9112 4.82471 35.8289 0C23.8768 13.6243 11.9521 27.2486 0 40.9003V40.8729Z" fill="white"/>
<path d="M36.1062 14.4767V13.6543C24.4556 20.535 13.7096 29.0879 3.10071 37.3666C2.16866 38.4357 1.23673 39.5049 0.304688 40.574C14.395 31.4728 28.5126 22.9748 43.0142 15.4636C40.7115 15.1346 38.4363 14.8057 36.1336 14.4767H36.1062Z" fill="#DAD2BF"/>
</svg>
