<svg width="38" height="53" viewBox="0 0 38 53" fill="none" xmlns="http://www.w3.org/2000/svg">
<path d="M5.69373 45.6562V46.8718H2.11117C1.47143 46.8718 1.19419 47.213 1.19419 47.7035C1.19419 48.1299 1.40745 48.5351 2.23912 48.5351H3.88114C5.77905 48.5351 6.22686 49.6014 6.22686 50.6036C6.22686 51.7765 5.58712 52.6508 4.00908 52.6508H0.106631V51.4353H4.05171C4.71278 51.4353 5.01136 51.0728 5.01136 50.561C5.01136 50.1132 4.77676 49.6866 3.92377 49.6866H2.30309C0.447826 49.6866 0 48.6417 0 47.6608C0 46.5092 0.61843 45.6562 2.17514 45.6562H5.71508H5.69373Z" fill="#161616"/>
<path d="M8.27414 52.648H6.93066L9.38301 46.4425C9.63891 45.7814 10.1081 45.5469 10.8544 45.5469C11.6008 45.5469 12.0486 45.8028 12.3045 46.4425L14.6716 52.648H13.3068L11.1743 47.0183C11.1103 46.8477 11.0037 46.7837 10.8331 46.7837C10.6625 46.7837 10.5559 46.8477 10.4706 47.0183L8.2528 52.648H8.27414Z" fill="#161616"/>
<path d="M16.5905 52.648H15.2471L17.6994 46.4425C17.9553 45.7814 18.4245 45.5469 19.1709 45.5469C19.9172 45.5469 20.365 45.8028 20.6209 46.4425L22.988 52.648H21.6232L19.4907 47.0183C19.4268 46.8477 19.3201 46.7837 19.1495 46.7837C18.9789 46.7837 18.8723 46.8477 18.787 47.0183L16.5692 52.648H16.5905Z" fill="#161616"/>
<path d="M27.7861 45.6522C29.3641 45.6522 30.0252 46.6331 30.0252 47.742C30.0252 48.6164 29.62 49.5333 28.5538 49.8532L30.1744 52.6467H28.8096L27.2103 49.9385H25.3977C25.2911 49.9385 25.2271 49.9811 25.2271 50.1091V52.6254H24.0115V49.8532C24.0115 49.0642 24.3528 48.7443 25.0991 48.7443H27.8287C28.5324 48.7443 28.8096 48.2751 28.8096 47.7633C28.8096 47.2515 28.5111 46.8464 27.8287 46.8464H23.9902V45.6309H27.7861V45.6522Z" fill="#161616"/>
<path d="M32.6268 45.6562V48.6204H33.3092C34.5034 48.6204 34.7166 48.5138 35.1005 47.7461L36.1667 45.6562H37.4889L36.4013 47.8314C36.0814 48.4498 35.7616 48.855 35.1858 49.1109C35.8469 49.2815 36.1667 49.644 36.5719 50.4543L37.7021 52.6508H36.3373L35.2711 50.5823C34.8873 49.8359 34.6313 49.7293 33.3305 49.7293H32.6481V52.6508H31.4326V45.6562H32.6481H32.6268Z" fill="#161616"/>
<path d="M18.6799 0.0213294V21.0476L8.5293 2.94283C9.93674 1.15154 12.1332 0 14.5856 0H18.6799V0.0213294Z" fill="#EF5F3E"/>
<path d="M18.6803 21.0483H6.8877V7.72029C6.8877 5.92901 7.50613 4.26566 8.52972 2.96484L18.6803 21.0696V21.0483Z" fill="#F6B0A9"/>
<path d="M30.4938 21.0448V34.3728C30.4938 36.1641 29.8754 37.8274 28.8518 39.1282L18.7012 21.0234H30.4938V21.0448Z" fill="#A1C5E8"/>
<path d="M30.4937 0.0195312L18.6797 21.0458V0.0195312H30.4937Z" fill="#F68B21"/>
<path d="M6.8877 42.0732L18.6803 21.0469V42.0732H6.8877Z" fill="#2D3E69"/>
<path d="M28.8303 39.1538C27.4229 40.9451 25.2264 42.0966 22.7741 42.0966H18.6797V21.0703L28.8303 39.1751V39.1538Z" fill="#3AA277"/>
</svg>
