<svg width="1068" height="409" viewBox="0 0 1068 409" fill="none" xmlns="http://www.w3.org/2000/svg">
<g opacity="0.15">
<path d="M40.0591 79.2597C42.3714 67.4597 54.6486 58.5409 66.577 59.9906C78.5055 61.4404 88.2868 73.0386 87.7179 85.0405C92.1774 80.9481 99.94 82.875 103.665 87.6464C107.391 92.4177 107.941 98.9325 107.519 104.97C112.97 101.667 120.42 102.071 125.485 105.943C130.55 109.815 132.899 116.899 131.156 123.028C135.542 121.23 140.277 119.376 144.901 120.477C149.507 121.578 153.288 127.065 150.865 131.139C166.85 132.424 182.742 134.957 198.341 138.737C134.955 136.425 73.9177 115.412 14 94.6016C19.2669 93.4821 24.5521 92.3627 29.819 91.2432L40.0591 79.2414V79.2597Z" fill="white"/>
<path d="M1067.98 12.0184H1011.81C1007.04 22.9559 1003.84 34.7008 997.219 44.629C994.007 37.6554 986.281 33.0492 978.629 33.5263C970.976 34.0035 963.874 39.5272 961.562 46.8495C962.883 42.2066 957.873 37.582 953.047 37.8206C948.22 38.0591 944.183 41.6744 941.54 45.7117C938.898 49.749 937.191 54.3736 934.493 58.3559C929.41 65.8433 920.73 70.7432 911.701 71.202C907.205 71.4405 902.341 70.7064 898.469 73.0004C894.762 75.2026 893.037 79.5152 890.78 83.1671C885.164 92.2511 875.365 98.0135 865.235 101.409C855.105 104.804 844.443 106.162 834.037 108.566C817.558 112.364 801.812 118.769 786.415 125.779C881.109 121.191 975.417 108.621 1068 88.2688V12L1067.98 12.0184Z" fill="#DAD2BF"/>
<path d="M912.122 114.385C886.871 128.258 857.728 134.957 828.972 133.489C904.213 137.324 980.17 126.35 1051.25 101.373C1035.3 105.154 1018.58 105.723 1002.39 103.043C1002.63 95.7762 999.457 88.4723 993.988 83.6642C994.667 76.4154 988.483 69.7354 981.381 68.2122C974.279 66.689 966.791 69.4785 961.047 73.9562C955.322 78.434 951.009 84.4533 946.807 90.3808C944.329 85.4442 937.044 83.7743 932.658 87.1326C927.776 90.8763 927.703 98.1068 924.767 103.52C922.069 108.475 917.059 111.687 912.104 114.403L912.122 114.385Z" fill="white"/>
<path d="M880.999 111.172C849.93 118.513 817.852 121.651 785.957 120.422C793.555 120.605 800.84 117.65 807.869 114.733C811.612 113.173 814.787 116.292 818.531 114.733C819.357 110.383 825.358 103.575 829.652 104.639C833.946 105.704 837.305 108.952 840.443 112.072C842.443 110.493 845.031 109.686 847.563 109.833C849.27 106.034 853.27 103.391 857.436 103.318C861.602 103.245 865.694 105.777 867.511 109.502C871.879 107.631 877.219 108.273 880.999 111.154V111.172Z" fill="white"/>
</g>
<path d="M1033.63 111.617H918.157V256.827H1033.63V111.617Z" fill="#D85B26"/>
<path d="M993.471 27.9725C991.913 28.4177 990.262 27.3975 989.316 26.0805C988.37 24.7634 987.906 23.1681 987.145 21.7212C986.403 20.2743 985.216 18.883 983.621 18.6233C981.673 18.308 979.929 19.6807 978.186 20.5897C976.442 21.4801 973.771 21.6099 973.01 19.792C972.769 19.2355 972.788 18.5863 972.825 17.9927C973.047 12.0566 973.27 6.12059 973.493 0.166016C974.16 2.03957 976.776 2.15087 978.724 1.72421C980.671 1.29756 983.064 0.852372 984.363 2.37348C985.773 4.02443 984.882 7.14083 986.756 8.27238C988.351 9.21844 990.707 7.82717 992.117 9.01437C992.914 9.68218 992.989 10.8323 993.026 11.8711C993.174 17.2506 993.323 22.6302 993.471 28.0097V27.9725Z" fill="url(#paint0_linear_2674_16704)"/>
<path d="M973.92 0H972.732V45.1694H973.92V0Z" fill="#8D182C"/>
<path d="M1006.77 67.5977H941.604V103.047H1006.77V67.5977Z" fill="#D85B26"/>
<path d="M1006.77 67.5977H941.604V77.0396H1006.77V67.5977Z" fill="#8D182C"/>
<path d="M1012.48 70.4531H935.873L967.315 35.0039H981.042L1012.48 70.4531Z" fill="white"/>
<path d="M974.327 70.4531H1012.48L981.042 35.0039H974.327V70.4531Z" fill="#D85B26"/>
<path d="M1000.06 70.4531H948.32L969.56 35.0039H978.817L1000.06 70.4531Z" fill="#EBA987"/>
<path d="M1017.62 84.7559H930.734V177.376H1017.62V84.7559Z" fill="#F28953"/>
<path d="M1010.55 120.482H935.945V158.863H1010.55V120.482Z" fill="#D85B26"/>
<path d="M1017.62 87.3164H930.734V94.18H1017.62V87.3164Z" fill="#8D182C"/>
<path d="M1020.63 84.7559H927.729V90.7662H1020.63V84.7559Z" fill="#EBA987"/>
<path d="M1017.62 187.654H930.733V280.275H1017.62V187.654Z" fill="#F28953"/>
<path d="M1017.62 187.654H930.733V195.093H1017.62V187.654Z" fill="#8D182C"/>
<path d="M947.876 200.381H936.598V210.676H947.876V200.381Z" fill="white"/>
<path d="M961.344 200.381H950.065V210.676H961.344V200.381Z" fill="white"/>
<path d="M974.792 200.381H963.514V210.676H974.792V200.381Z" fill="white"/>
<path d="M947.876 212.66H936.598V222.955H947.876V212.66Z" fill="white"/>
<path d="M961.344 212.66H950.065V222.955H961.344V212.66Z" fill="white"/>
<path d="M974.792 212.66H963.514V222.955H974.792V212.66Z" fill="white"/>
<path d="M947.876 224.959H936.598V235.254H947.876V224.959Z" fill="white"/>
<path d="M961.344 224.959H950.065V235.254H961.344V224.959Z" fill="white"/>
<path d="M974.792 224.959H963.514V235.254H974.792V224.959Z" fill="white"/>
<path d="M988.574 200.381H977.296V210.676H988.574V200.381Z" fill="white"/>
<path d="M1002.04 200.381H990.764V210.676H1002.04V200.381Z" fill="white"/>
<path d="M1015.49 200.381H1004.21V210.676H1015.49V200.381Z" fill="white"/>
<path d="M988.574 212.66H977.296V222.955H988.574V212.66Z" fill="white"/>
<path d="M1002.04 212.66H990.764V222.955H1002.04V212.66Z" fill="white"/>
<path d="M1015.49 212.66H1004.21V222.955H1015.49V212.66Z" fill="white"/>
<path d="M988.574 224.959H977.296V235.254H988.574V224.959Z" fill="white"/>
<path d="M1002.04 224.959H990.764V235.254H1002.04V224.959Z" fill="white"/>
<path d="M1015.49 224.959H1004.21V235.254H1015.49V224.959Z" fill="white"/>
<path d="M1035.78 176.652H916.877V184.944H1035.78V176.652Z" fill="#F9F0D4"/>
<path d="M946.947 121.768H940.028V132.063H946.947V121.768Z" fill="white"/>
<path d="M955.202 121.768H948.283V132.063H955.202V121.768Z" fill="white"/>
<path d="M963.476 121.768H956.557V132.063H963.476V121.768Z" fill="white"/>
<path d="M946.947 134.066H940.028V144.362H946.947V134.066Z" fill="white"/>
<path d="M955.202 134.066H948.283V144.362H955.202V134.066Z" fill="white"/>
<path d="M963.476 134.066H956.557V144.362H963.476V134.066Z" fill="white"/>
<path d="M946.947 146.346H940.028V156.641H946.947V146.346Z" fill="white"/>
<path d="M955.203 146.346H948.284V156.641H955.203V146.346Z" fill="white"/>
<path d="M963.476 146.346H956.557V156.641H963.476V146.346Z" fill="white"/>
<path d="M991.244 121.768H984.325V132.063H991.244V121.768Z" fill="white"/>
<path d="M999.518 121.768H992.599V132.063H999.518V121.768Z" fill="white"/>
<path d="M1007.77 121.768H1000.85V132.063H1007.77V121.768Z" fill="white"/>
<path d="M991.244 134.066H984.325V144.362H991.244V134.066Z" fill="white"/>
<path d="M999.518 134.066H992.599V144.362H999.518V134.066Z" fill="white"/>
<path d="M1007.77 134.066H1000.85V144.362H1007.77V134.066Z" fill="white"/>
<path d="M991.244 146.346H984.325V156.641H991.244V146.346Z" fill="white"/>
<path d="M999.518 146.346H992.599V156.641H999.518V146.346Z" fill="white"/>
<path d="M1007.77 146.346H1000.85V156.641H1007.77V146.346Z" fill="white"/>
<path d="M946.947 138.348H940.028V144.358H946.947V138.348Z" fill="#6FB2BA"/>
<path d="M955.203 138.348H948.284V144.358H955.203V138.348Z" fill="#6FB2BA"/>
<path d="M963.476 138.348H956.557V144.358H963.476V138.348Z" fill="#6FB2BA"/>
<path d="M946.947 146.344H940.028V156.639H946.947V146.344Z" fill="#6FB2BA"/>
<path d="M955.202 146.344H948.283V156.639H955.202V146.344Z" fill="#6FB2BA"/>
<path d="M963.476 146.344H956.557V156.639H963.476V146.344Z" fill="#6FB2BA"/>
<path d="M991.244 138.348H984.325V144.358H991.244V138.348Z" fill="#6FB2BA"/>
<path d="M999.518 138.348H992.599V144.358H999.518V138.348Z" fill="#6FB2BA"/>
<path d="M1007.77 138.348H1000.85V144.358H1007.77V138.348Z" fill="#6FB2BA"/>
<path d="M991.244 146.342H984.325V156.637H991.244V146.342Z" fill="#6FB2BA"/>
<path d="M999.518 146.342H992.599V156.637H999.518V146.342Z" fill="#6FB2BA"/>
<path d="M1007.77 146.342H1000.85V156.637H1007.77V146.342Z" fill="#6FB2BA"/>
<path d="M1073.09 98.4648H1027.35V268.254H1073.09V98.4648Z" fill="#F28953"/>
<path d="M1032.78 98.4648H1027.35V268.254H1032.78V98.4648Z" fill="#F2C345"/>
<path d="M1073.09 98.4648H1027.35V106.182H1073.09V98.4648Z" fill="#8D182C"/>
<path d="M1068.95 120.055H1034.36V158.361H1068.95V120.055Z" fill="#D85B26"/>
<path d="M1044.82 120.91H1035.79V131.205H1044.82V120.91Z" fill="white"/>
<path d="M1055.6 120.91H1046.56V131.205H1055.6V120.91Z" fill="white"/>
<path d="M1066.37 120.91H1057.34V131.205H1066.37V120.91Z" fill="white"/>
<path d="M1044.82 133.213H1035.79V143.508H1044.82V133.213Z" fill="white"/>
<path d="M1055.6 133.213H1046.56V143.508H1055.6V133.213Z" fill="white"/>
<path d="M1066.37 133.213H1057.34V143.508H1066.37V133.213Z" fill="white"/>
<path d="M1044.82 145.488H1035.79V155.784H1044.82V145.488Z" fill="white"/>
<path d="M1055.6 145.488H1046.56V155.784H1055.6V145.488Z" fill="white"/>
<path d="M1066.37 145.488H1057.34V155.784H1066.37V145.488Z" fill="white"/>
<path d="M1044.82 190.084H1035.79V200.379H1044.82V190.084Z" fill="white"/>
<path d="M1055.6 190.084H1046.56V200.379H1055.6V190.084Z" fill="white"/>
<path d="M1066.37 190.084H1057.34V200.379H1066.37V190.084Z" fill="white"/>
<path d="M1044.82 202.385H1035.79V212.68H1044.82V202.385Z" fill="white"/>
<path d="M1055.6 202.385H1046.56V212.68H1055.6V202.385Z" fill="white"/>
<path d="M1066.37 202.385H1057.34V212.68H1066.37V202.385Z" fill="white"/>
<path d="M1044.82 214.662H1035.79V224.957H1044.82V214.662Z" fill="white"/>
<path d="M1055.6 214.662H1046.56V224.957H1055.6V214.662Z" fill="white"/>
<path d="M1066.37 214.662H1057.34V224.957H1066.37V214.662Z" fill="white"/>
<path d="M1079.38 102.508H1019.93L1044.32 74.998H1054.97L1079.38 102.508Z" fill="#EBA987"/>
<path d="M1044.32 74.998L1019.93 102.508H1025.12L1045.06 74.998H1044.32Z" fill="white"/>
<path d="M1050.64 102.508H1079.38L1054.97 74.998H1050.64V102.508Z" fill="#D85B26"/>
<path d="M922.166 98.4668H876.422V268.256H922.166V98.4668Z" fill="#F28953"/>
<path d="M880.855 98.4668H876.422V268.256H880.855V98.4668Z" fill="#F2C345"/>
<path d="M885.994 220.376C882.488 220.543 879.316 219.82 876.422 218.447V268.254H922.166V197.689C912.891 209.951 901.743 219.245 886.012 220.376H885.994Z" fill="#8D182C"/>
<path d="M922.166 98.4668H876.422V106.61H922.166V98.4668Z" fill="#8D182C"/>
<path d="M928.453 102.508H869L893.393 74.998H904.041L928.453 102.508Z" fill="#EBA987"/>
<path d="M893.393 74.998L869 102.508H874.194L894.135 74.998H893.393Z" fill="white"/>
<path d="M899.719 102.508H928.453L904.041 74.998H899.719V102.508Z" fill="#D85B26"/>
<path d="M917.176 188.078H882.58V226.384H917.176V188.078Z" fill="#D85B26"/>
<path d="M917.176 120.055H882.58V158.361H917.176V120.055Z" fill="#D85B26"/>
<path d="M893.896 120.91H884.862V131.205H893.896V120.91Z" fill="white"/>
<path d="M904.673 120.91H895.639V131.205H904.673V120.91Z" fill="white"/>
<path d="M915.451 120.91H906.417V131.205H915.451V120.91Z" fill="white"/>
<path d="M893.896 133.213H884.862V143.508H893.896V133.213Z" fill="white"/>
<path d="M904.673 133.213H895.639V143.508H904.673V133.213Z" fill="white"/>
<path d="M915.451 133.213H906.417V143.508H915.451V133.213Z" fill="white"/>
<path d="M893.896 145.488H884.862V155.784H893.896V145.488Z" fill="white"/>
<path d="M904.673 145.488H895.639V155.784H904.673V145.488Z" fill="white"/>
<path d="M915.451 145.488H906.417V155.784H915.451V145.488Z" fill="white"/>
<path d="M893.896 190.084H884.862V200.379H893.896V190.084Z" fill="white"/>
<path d="M904.673 190.084H895.639V200.379H904.673V190.084Z" fill="white"/>
<path d="M915.451 190.084H906.417V200.379H915.451V190.084Z" fill="white"/>
<path d="M893.896 202.385H884.862V212.68H893.896V202.385Z" fill="white"/>
<path d="M904.673 202.385H895.639V212.68H904.673V202.385Z" fill="white"/>
<path d="M915.451 202.385H906.417V212.68H915.451V202.385Z" fill="white"/>
<path d="M893.896 214.662H884.862V224.957H893.896V214.662Z" fill="white"/>
<path d="M904.674 214.662H895.64V224.957H904.674V214.662Z" fill="white"/>
<path d="M915.451 214.662H906.417V224.957H915.451V214.662Z" fill="white"/>
<path d="M893.896 141.779H884.862V143.486H893.896V141.779Z" fill="#F2C345"/>
<path d="M904.673 141.779H895.639V143.486H904.673V141.779Z" fill="#F2C345"/>
<path d="M915.451 141.779H906.417V143.486H915.451V141.779Z" fill="#F2C345"/>
<path d="M893.896 145.488H884.862V155.784H893.896V145.488Z" fill="#F2C345"/>
<path d="M904.674 145.488H895.64V155.784H904.674V145.488Z" fill="#F2C345"/>
<path d="M915.451 145.488H906.417V155.784H915.451V145.488Z" fill="#F2C345"/>
<path d="M893.896 218.395H884.862V224.961H893.896V218.395Z" fill="#F2C345"/>
<path d="M904.674 218.395H895.64V224.961H904.674V218.395Z" fill="#F2C345"/>
<path d="M915.451 218.395H906.417V224.961H915.451V218.395Z" fill="#F2C345"/>
<path d="M1008.3 291.824H976.314V327.243H1008.3V291.824Z" fill="#D85B26"/>
<path d="M1051.28 300.593C1050.45 298.74 1048.55 297.253 1046.62 297.051C1046.66 295.895 1046.62 294.721 1046.47 293.564C1046.25 291.674 1045.72 289.692 1044.31 288.408C1042.89 287.141 1040.36 286.976 1039.24 288.499C1039.28 285.6 1036.98 282.866 1034.14 282.37C1032.58 282.095 1030.95 282.535 1029.63 283.435C1029.46 281.599 1028.43 279.838 1026.82 278.92C1024.62 277.672 1021.57 278.186 1019.88 280.095C1019.48 275.91 1016.56 272.056 1012.65 270.515C1008.72 268.973 1003.97 269.818 1000.83 272.607C999.456 267.836 994.152 264.569 989.27 265.487C984.389 266.404 980.627 271.378 981.086 276.314C978.7 274.057 974.571 273.947 972.075 276.112C969.579 278.259 969.084 282.352 970.974 285.049C969.102 282.774 964.991 284.37 963.964 287.141C962.918 289.913 963.909 292.977 964.881 295.767C962.606 293.766 958.954 293.564 956.458 295.289C953.962 297.015 952.879 300.501 953.944 303.346C947.099 303.548 941.098 310.099 941.483 316.926C937.299 316.669 933.078 319.312 931.5 323.202C944.988 325.9 958.972 323.11 972.075 318.945C985.178 314.779 997.877 309.237 1011.29 306.245C1024.71 303.254 1039.33 302.997 1051.63 309.127C1052.03 306.264 1052.42 303.217 1051.24 300.575L1051.28 300.593Z" fill="#6FB2BA"/>
<path d="M974.223 293.38C972.113 294.646 970.938 297.582 972.021 299.858C970.902 299.069 969.268 299.142 968.241 300.041C967.213 300.941 966.901 302.555 967.507 303.767C965.947 302.904 963.836 303.693 962.864 305.18C961.891 306.666 961.928 308.648 962.552 310.318C963.176 311.988 964.313 313.401 965.506 314.723C968.167 313.915 970.81 313.108 973.471 312.318C973.856 305.987 974.168 299.674 974.223 293.361V293.38Z" fill="#219982"/>
<path d="M976.114 299.582C976.151 295.324 976.316 290.993 976.702 286.699C976.702 286.718 976.665 286.754 976.646 286.773C975.674 288.571 975.582 290.755 976.004 292.774C975.655 292.81 975.325 292.902 974.995 293.012C974.958 299.362 974.646 305.73 974.261 312.098C974.958 311.896 975.674 311.694 976.371 311.474C976.169 307.51 976.078 303.528 976.114 299.564V299.582Z" fill="#219982"/>
<path d="M986.573 286.517C986.17 286.884 985.784 287.288 985.472 287.728C985.582 285.673 983.674 283.856 981.619 283.746C980.095 283.654 978.627 284.388 977.563 285.489C977.067 290.609 976.884 295.766 976.884 300.831C976.884 304.3 976.976 307.768 977.141 311.237C979.912 310.429 982.683 309.677 985.472 308.943C985.619 301.455 986.023 293.968 986.555 286.499L986.573 286.517Z" fill="#219982"/>
<path d="M994.429 285.342C993.713 284.993 992.942 284.755 992.153 284.663C990.501 284.479 988.795 284.938 987.418 285.856C986.886 293.472 986.464 301.106 986.299 308.74C988.629 308.153 990.96 307.584 993.309 307.07C993.383 299.803 993.713 292.536 994.429 285.324V285.342Z" fill="#219982"/>
<path d="M1002.52 288.369C1002.19 287.892 1001.6 287.543 1001.02 287.543C999.861 287.543 998.888 288.332 998.007 289.084C997.438 287.708 996.411 286.57 995.163 285.781C994.466 292.81 994.153 299.875 994.08 306.959C995.897 306.573 997.732 306.206 999.567 305.876C1000.67 305.674 1001.77 305.509 1002.87 305.344C1002.61 299.692 1002.54 294.039 1002.52 288.387V288.369Z" fill="#219982"/>
<path d="M1012.06 290.041C1011.62 289.968 1011.18 289.968 1010.76 290.041C1009.46 290.298 1008.36 291.326 1007.99 292.592C1007.81 290.464 1005.33 288.977 1003.33 289.546C1003.35 294.758 1003.44 299.988 1003.66 305.2C1006.74 304.759 1009.83 304.429 1012.93 304.227C1012.6 299.492 1012.28 294.776 1012.06 290.041Z" fill="#219982"/>
<path d="M1019.44 287.859C1019.18 287.803 1018.93 287.785 1018.65 287.785C1016.63 287.785 1014.72 289.345 1014.28 291.327C1013.92 290.868 1013.4 290.501 1012.85 290.281C1013.09 294.924 1013.38 299.548 1013.72 304.191C1015.79 304.081 1017.84 304.026 1019.92 304.045C1019.62 298.649 1019.46 293.272 1019.44 287.877V287.859Z" fill="#219982"/>
<path d="M1027.68 291.085C1027.55 290.975 1027.41 290.864 1027.26 290.773C1025.96 290.02 1024.18 290.222 1023.09 291.232C1022.76 289.782 1021.63 288.589 1020.25 288.057C1020.29 293.379 1020.45 298.701 1020.73 304.004C1023.59 304.041 1026.45 304.243 1029.28 304.573C1028.69 300.077 1028.12 295.581 1027.68 291.066V291.085Z" fill="#219982"/>
<path d="M1032.91 297.805C1033.92 297.145 1033.5 295.42 1032.43 294.832C1031.39 294.245 1030.08 294.429 1028.89 294.649C1029.09 293.842 1028.95 292.979 1028.58 292.227C1029 296.392 1029.53 300.54 1030.08 304.687C1031.61 304.871 1033.11 305.091 1034.62 305.385C1035.44 303.935 1036.29 302.375 1036.18 300.723C1036.07 299.053 1034.53 297.402 1032.91 297.805Z" fill="#219982"/>
<path d="M1067.58 261.69C951.319 253.601 828.448 251.701 733.583 292.067C699.187 306.703 663.178 320.158 619.069 325.987C554.342 334.563 482.387 320.132 418.241 329.531C382.49 334.769 353.934 346.735 321.957 355.645C257.876 373.491 181.178 378.755 108.9 388.307C71.1804 393.289 32.8152 400.119 0 409.825H1067.58V261.69Z" fill="white"/>
<path d="M1067.58 262.179C951.319 254.45 827.512 266.801 733.583 297.486C696.961 309.452 663.178 324.294 619.069 329.866C554.342 338.032 482.387 324.294 418.241 333.256C382.49 338.237 353.934 349.664 321.957 358.163C257.876 375.187 181.178 380.22 108.9 389.31C71.1804 394.061 32.8152 400.583 0 409.853H1067.58V262.179Z" fill="#F2C345"/>
<path d="M786.339 299.793C751.136 304.723 711.415 305.159 684.634 319.77C712.577 315.148 742.52 314.968 770.625 319.231C781.95 320.951 793.179 323.391 804.86 323.622C821.929 323.956 838.062 319.539 854.099 316.047C902.821 305.442 956.223 302.746 1007.2 308.343C963.87 289.239 906.855 281.792 854.26 288.34C831.221 291.216 809.248 296.583 786.339 299.793Z" fill="#F28953"/>
<path d="M679.279 337.026C678.053 330.479 666.792 325.24 655.95 326.165C707.996 312.812 768.981 312.632 821.253 325.625C794.891 331.095 768.529 336.59 742.135 342.059C817.994 337.36 897.66 332.969 967.905 350.815C983.974 354.898 1001.78 363.218 997.719 373.412C993.815 383.169 973.164 386.071 956.45 385.968C928.313 385.814 897.047 383.067 874.686 393.338C868.33 396.265 863.167 400.091 856.456 402.736C844.872 407.281 830.255 407.743 816.38 407.948C703.511 409.72 590.642 406.177 477.902 402.607C429.406 401.067 380.941 399.552 332.444 398.011C323.636 397.729 313.471 397.01 308.696 392.542C301.468 385.789 312.697 377.366 323.765 372.873C359.129 358.493 402.269 352.253 444.926 350.969C487.583 349.686 530.175 353.049 572.508 356.413C544.824 352.87 517.107 349.352 489.422 345.808C551.987 339.081 615.681 336.128 679.247 336.975L679.279 337.026Z" fill="#EBA987"/>
<path d="M297.95 362.042C335.831 353.158 381.844 353.337 425.178 354.801C497.81 357.266 569.894 362.71 640.009 371.004C673.083 374.933 709.641 379.375 740.52 373.109C750.555 371.081 760.267 366.716 756.783 362.299C753.491 358.114 741.069 356.855 730.614 356.265C672.244 352.901 613.906 349.563 555.535 346.199C601.902 335.389 655.401 329.996 708.479 330.767C714.223 330.844 720.192 330.972 725.387 329.945C730.55 328.918 734.39 326.273 732.034 324.091C729.614 321.882 722.709 321.394 716.869 321.215C694.992 320.521 673.083 319.828 651.206 319.135C675.987 319.392 700.768 319.674 725.548 319.931C731.84 320.008 738.358 320.085 744.069 321.189C749.813 322.293 754.589 324.681 754.137 327.3C753.395 331.46 741.359 333.334 731.486 333.925C703.284 335.62 670.953 335.62 651.98 344.479C694.798 342.912 738.003 341.32 780.66 343.503C823.317 345.66 866.005 351.9 897.498 364.096C875.363 378.04 837.062 386.359 797.923 389.903C758.751 393.446 718.224 392.753 678.181 392.034C581.542 390.365 483.613 388.876 389.168 397.58C379.359 398.479 368.324 399.404 359.934 397.118C354.514 395.655 351.416 393.113 348.512 390.699C339.348 383.047 330.185 375.369 321.021 367.717L297.982 362.042H297.95Z" fill="#F9F0D4"/>
<path d="M508.846 345.4C534.95 350.407 561.086 355.389 587.189 360.396C503.328 352.975 417.499 346.248 334.348 356.108C371.519 346.016 410.626 335.668 451.314 337.363C471.029 338.185 490.067 341.805 508.878 345.4H508.846Z" fill="#F28953"/>
<path d="M763.236 289.654C769.206 289.834 775.272 288.473 779.628 285.982C773.691 285.982 767.754 287.292 763.236 289.654Z" fill="#F9F0D4"/>
<path d="M797.922 281.563C794.857 282.461 791.791 283.386 788.726 284.285C787.855 284.541 786.822 285.029 787.177 285.568C787.5 286.082 788.661 286.082 789.565 286.005C797.212 285.235 804.666 283.668 811.41 281.357C811.055 280.869 809.958 280.638 809.151 280.895L797.922 281.563Z" fill="#F9F0D4"/>
<path d="M880.49 270.086C880.942 270.805 882.426 270.985 883.684 271.036C894.816 271.575 906.174 270.112 915.951 266.902C915.887 266.62 915.822 266.312 915.758 266.029C904.948 264.771 893.558 265.413 883.362 267.904C881.781 268.289 879.909 269.11 880.49 270.086Z" fill="#F9F0D4"/>
<path d="M917.501 266.339C922.18 267.34 927.504 267.212 932.021 265.979C927.633 264.361 921.631 264.515 917.501 266.339Z" fill="#F9F0D4"/>
<path d="M911.208 272.013C913.176 272.013 915.176 271.962 917.145 271.936C918.403 271.936 920.146 271.576 919.855 270.832C919.694 270.395 918.855 270.215 918.113 270.113C915.66 269.805 913.047 269.933 910.691 270.447C909.917 270.626 909.013 271.012 909.239 271.474C909.465 271.91 910.433 271.987 911.208 271.987V272.013Z" fill="#F9F0D4"/>
<path d="M867.296 273.988C858.036 272.37 847.71 273.064 839.289 275.888C837.804 276.376 836.191 277.172 836.449 278.199C836.74 279.303 838.998 279.714 840.838 279.842C849.743 280.407 858.907 279.534 867.071 277.3C868.619 276.89 870.394 276.042 869.845 275.066C869.49 274.45 868.329 274.168 867.296 273.988Z" fill="#F9F0D4"/>
<path d="M742.036 298.508C746.876 298.791 751.877 297.661 755.233 295.581C750.393 294.913 745.005 296.12 742.036 298.508Z" fill="#F9F0D4"/>
<path d="M961.418 266.237C962.902 266.109 964.774 265.672 964.677 264.773C964.612 264.208 963.741 263.798 962.902 263.515C956.9 261.487 948.963 261.769 943.413 264.183V265.056C949.157 266.314 955.384 266.725 961.418 266.237Z" fill="#F9F0D4"/>
<path d="M1028.76 265.593C1033.08 265.901 1037.47 265.927 1041.79 265.644C1043.15 265.567 1044.92 265.131 1044.73 264.309C1044.6 263.77 1043.67 263.487 1042.86 263.282C1038.37 262.229 1033.44 261.869 1028.66 262.229C1026.92 262.357 1024.79 262.897 1024.82 263.949C1024.89 265.002 1027.02 265.439 1028.76 265.567V265.593Z" fill="#F9F0D4"/>
<path d="M468.199 155.269C468.236 155.085 468.291 154.92 468.328 154.736L468.199 155.269Z" fill="#F2C345"/>
<path d="M114.09 218.383H113.301V218.786H114.09V218.383Z" fill="white"/>
<mask id="mask0_2674_16704" style="mask-type:luminance" maskUnits="userSpaceOnUse" x="948" y="273" width="120" height="135">
<path d="M1067.7 273H948.999V407.039H1067.7V273Z" fill="white"/>
</mask>
<g mask="url(#mask0_2674_16704)">
<path d="M967.131 376.245C964.984 375.364 962.525 375.236 960.378 376.116C962.268 382.815 965.792 389.054 970.526 394.174C968.086 392.284 964.434 391.899 961.755 393.514C962.69 399.148 965.884 404.359 970.471 407.736L975.371 411.516H1106.68C1108.33 410.966 1109.8 410.048 1110.46 408.488C1112.03 404.781 1107.74 401.166 1103.83 400.249C1099.9 399.331 1095.32 399.276 1092.69 396.211C1096.53 393.367 1101.74 393.55 1106.22 391.917C1110.7 390.265 1114.57 384.503 1111.36 380.979C1109.74 379.218 1107.1 378.961 1104.71 378.888C1097.46 378.649 1090.22 378.943 1083.02 379.805C1088.75 375.933 1094.22 371.694 1099.37 367.124C1101.28 365.436 1103.3 363.417 1103.46 360.866C1103.78 355.93 1097.23 353.471 1092.36 354.388C1087.5 355.306 1082.71 357.967 1077.86 356.957C1080.23 352.828 1084.95 350.755 1088.42 347.525C1091.9 344.295 1093.83 338.037 1090.07 335.137C1088.27 333.761 1085.83 333.706 1083.57 333.89C1075.31 334.55 1067.28 337.633 1060.71 342.662C1069.11 335.156 1074.96 324.842 1077.09 313.795C1077.92 309.519 1077.86 304.325 1074.38 301.719C1070.32 298.71 1064.5 301.224 1060.58 304.417C1052.59 310.914 1046.91 320.163 1044.61 330.201C1046.3 320.438 1045.75 310.29 1042.96 300.784C1041.82 296.911 1039.56 292.544 1035.56 292.177C1031.14 291.773 1028.1 296.471 1026.65 300.673C1024.13 307.959 1023.14 315.758 1023.71 323.448C1022.26 319.227 1020.28 315.171 1017.82 311.446C1016.28 309.097 1013.91 306.619 1011.16 307.17C1007.84 307.83 1006.95 312.143 1007.06 315.52C1007.28 322.402 1008.64 329.265 1011.03 335.725C1010.51 335.101 1009.96 334.514 1009.3 334.018C1006.29 331.742 1000.97 332.275 999.815 335.872C999.045 338.257 1000.37 340.771 1001.61 342.937C1004.55 348.057 1007.39 353.342 1008.62 359.123C1009.6 363.656 1009.45 368.574 1007.67 372.813C1008.97 367.95 1005.94 361.784 1000.79 360.885C997.668 360.352 994.622 361.894 992.622 364.316C992.97 358.389 991.906 352.37 989.465 346.956C988.144 344.02 986.162 341.028 983.079 340.074C977.775 338.459 972.563 344.203 972.49 349.745C972.49 351.232 972.71 352.682 973.096 354.095C970.783 350.314 968.251 346.681 965.48 343.231C963.791 341.12 961.571 338.863 958.892 339.138C954.634 339.56 953.643 345.359 954.341 349.58C955.974 359.435 960.507 368.776 967.168 376.227L967.131 376.245Z" fill="#6FB2BA"/>
<path d="M985.373 397.258C983.097 395.551 980.326 394.45 977.482 394.23C979.592 400.836 983.483 406.855 988.603 411.517H1072.34C1074.41 410.269 1076.3 408.801 1077.68 406.837C1080.1 403.387 1080.27 397.937 1076.87 395.423C1074.08 393.349 1070.3 394.028 1066.89 395.129C1069.77 393.826 1071.97 390.945 1072.16 387.77C1072.38 384.044 1069.68 380.301 1066.03 379.512C1062.38 378.741 1058.28 381.2 1057.42 384.834C1057.77 381.64 1060.54 379.383 1062.39 376.777C1064.25 374.171 1064.8 369.749 1061.9 368.391C1060.49 367.73 1058.8 368.134 1057.33 368.684C1052.67 370.409 1048.48 373.419 1045.38 377.309C1048.58 372.74 1050.36 367.216 1050.43 361.637C1050.47 359.655 1050.21 357.508 1048.89 356.022C1046.39 353.232 1041.4 354.535 1039.23 357.6C1037.07 360.665 1036.94 364.665 1036.89 368.409C1034.19 361.344 1031.51 354.26 1028.81 347.195C1028.04 345.158 1026.94 342.845 1024.81 342.423C1023.1 342.093 1021.38 343.212 1020.5 344.717C1019.62 346.222 1019.43 348.021 1019.36 349.746C1018.9 360.133 1021.8 370.611 1027.36 379.383C1026.43 379.328 1025.51 379.603 1024.9 380.319C1023.97 381.439 1024.11 383.09 1024.31 384.54C1024.87 388.541 1025.42 392.541 1025.97 396.56C1024.72 392.358 1020.06 389.183 1015.69 390.137C1011.21 391.11 1008.26 396.12 1009.05 400.543C1006.95 394.376 1003.78 388.577 999.687 383.494C998.568 382.118 997.228 380.686 995.466 380.484C992.548 380.136 990.273 383.476 990.585 386.412C990.676 387.274 990.915 388.1 991.264 388.908C989.043 385.659 986.841 382.393 984.62 379.145C983.409 377.365 981.703 375.346 979.574 375.695C976.601 376.172 976.344 380.411 977.243 383.292C978.858 388.486 981.666 393.294 985.373 397.276V397.258Z" fill="#219982"/>
<path d="M981.391 351.251C982.486 351.251 983.373 350.364 983.373 349.269C983.373 348.174 982.486 347.287 981.391 347.287C980.297 347.287 979.409 348.174 979.409 349.269C979.409 350.364 980.297 351.251 981.391 351.251Z" fill="#1C7BC0"/>
<path d="M977.17 361.821C978.7 361.821 979.941 360.581 979.941 359.05C979.941 357.52 978.7 356.279 977.17 356.279C975.639 356.279 974.398 357.52 974.398 359.05C974.398 360.581 975.639 361.821 977.17 361.821Z" fill="#1C7BC0"/>
<path d="M988.126 360.629C988.126 361.437 987.484 362.079 986.676 362.079C985.869 362.079 985.227 361.437 985.227 360.629C985.227 359.822 985.869 359.18 986.676 359.18C987.484 359.18 988.126 359.822 988.126 360.629Z" fill="#1C7BC0"/>
<path d="M964.342 351.25C965.214 351.25 965.92 350.544 965.92 349.672C965.92 348.8 965.214 348.094 964.342 348.094C963.47 348.094 962.764 348.8 962.764 349.672C962.764 350.544 963.47 351.25 964.342 351.25Z" fill="#1C7BC0"/>
<path d="M1011.93 323.741C1012.8 323.741 1013.51 323.034 1013.51 322.162C1013.51 321.291 1012.8 320.584 1011.93 320.584C1011.06 320.584 1010.35 321.291 1010.35 322.162C1010.35 323.034 1011.06 323.741 1011.93 323.741Z" fill="#1C7BC0"/>
<path d="M1015.63 333.267C1015.63 334.001 1015.05 334.588 1014.31 334.588C1013.58 334.588 1012.99 334.001 1012.99 333.267C1012.99 332.533 1013.58 331.945 1014.31 331.945C1015.05 331.945 1015.63 332.533 1015.63 333.267Z" fill="#1C7BC0"/>
<path d="M1024.35 330.11C1024.35 330.844 1023.76 331.432 1023.03 331.432C1022.3 331.432 1021.71 330.844 1021.71 330.11C1021.71 329.376 1022.3 328.789 1023.03 328.789C1023.76 328.789 1024.35 329.376 1024.35 330.11Z" fill="#1C7BC0"/>
<path d="M1033.47 306.032C1035 306.032 1036.24 304.792 1036.24 303.261C1036.24 301.731 1035 300.49 1033.47 300.49C1031.94 300.49 1030.7 301.731 1030.7 303.261C1030.7 304.792 1031.94 306.032 1033.47 306.032Z" fill="#1C7BC0"/>
<path d="M1035.2 319.133C1035.2 320.381 1034.19 321.372 1032.96 321.372C1031.73 321.372 1030.72 320.363 1030.72 319.133C1030.72 317.904 1031.73 316.895 1032.96 316.895C1034.19 316.895 1035.2 317.904 1035.2 319.133Z" fill="#1C7BC0"/>
<path d="M1035.45 326.274C1035.45 327.228 1034.68 327.999 1033.73 327.999C1032.78 327.999 1032 327.228 1032 326.274C1032 325.32 1032.78 324.549 1033.73 324.549C1034.68 324.549 1035.45 325.32 1035.45 326.274Z" fill="#1C7BC0"/>
<path d="M1040.74 332.752C1041.33 332.752 1041.8 332.275 1041.8 331.687C1041.8 331.1 1041.33 330.623 1040.74 330.623C1040.15 330.623 1039.68 331.1 1039.68 331.687C1039.68 332.275 1040.15 332.752 1040.74 332.752Z" fill="#1C7BC0"/>
<path d="M1066.12 313.85C1066.12 315.098 1065.11 316.089 1063.88 316.089C1062.65 316.089 1061.64 315.08 1061.64 313.85C1061.64 312.621 1062.65 311.611 1063.88 311.611C1065.11 311.611 1066.12 312.621 1066.12 313.85Z" fill="#1C7BC0"/>
<path d="M1039.68 311.867C1040.99 311.867 1042.06 310.799 1042.06 309.481C1042.06 308.164 1040.99 307.096 1039.68 307.096C1038.36 307.096 1037.29 308.164 1037.29 309.481C1037.29 310.799 1038.36 311.867 1039.68 311.867Z" fill="#1C7BC0"/>
<path d="M1059.51 327.725C1060.83 327.725 1061.9 326.656 1061.9 325.339C1061.9 324.021 1060.83 322.953 1059.51 322.953C1058.2 322.953 1057.13 324.021 1057.13 325.339C1057.13 326.656 1058.2 327.725 1059.51 327.725Z" fill="#1C7BC0"/>
<path d="M1055.27 337.102C1055.27 337.91 1054.63 338.552 1053.82 338.552C1053.02 338.552 1052.38 337.91 1052.38 337.102C1052.38 336.295 1053.02 335.652 1053.82 335.652C1054.63 335.652 1055.27 336.295 1055.27 337.102Z" fill="#1C7BC0"/>
<path d="M968.966 382.706C969.767 382.706 970.416 382.057 970.416 381.256C970.416 380.456 969.767 379.807 968.966 379.807C968.166 379.807 967.517 380.456 967.517 381.256C967.517 382.057 968.166 382.706 968.966 382.706Z" fill="#1C7BC0"/>
<path d="M972.527 389.458C972.527 390.265 971.885 390.907 971.078 390.907C970.27 390.907 969.628 390.265 969.628 389.458C969.628 388.65 970.27 388.008 971.078 388.008C971.885 388.008 972.527 388.65 972.527 389.458Z" fill="#1C7BC0"/>
<path d="M973.06 385.496C973.06 386.01 972.638 386.413 972.142 386.413C971.647 386.413 971.225 385.991 971.225 385.496C971.225 385 971.647 384.578 972.142 384.578C972.638 384.578 973.06 385 973.06 385.496Z" fill="#1C7BC0"/>
<path d="M974.914 400.818C974.914 402.488 973.556 403.864 971.868 403.864C970.179 403.864 968.821 402.506 968.821 400.818C968.821 399.13 970.179 397.771 971.868 397.771C973.556 397.771 974.914 399.13 974.914 400.818Z" fill="#1C7BC0"/>
<path d="M1066.12 352.57C1067.44 352.57 1068.51 351.502 1068.51 350.185C1068.51 348.867 1067.44 347.799 1066.12 347.799C1064.8 347.799 1063.74 348.867 1063.74 350.185C1063.74 351.502 1064.8 352.57 1066.12 352.57Z" fill="#1C7BC0"/>
<path d="M1058.85 355.214C1059.95 355.214 1060.83 354.326 1060.83 353.232C1060.83 352.137 1059.95 351.25 1058.85 351.25C1057.76 351.25 1056.87 352.137 1056.87 353.232C1056.87 354.326 1057.76 355.214 1058.85 355.214Z" fill="#1C7BC0"/>
<path d="M1063.88 358.132C1064.54 358.132 1065.07 357.598 1065.07 356.939C1065.07 356.28 1064.54 355.746 1063.88 355.746C1063.22 355.746 1062.69 356.28 1062.69 356.939C1062.69 357.598 1063.22 358.132 1063.88 358.132Z" fill="#1C7BC0"/>
<path d="M1057.79 320.31C1059.75 320.31 1061.35 318.716 1061.35 316.75C1061.35 314.783 1059.75 313.189 1057.79 313.189C1055.82 313.189 1054.23 314.783 1054.23 316.75C1054.23 318.716 1055.82 320.31 1057.79 320.31Z" fill="#1C7BC0"/>
<path d="M1062.95 333.413C1062.95 334.22 1062.3 334.862 1061.5 334.862C1060.69 334.862 1060.05 334.22 1060.05 333.413C1060.05 332.605 1060.69 331.963 1061.5 331.963C1062.3 331.963 1062.95 332.605 1062.95 333.413Z" fill="#1C7BC0"/>
<path d="M964.599 354.811C964.599 355.619 963.957 356.261 963.149 356.261C962.342 356.261 961.699 355.619 961.699 354.811C961.699 354.004 962.342 353.361 963.149 353.361C963.957 353.361 964.599 354.004 964.599 354.811Z" fill="#1C7BC0"/>
<path d="M957.076 348.075C958.17 348.075 959.058 347.188 959.058 346.093C959.058 344.999 958.17 344.111 957.076 344.111C955.981 344.111 955.094 344.999 955.094 346.093C955.094 347.188 955.981 348.075 957.076 348.075Z" fill="#1C7BC0"/>
<path d="M1015.89 315.301C1015.89 317.338 1014.24 319.008 1012.18 319.008C1010.13 319.008 1008.48 317.356 1008.48 315.301C1008.48 313.245 1010.13 311.594 1012.18 311.594C1014.24 311.594 1015.89 313.245 1015.89 315.301Z" fill="#1C7BC0"/>
</g>
<defs>
<linearGradient id="paint0_linear_2674_16704" x1="983.137" y1="0.166016" x2="983.137" y2="28.0785" gradientUnits="userSpaceOnUse">
<stop stop-color="#F8BF3B"/>
<stop offset="0.525" stop-color="#FF8B13"/>
<stop offset="1" stop-color="#EF5F3D"/>
</linearGradient>
</defs>
</svg>
