<svg width="1298" height="250" viewBox="0 0 1298 250" fill="none" xmlns="http://www.w3.org/2000/svg">
<g opacity="0.12">
<path d="M1043.3 164.329C1054.08 118.858 1027.72 72.8187 984.427 61.4982C941.131 50.1777 897.295 77.8626 886.517 123.334C875.738 168.806 902.098 214.845 945.393 226.166C988.689 237.486 1032.52 209.801 1043.3 164.329Z" fill="url(#paint0_linear_2674_3496)"/>
<path d="M315.034 206.327C305.993 201.34 294.432 201.681 285.688 207.194C291.438 192.451 287.111 174.765 277.21 162.685C267.309 150.606 252.606 143.637 237.637 140.756C220.088 137.38 201.176 139.362 185.88 148.964C170.585 158.566 159.587 176.376 160.121 195.022C162.759 181.548 152.384 167.703 139.578 164.606C126.772 161.508 113.018 167.641 104.066 177.708C107.831 164.822 101.517 150.141 90.7861 142.676C80.0554 135.212 65.9454 134.375 53.614 138.34C40.1562 142.676 27.6172 154.075 26.4612 168.756C15.2858 160.858 0.256927 159.247 -12.1931 164.606C-24.6727 169.995 -34.2473 182.199 -36.8262 196.013C-56.1534 204.035 -68.5737 229.093 -62.408 249.845H288.859C304.303 249.845 320.607 248.916 335.814 250C337.414 234.42 328.551 213.761 315.034 206.296V206.327Z" fill="url(#paint1_linear_2674_3496)"/>
<path d="M804.95 204.033C810.966 200.698 818.658 200.926 824.476 204.613C820.65 194.753 823.529 182.925 830.117 174.847C836.704 166.768 846.487 162.107 856.447 160.181C868.123 157.923 880.707 159.249 890.884 165.67C901.061 172.092 908.378 184.002 908.023 196.473C906.268 187.462 913.171 178.202 921.692 176.131C930.212 174.059 939.364 178.161 945.32 184.893C942.815 176.276 947.016 166.457 954.156 161.465C961.296 156.473 970.684 155.913 978.889 158.565C987.843 161.465 996.186 169.088 996.955 178.907C1004.39 173.624 1014.39 172.547 1022.67 176.131C1030.98 179.735 1037.35 187.897 1039.06 197.135C1051.92 202.501 1060.19 219.259 1056.09 233.137H822.366C812.09 233.137 801.242 232.516 791.124 233.241C790.059 222.822 795.956 209.005 804.95 204.013V204.033Z" fill="url(#paint2_linear_2674_3496)"/>
<path d="M502.302 119.481C491.829 120.393 482.914 127.519 474.65 134.375C467.787 123.024 458.319 113.412 447.314 106.576C459.444 117.803 468.22 132.987 472.086 149.497C478.141 135.038 491.001 123.935 505.675 120.455C501.927 120.517 498.18 120.6 494.433 120.662" fill="url(#paint3_linear_2674_3496)"/>
<path d="M230.792 66.0212C224.737 58.7711 215.073 55.0632 206 56.5132C216.493 59.7861 225.862 66.8291 232.212 76.192C236.926 65.9591 246.413 58.3154 257.044 56.1818C252.291 57.1347 247.34 54.5868 242.449 56.2232C237.656 57.8182 233.376 61.5054 230.792 66.0005V66.0212Z" fill="url(#paint4_linear_2674_3496)"/>
<path d="M390.726 9.77727C384.553 10.233 378.537 12.8016 373.784 16.9652C370.056 8.5344 361.437 3.95648 353.41 0C361.418 0.580008 370.194 1.53287 375.756 7.60224C376.368 8.28582 377.038 9.05226 377.926 9.1144C378.478 9.15583 378.991 8.90726 379.504 8.6794C385.756 5.90365 393.271 6.46294 399.089 10.1294C393.783 9.73584 388.419 10.0051 383.172 10.958" fill="url(#paint5_linear_2674_3496)"/>
<path d="M297.772 76.2503C301.302 75.8981 304.931 76.996 307.751 79.2331C307.909 79.3574 308.067 79.4817 308.264 79.5231C308.6 79.5853 308.895 79.3574 309.152 79.1503C311.854 77.0995 318.008 75.111 320.946 77.721C314.359 77.4103 310.67 81.1596 308.146 83.5832C305.148 80.2482 302.13 77.4724 297.772 76.2503Z" fill="url(#paint6_linear_2674_3496)"/>
<path d="M1238.85 176.48C1234.13 170.307 1227.05 166.682 1219.93 164.092C1210.29 160.571 1198.08 159.224 1191.2 167.158C1201.51 151.726 1208.12 128.815 1203.66 110.545C1199.18 92.2749 1170.86 51.1772 1141.65 71.5189C1122.42 84.9212 1109.66 108.805 1112.01 132.917C1106.31 129.748 1099.15 130.783 1093.43 133.911C1087.71 137.039 1083.11 141.99 1078.62 146.858C1082.62 136.687 1080.67 121.11 1074.44 112.264C1068.2 103.419 1051.54 87.6555 1028.38 95.8585C1024.26 97.3292 1020.67 100.126 1017.47 103.233C1003.61 116.697 995.405 136.355 995.385 156.179C986.135 153.673 976.056 158.582 970.06 166.412C964.064 174.222 961.579 184.434 960.81 194.439C937.695 189.219 912.311 208.131 909.352 232.761C900.595 234.17 892.233 238.54 886 245.169H1294.94C1296.6 240.55 1297.74 235.226 1297.66 230.296C1297.54 223.481 1293.97 217.101 1289.12 212.585C1284.27 208.069 1278.22 205.231 1272.08 202.994C1267.53 201.337 1262.79 199.991 1257.98 200.053C1249.79 200.177 1242.08 204.444 1235.99 210.182C1244.17 202.476 1245.53 185.242 1238.85 176.5V176.48Z" fill="url(#paint7_linear_2674_3496)"/>
</g>
<defs>
<linearGradient id="paint0_linear_2674_3496" x1="964.889" y1="57.9881" x2="964.889" y2="287.133" gradientUnits="userSpaceOnUse">
<stop stop-color="#9BD5C2"/>
<stop offset="1" stop-color="#3864AA"/>
</linearGradient>
<linearGradient id="paint1_linear_2674_3496" x1="135.576" y1="138.743" x2="136.062" y2="250.898" gradientUnits="userSpaceOnUse">
<stop offset="0.05" stop-color="#E9A96B"/>
<stop offset="0.08" stop-color="#E7A06D"/>
<stop offset="0.33" stop-color="#E06881"/>
<stop offset="0.45" stop-color="#DD5389"/>
<stop offset="1" stop-color="#563895" stop-opacity="0"/>
</linearGradient>
<linearGradient id="paint2_linear_2674_3496" x1="924.354" y1="158.834" x2="924.028" y2="233.842" gradientUnits="userSpaceOnUse">
<stop offset="0.05" stop-color="#E9A96B"/>
<stop offset="0.08" stop-color="#E7A06D"/>
<stop offset="0.33" stop-color="#E06881"/>
<stop offset="0.45" stop-color="#DD5389"/>
<stop offset="1" stop-color="#563895" stop-opacity="0"/>
</linearGradient>
<linearGradient id="paint3_linear_2674_3496" x1="505.675" y1="128.036" x2="447.314" y2="128.036" gradientUnits="userSpaceOnUse">
<stop stop-color="#E9A96B"/>
<stop offset="0.04" stop-color="#E7A06D"/>
<stop offset="0.32" stop-color="#E06881"/>
<stop offset="0.46" stop-color="#DD5389"/>
<stop offset="1" stop-color="#563895"/>
</linearGradient>
<linearGradient id="paint4_linear_2674_3496" x1="257.044" y1="65.9383" x2="206" y2="65.9383" gradientUnits="userSpaceOnUse">
<stop stop-color="#E9A96B"/>
<stop offset="0.04" stop-color="#E7A06D"/>
<stop offset="0.32" stop-color="#E06881"/>
<stop offset="0.46" stop-color="#DD5389"/>
<stop offset="1" stop-color="#563895"/>
</linearGradient>
<linearGradient id="paint5_linear_2674_3496" x1="399.089" y1="8.47225" x2="353.43" y2="8.47225" gradientUnits="userSpaceOnUse">
<stop stop-color="#E9A96B"/>
<stop offset="0.04" stop-color="#E7A06D"/>
<stop offset="0.32" stop-color="#E06881"/>
<stop offset="0.46" stop-color="#DD5389"/>
<stop offset="1" stop-color="#563895"/>
</linearGradient>
<linearGradient id="paint6_linear_2674_3496" x1="320.946" y1="79.896" x2="297.772" y2="79.896" gradientUnits="userSpaceOnUse">
<stop stop-color="#E9A96B"/>
<stop offset="0.04" stop-color="#E7A06D"/>
<stop offset="0.32" stop-color="#E06881"/>
<stop offset="0.46" stop-color="#DD5389"/>
<stop offset="1" stop-color="#563895"/>
</linearGradient>
<linearGradient id="paint7_linear_2674_3496" x1="1091.36" y1="114.46" x2="1091.95" y2="252.523" gradientUnits="userSpaceOnUse">
<stop stop-color="#E9A96B"/>
<stop offset="0.03" stop-color="#E7A06D"/>
<stop offset="0.23" stop-color="#E06881"/>
<stop offset="0.33" stop-color="#DD5389"/>
<stop offset="1" stop-color="#563895" stop-opacity="0"/>
</linearGradient>
</defs>
</svg>
