<svg width="408" height="336" viewBox="0 0 408 336" fill="none" xmlns="http://www.w3.org/2000/svg">
<path d="M357.77 317.308C353.908 314.774 349.384 313.187 345.97 310.058C338.651 303.358 337.605 290.797 329.176 285.64C318.614 279.161 305.341 288.88 293.114 287.535C285.837 286.742 279.607 282.07 273.205 278.39C266.803 274.71 258.972 271.933 252.293 275.04C245.913 278.015 242.115 285.772 235.286 287.337C230.037 288.549 224.83 285.662 219.603 284.34C207.845 281.343 194.466 287.161 188.363 297.937C170.076 294.896 165.68 264.837 147.371 261.95C142.037 261.113 136.126 262.832 131.474 260.033C127.249 257.499 125.627 252.143 124.347 247.273C120.997 234.447 117.647 221.622 114.297 208.796C110.498 194.251 106.124 178.737 94.8357 169.151C79.5786 156.149 55.4233 158.881 39.9315 171.641C24.4396 184.401 16.6083 204.829 14.0264 225.038C10.1427 219.572 0.0922852 221.754 -1.35874 228.343C-13.5644 225.677 -19.4325 205.579 -31.6169 208.355C-35.1591 209.171 -37.5063 211.573 -39 214.768L-23.0601 392.037C51.369 380.313 127.59 380.908 201.806 393.844C226.687 398.185 252.037 403.915 276.939 399.64C310.74 393.844 340.614 370.065 374.862 369.074C374.969 350.011 373.39 327.599 357.77 317.33V317.308Z" fill="#F9F0D4"/>
<path d="M-3.59925 261.049C-8.42177 250.427 -8.97658 237.8 -5.07161 226.781C-3.62059 222.704 -1.29471 218.517 2.63159 216.952C6.55789 215.388 12.0419 218.032 11.9139 222.396C8.4357 209.878 9.63064 196.039 15.1573 184.337C16.7577 180.965 19.0836 177.483 22.6258 176.712C26.1894 175.941 30.3504 179.974 28.5153 183.213C29.9023 176.558 31.3747 169.704 35.1517 164.151C38.9499 158.597 45.7143 154.587 52.0945 156.261C57.0024 157.54 60.6513 161.771 63.5533 166.068C72.1955 178.784 77.3807 193.989 78.341 209.482C84.4011 202.738 96.2868 206.661 100.832 214.572C105.377 222.484 104.758 232.356 104.011 241.524C107.916 235.882 116.345 235.023 122.128 238.549C127.911 242.075 131.197 248.929 132.2 255.782C133.181 262.636 132.2 269.622 131.175 276.497C136.574 275.616 142.335 277.445 146.304 281.301C149.057 272.663 157.614 266.382 166.427 266.536C175.24 266.691 183.583 273.258 186.058 281.985C188.768 276.96 196.898 276.607 199.992 281.39C200.334 270.547 203.94 259.837 210.149 251.088C212.262 248.135 215.015 245.204 218.557 244.852C222.099 244.521 225.897 248.378 224.318 251.683C223.358 244.279 230.912 237.734 238.124 238.262C245.337 238.769 251.397 244.609 254.448 251.375C257.521 258.14 258.161 265.765 258.759 273.214C262.6 268.498 270.474 272.2 273.376 277.599C276.278 282.998 276.811 289.654 280.482 294.524C284.152 299.394 291.044 292.607 294.821 294.193C300.689 295.097 299.195 304.771 304.359 306.931C309.502 309.09 315.221 309.465 320.491 311.316C332.804 315.636 341.062 327.293 348.53 338.312C304.359 339.171 260.253 343.601 216.743 351.534L7.85957 370.839C1.99146 336.042 10.847 293.025 -3.68462 261.049H-3.59925Z" fill="#219982"/>
<path d="M215.61 255.829C216.576 255.829 217.36 255.02 217.36 254.022C217.36 253.024 216.576 252.215 215.61 252.215C214.644 252.215 213.86 253.024 213.86 254.022C213.86 255.02 214.644 255.829 215.61 255.829Z" fill="#6FB2BA"/>
<path d="M224.721 263.165C225.499 263.165 226.129 262.514 226.129 261.71C226.129 260.907 225.499 260.256 224.721 260.256C223.943 260.256 223.312 260.907 223.312 261.71C223.312 262.514 223.943 263.165 224.721 263.165Z" fill="#6FB2BA"/>
<path d="M237.204 246.704C238.63 246.704 239.786 245.51 239.786 244.038C239.786 242.565 238.63 241.371 237.204 241.371C235.778 241.371 234.622 242.565 234.622 244.038C234.622 245.51 235.778 246.704 237.204 246.704Z" fill="#6FB2BA"/>
<path d="M243.416 251.708C244.323 251.708 245.059 250.948 245.059 250.011C245.059 249.074 244.323 248.314 243.416 248.314C242.508 248.314 241.772 249.074 241.772 250.011C241.772 250.948 242.508 251.708 243.416 251.708Z" fill="#6FB2BA"/>
<path d="M232.68 255.65C233.588 255.65 234.323 254.89 234.323 253.953C234.323 253.016 233.588 252.256 232.68 252.256C231.773 252.256 231.037 253.016 231.037 253.953C231.037 254.89 231.773 255.65 232.68 255.65Z" fill="#6FB2BA"/>
<path d="M240.107 261.756C240.755 261.756 241.281 261.213 241.281 260.544C241.281 259.875 240.755 259.332 240.107 259.332C239.459 259.332 238.934 259.875 238.934 260.544C238.934 261.213 239.459 261.756 240.107 261.756Z" fill="#6FB2BA"/>
<path d="M263.557 280.686C264.524 280.686 265.307 279.877 265.307 278.879C265.307 277.881 264.524 277.072 263.557 277.072C262.591 277.072 261.808 277.881 261.808 278.879C261.808 279.877 262.591 280.686 263.557 280.686Z" fill="#6FB2BA"/>
<path d="M269.042 283.311C270.397 283.311 271.496 282.176 271.496 280.776C271.496 279.377 270.397 278.242 269.042 278.242C267.687 278.242 266.588 279.377 266.588 280.776C266.588 282.176 267.687 283.311 269.042 283.311Z" fill="#6FB2BA"/>
<path d="M265.114 288.571C265.892 288.571 266.523 287.92 266.523 287.117C266.523 286.313 265.892 285.662 265.114 285.662C264.337 285.662 263.706 286.313 263.706 287.117C263.706 287.92 264.337 288.571 265.114 288.571Z" fill="#6FB2BA"/>
<path d="M51.8807 201.725C52.5289 201.725 53.0543 201.182 53.0543 200.513C53.0543 199.843 52.5289 199.301 51.8807 199.301C51.2325 199.301 50.707 199.843 50.707 200.513C50.707 201.182 51.2325 201.725 51.8807 201.725Z" fill="#6FB2BA"/>
<path d="M63.7219 198.156C64.8886 198.156 65.8344 197.18 65.8344 195.975C65.8344 194.77 64.8886 193.793 63.7219 193.793C62.5552 193.793 61.6094 194.77 61.6094 195.975C61.6094 197.18 62.5552 198.156 63.7219 198.156Z" fill="#6FB2BA"/>
<path d="M70.4012 198.664C71.7565 198.664 72.8551 197.53 72.8551 196.13C72.8551 194.73 71.7565 193.596 70.4012 193.596C69.0459 193.596 67.9473 194.73 67.9473 196.13C67.9473 197.53 69.0459 198.664 70.4012 198.664Z" fill="#6FB2BA"/>
<path d="M58.5142 207.828C59.7398 207.828 60.7334 206.802 60.7334 205.536C60.7334 204.27 59.7398 203.244 58.5142 203.244C57.2885 203.244 56.2949 204.27 56.2949 205.536C56.2949 206.802 57.2885 207.828 58.5142 207.828Z" fill="#6FB2BA"/>
<path d="M61.3526 214.857C62.0597 214.857 62.6329 214.265 62.6329 213.535C62.6329 212.805 62.0597 212.213 61.3526 212.213C60.6455 212.213 60.0723 212.805 60.0723 213.535C60.0723 214.265 60.6455 214.857 61.3526 214.857Z" fill="#6FB2BA"/>
<path d="M71.9768 215.326C73.5324 215.326 74.7935 214.023 74.7935 212.417C74.7935 210.81 73.5324 209.508 71.9768 209.508C70.4212 209.508 69.1602 210.81 69.1602 212.417C69.1602 214.023 70.4212 215.326 71.9768 215.326Z" fill="#6FB2BA"/>
<path d="M95.7314 219.729C97.1573 219.729 98.3133 218.536 98.3133 217.063C98.3133 215.59 97.1573 214.396 95.7314 214.396C94.3054 214.396 93.1494 215.59 93.1494 217.063C93.1494 218.536 94.3054 219.729 95.7314 219.729Z" fill="#6FB2BA"/>
<path d="M86.8109 225.571C87.6477 225.571 88.3259 224.87 88.3259 224.006C88.3259 223.142 87.6477 222.441 86.8109 222.441C85.9742 222.441 85.2959 223.142 85.2959 224.006C85.2959 224.87 85.9742 225.571 86.8109 225.571Z" fill="#6FB2BA"/>
<path d="M86.4708 231.936C87.1779 231.936 87.7511 231.343 87.7511 230.613C87.7511 229.883 87.1779 229.291 86.4708 229.291C85.7637 229.291 85.1904 229.883 85.1904 230.613C85.1904 231.343 85.7637 231.936 86.4708 231.936Z" fill="#6FB2BA"/>
<path d="M95.6651 230.2C96.7611 230.2 97.6496 229.283 97.6496 228.151C97.6496 227.019 96.7611 226.102 95.6651 226.102C94.5691 226.102 93.6807 227.019 93.6807 228.151C93.6807 229.283 94.5691 230.2 95.6651 230.2Z" fill="#6FB2BA"/>
<path d="M95.9006 235.531C96.9966 235.531 97.885 234.613 97.885 233.481C97.885 232.349 96.9966 231.432 95.9006 231.432C94.8046 231.432 93.916 232.349 93.916 233.481C93.916 234.613 94.8046 235.531 95.9006 235.531Z" fill="#6FB2BA"/>
<path d="M93.5958 243.796C94.6918 243.796 95.5803 242.879 95.5803 241.747C95.5803 240.615 94.6918 239.697 93.5958 239.697C92.4998 239.697 91.6113 240.615 91.6113 241.747C91.6113 242.879 92.4998 243.796 93.5958 243.796Z" fill="#6FB2BA"/>
<path d="M119.222 248.136C120.189 248.136 120.972 247.327 120.972 246.329C120.972 245.331 120.189 244.521 119.222 244.521C118.256 244.521 117.473 245.331 117.473 246.329C117.473 247.327 118.256 248.136 119.222 248.136Z" fill="#6FB2BA"/>
<path d="M118.432 256.509C119.47 256.509 120.31 255.641 120.31 254.57C120.31 253.499 119.47 252.631 118.432 252.631C117.395 252.631 116.555 253.499 116.555 254.57C116.555 255.641 117.395 256.509 118.432 256.509Z" fill="#6FB2BA"/>
<path d="M116.406 262.55C117.313 262.55 118.049 261.79 118.049 260.853C118.049 259.916 117.313 259.156 116.406 259.156C115.498 259.156 114.763 259.916 114.763 260.853C114.763 261.79 115.498 262.55 116.406 262.55Z" fill="#6FB2BA"/>
<path d="M127.695 259.992C129.439 259.992 130.853 258.532 130.853 256.73C130.853 254.929 129.439 253.469 127.695 253.469C125.951 253.469 124.537 254.929 124.537 256.73C124.537 258.532 125.951 259.992 127.695 259.992Z" fill="#6FB2BA"/>
<path d="M121.656 270.901C123.141 270.901 124.345 269.658 124.345 268.124C124.345 266.591 123.141 265.348 121.656 265.348C120.171 265.348 118.968 266.591 118.968 268.124C118.968 269.658 120.171 270.901 121.656 270.901Z" fill="#6FB2BA"/>
<path d="M125.839 279.272C127.265 279.272 128.421 278.079 128.421 276.606C128.421 275.133 127.265 273.939 125.839 273.939C124.413 273.939 123.257 275.133 123.257 276.606C123.257 278.079 124.413 279.272 125.839 279.272Z" fill="#6FB2BA"/>
<path d="M285.941 302.767C286.848 302.767 287.584 302.007 287.584 301.07C287.584 300.133 286.848 299.373 285.941 299.373C285.034 299.373 284.298 300.133 284.298 301.07C284.298 302.007 285.034 302.767 285.941 302.767Z" fill="#6FB2BA"/>
<path d="M293.921 306.844C295.147 306.844 296.141 305.817 296.141 304.552C296.141 303.286 295.147 302.26 293.921 302.26C292.696 302.26 291.702 303.286 291.702 304.552C291.702 305.817 292.696 306.844 293.921 306.844Z" fill="#6FB2BA"/>
<path d="M17.0543 193.131C18.3506 193.131 19.4016 192.046 19.4016 190.707C19.4016 189.368 18.3506 188.283 17.0543 188.283C15.7579 188.283 14.707 189.368 14.707 190.707C14.707 192.046 15.7579 193.131 17.0543 193.131Z" fill="#6FB2BA"/>
<path d="M15.3471 198.157C16.1839 198.157 16.8621 197.456 16.8621 196.592C16.8621 195.728 16.1839 195.027 15.3471 195.027C14.5104 195.027 13.832 195.728 13.832 196.592C13.832 197.456 14.5104 198.157 15.3471 198.157Z" fill="#6FB2BA"/>
<path d="M26.4022 196.153C27.0504 196.153 27.5758 195.61 27.5758 194.941C27.5758 194.271 27.0504 193.729 26.4022 193.729C25.754 193.729 25.2285 194.271 25.2285 194.941C25.2285 195.61 25.754 196.153 26.4022 196.153Z" fill="#6FB2BA"/>
<path d="M21.9211 204.346C23.406 204.346 24.6098 203.103 24.6098 201.57C24.6098 200.036 23.406 198.793 21.9211 198.793C20.4362 198.793 19.2324 200.036 19.2324 201.57C19.2324 203.103 20.4362 204.346 21.9211 204.346Z" fill="#6FB2BA"/>
<path d="M19.1887 211.443C20.3554 211.443 21.3012 210.467 21.3012 209.262C21.3012 208.057 20.3554 207.08 19.1887 207.08C18.022 207.08 17.0762 208.057 17.0762 209.262C17.0762 210.467 18.022 211.443 19.1887 211.443Z" fill="#6FB2BA"/>
<path d="M31.3731 250.011C31.5652 241.438 31.9919 232.866 32.44 224.315C32.5894 221.164 32.7602 218.013 32.8882 214.861C30.4343 215.699 28.151 217.153 26.3372 219.048C22.3042 223.235 20.3411 229.142 19.6582 234.981C19.1248 234.673 18.5487 234.453 17.9512 234.298C17.9512 239.94 17.9511 245.559 18.1645 251.179C18.6126 263.079 19.957 274.935 21.28 286.769C24.8435 286.946 28.4284 287.166 31.9919 287.386C31.9493 274.935 31.0957 262.484 31.3731 250.033V250.011Z" fill="#175672"/>
<path d="M74.0288 263.809C75.2877 256.14 76.8241 248.294 79.5127 240.934C79.214 240.779 78.9366 240.647 78.6165 240.537C74.1568 238.796 68.6727 240.537 65.92 244.57C66.4108 241.176 65.9201 237.584 64.469 234.543C64.4264 234.763 64.3837 235.006 64.341 235.226C62.954 242.631 61.9084 250.079 61.2469 257.594C60.2867 268.172 59.9453 278.838 60.1373 289.482C63.6795 289.791 67.2004 290.121 70.7426 290.452C71.2547 281.505 72.5991 272.579 74.0288 263.809Z" fill="#175672"/>
<path d="M99.2089 293.56C106.485 294.441 113.762 295.389 121.017 296.425C119.374 285.935 113.42 276.811 107.595 268.062C107.36 267.732 107.147 267.379 106.912 267.049C105.354 271.611 103.861 276.194 102.495 280.822C101.257 285.009 100.148 289.262 99.1875 293.56H99.2089Z" fill="#175672"/>
<path d="M102.452 277.758C103.647 273.857 104.884 269.956 106.229 266.1C105.333 264.888 104.33 263.786 103.092 262.993C102.985 262.926 102.879 262.883 102.751 262.816C99.8059 272.777 97.3093 282.892 95.8369 293.162C96.6478 293.25 97.4586 293.36 98.2481 293.47C99.4217 288.159 100.851 282.936 102.409 277.78L102.452 277.758Z" fill="#175672"/>
<path d="M94.8998 252.522C94.8998 252.522 94.7504 252.302 94.6864 252.214C92.4245 249.217 87.0259 248.754 85.5535 252.214C85.8949 249.04 84.7426 245.823 82.6941 243.465C80.1762 250.759 79.6427 259.155 78.2344 266.45C76.6767 274.515 75.439 282.669 74.7988 290.845C78.4691 291.22 82.1393 291.595 85.8096 292.013C87.602 278.526 90.2907 265.194 94.8785 252.522H94.8998Z" fill="#175672"/>
<path d="M96.8403 263.1C96.9257 259.861 96.947 256.379 95.5387 253.58C91.1216 265.965 88.5183 278.967 86.7686 292.123C89.4999 292.432 92.2312 292.74 94.9626 293.049C96.4349 282.691 98.9529 272.488 101.94 262.439C100.212 261.8 98.206 261.888 96.8617 263.122L96.8403 263.1Z" fill="#175672"/>
<path d="M77.5113 265.397C78.9623 258.125 79.4744 249.927 82.0137 242.743C81.5016 242.236 80.9255 241.795 80.328 241.398C77.5113 249.112 75.9749 257.42 74.7373 265.441C73.457 273.727 72.2193 282.123 71.7285 290.542C72.454 290.608 73.1795 290.696 73.905 290.762C74.5452 282.256 75.8682 273.771 77.5326 265.397H77.5113Z" fill="#175672"/>
<path d="M60.4157 256.491C61.1626 248.734 62.1655 240.932 63.7872 233.307C63.1684 232.316 62.4642 231.39 61.6107 230.597C61.1199 230.134 60.5865 229.737 60.0103 229.385C58.5593 237.561 58.1752 246.023 57.535 254.221C56.6601 265.636 54.2916 277.581 55.5506 289.106C56.7669 289.216 57.9831 289.304 59.1781 289.415C58.9647 278.418 59.3488 267.399 60.3944 256.513L60.4157 256.491Z" fill="#175672"/>
<path d="M56.5529 254.728C57.2144 246.2 57.5985 237.363 59.1349 228.834C58.4734 228.482 57.7692 228.195 57.0437 227.975C55.4433 235.842 54.5898 243.886 53.7362 251.863C52.4346 263.94 50.4927 276.589 51.9651 288.754C52.8399 288.82 53.7362 288.908 54.6111 288.974C53.4375 277.647 55.6567 265.967 56.5316 254.706L56.5529 254.728Z" fill="#175672"/>
<path d="M52.8207 251.709C53.6742 243.709 54.5278 235.643 56.1495 227.754C53.3115 227.159 50.3027 227.6 47.9981 229.363C50.6014 224.118 47.3367 217.088 42.0233 214.906C40.6363 214.333 39.1853 214.069 37.7129 214.047C37.2221 217.793 36.6246 221.517 36.2405 225.22C35.3443 234.057 34.6188 242.916 34.4267 251.797C34.1707 263.741 34.9603 275.641 35.4724 287.563C40.6577 287.894 45.843 288.291 51.0282 288.687C49.5772 276.479 51.5403 263.785 52.842 251.687L52.8207 251.709Z" fill="#175672"/>
<path d="M33.4657 251.905C33.6791 243.575 34.2765 235.266 35.1087 226.98C35.5355 222.727 36.2397 218.408 36.8159 214.066C35.8129 214.11 34.81 214.287 33.8071 214.551C33.6791 217.218 33.5723 219.906 33.4443 222.573C32.9962 231.674 32.4841 240.798 32.292 249.899C32.036 262.394 32.8895 274.89 32.9109 287.385C33.423 287.407 33.9565 287.451 34.4686 287.495C33.9351 275.617 33.1456 263.761 33.4443 251.883L33.4657 251.905Z" fill="#175672"/>
<path d="M20.3198 286.685C18.9541 274.586 17.5671 262.466 17.183 250.301C17.0123 244.924 17.0123 239.525 17.0123 234.104C15.6893 233.927 14.3236 234.082 13.0859 234.567C14.9211 251.822 15.4119 269.231 16.9696 286.509C18.1005 286.553 19.2102 286.641 20.3411 286.685H20.3198Z" fill="#175672"/>
<path d="M12.1692 234.982C11.8064 235.181 11.4651 235.401 11.145 235.644C8.75506 237.539 7.60274 240.91 8.30692 243.93C5.02077 240.756 -0.996735 241.505 -3.45067 245.406C-5.32847 248.381 -5.07238 252.216 -4.7523 255.764C-3.85608 265.769 -2.95985 275.751 -2.08497 285.756C3.95385 285.933 9.97136 286.197 16.0102 286.462C14.4738 269.339 13.983 252.083 12.1692 234.982Z" fill="#175672"/>
<path d="M165.832 287.978C165.278 287.934 164.723 287.934 164.168 288C166.238 295.647 167.667 303.448 168.734 311.315C168.03 303.492 167.113 295.713 165.832 287.956V287.978Z" fill="#175672"/>
<path d="M199.226 326.457C199.226 318.832 199.205 311.229 199.056 303.604C196.773 302.7 194.105 302.833 192.185 304.441C192.761 299.417 190.222 294.15 185.997 291.594C185.25 291.131 184.439 290.778 183.628 290.514C184.396 299.769 184.311 309.091 184.311 318.391C184.311 322.909 184.481 327.448 184.631 331.988C186.359 332.869 188.13 333.641 189.987 334.236C192.996 335.228 196.047 335.734 199.141 335.955C199.141 332.759 199.205 329.586 199.205 326.457H199.226Z" fill="#175672"/>
<path d="M211.752 308.054C211.304 307.789 210.834 307.547 210.365 307.327C207.954 306.203 204.241 306.555 203.771 309.244C203.494 306.952 201.957 305.123 200.016 304.043C200.144 311.492 200.165 318.918 200.165 326.367C200.165 329.54 200.122 332.758 200.101 336.019C204.475 336.24 208.914 335.843 213.331 335.248C212.691 326.191 212.2 317.133 211.752 308.076V308.054Z" fill="#175672"/>
<path d="M217.791 310.147C217.791 310.147 217.705 310.147 217.662 310.147C215.891 310.324 214.291 309.486 212.712 308.561C213.16 317.398 213.629 326.235 214.248 335.049C216.169 334.763 218.089 334.455 220.01 334.124C219.37 326.102 218.516 318.103 217.769 310.103L217.791 310.147Z" fill="#175672"/>
<path d="M227.905 294.785C227.691 294.939 227.499 295.094 227.328 295.292C225.195 297.518 224.618 300.801 223.637 303.776C223.637 303.821 223.594 303.865 223.594 303.931C223.082 313.803 223.082 323.72 223.466 333.593C223.872 333.527 224.277 333.461 224.661 333.395C225.771 333.196 226.902 333.042 228.011 332.844C227.606 320.172 227.627 307.479 227.905 294.785Z" fill="#175672"/>
<path d="M266.699 315.748C267.147 309.49 267.381 303.011 268.214 296.686C265.29 295.21 261.556 295.628 259.081 297.81C258.313 295.011 256.584 292.565 254.322 290.824C251.506 303.738 250.289 316.938 249.457 330.205C254.898 329.72 260.361 329.368 265.824 329.147C266.101 324.674 266.379 320.222 266.699 315.771V315.748Z" fill="#175672"/>
<path d="M277.219 315.195C277.453 311.779 277.624 308.231 278.008 304.727C276.173 304.286 274.231 304.55 272.759 305.829C273.292 302.545 271.756 299.019 269.067 297.168C268.235 303.691 268 310.39 267.552 316.825C267.275 320.902 267.019 325.001 266.763 329.078C269.963 328.968 273.164 328.88 276.365 328.858C276.664 324.296 276.92 319.734 277.219 315.172V315.195Z" fill="#175672"/>
<path d="M282.105 307.304C281.273 306.268 280.142 305.475 278.883 305.012C278.457 308.956 278.307 312.923 278.03 316.736C277.752 320.768 277.496 324.823 277.24 328.856C278.158 328.856 279.097 328.856 280.014 328.856C280.185 321.628 280.868 314.4 282.105 307.282V307.304Z" fill="#175672"/>
<path d="M286.737 310.808C285.649 310.808 284.56 310.874 283.472 311.095C283.472 310.147 283.259 309.287 282.853 308.494C281.744 315.238 281.125 322.069 280.954 328.901C281.637 328.901 282.341 328.901 283.024 328.923C283.941 322.818 285.158 316.758 286.715 310.808H286.737Z" fill="#175672"/>
<path d="M298.601 315.483C295.486 312.861 291.645 311.142 287.697 310.855C286.118 316.784 284.902 322.844 283.984 328.926C286.822 328.97 289.639 329.058 292.477 329.169C294.291 324.497 296.318 319.935 298.601 315.483Z" fill="#175672"/>
<path d="M293.456 329.187C297.596 329.364 301.735 329.606 305.854 329.959C305.768 324.604 303.165 319.645 299.324 316.119C297.148 320.372 295.227 324.736 293.456 329.209V329.187Z" fill="#175672"/>
<path d="M247.941 309.994C247.707 316.759 247.941 323.525 248.197 330.29C248.304 330.29 248.389 330.29 248.496 330.268C249.35 316.781 250.587 303.339 253.468 290.226C251.996 289.257 250.353 288.574 248.646 288.287C247.963 295.515 248.176 302.92 247.941 310.016V309.994Z" fill="#175672"/>
<path d="M243.566 313.964C243.139 305.611 242.478 297.171 242.776 288.797C239.341 289.987 236.332 292.631 234.86 296.069C234.134 293.689 231.125 293.226 228.864 294.262C228.565 307.088 228.543 319.914 228.949 332.717C234.22 331.902 239.511 331.219 244.825 330.668C244.27 325.092 243.843 319.539 243.566 313.964Z" fill="#175672"/>
<path d="M247.56 288.134C246.258 288.046 244.935 288.178 243.676 288.509C243.271 297.588 243.975 306.8 244.636 315.747C244.999 320.683 245.404 325.62 245.874 330.534C246.322 330.49 246.77 330.446 247.218 330.402C247.218 330.159 247.218 329.939 247.197 329.696C246.919 322.424 246.898 315.218 247.069 307.968C247.218 301.489 247.112 294.745 247.73 288.156C247.666 288.156 247.602 288.156 247.538 288.156L247.56 288.134Z" fill="#175672"/>
<path d="M222.528 333.749C222.165 324.603 222.122 315.458 222.528 306.312C221.61 307.965 220.351 309.398 218.729 309.949C219.455 317.97 220.33 325.992 220.97 334.013C221.482 333.925 222.016 333.837 222.528 333.749Z" fill="#175672"/>
<path d="M182.457 330.774C181.859 317.133 180.75 303.536 180.152 289.894C177.314 289.784 174.433 290.6 172.15 292.318C171.297 290.005 169.163 288.572 166.815 288.109C168.715 299.591 169.803 311.182 170.592 322.818C174.519 325.595 178.381 328.438 182.478 330.774H182.457Z" fill="#175672"/>
<path d="M181.109 289.963C181.707 303.758 182.838 317.532 183.435 331.305C183.542 331.349 183.627 331.415 183.734 331.481C183.563 326.831 183.393 322.182 183.414 317.554C183.414 308.452 183.499 299.307 182.71 290.249C182.198 290.117 181.664 290.029 181.131 289.985L181.109 289.963Z" fill="#175672"/>
<path d="M163.249 288.176C162.481 288.352 161.755 288.639 161.073 289.057C157.296 291.349 155.525 296.153 155.631 300.671C154.18 297.387 148.782 298.247 147.373 301.53C145.965 304.836 147.736 308.781 150.403 311.117C153.071 313.431 156.485 314.599 159.643 316.097C162.929 317.662 166.023 319.645 169.053 321.739C167.858 310.39 166.215 299.128 163.249 288.176Z" fill="#175672"/>
<path d="M408 344.194C349.042 321.473 281.271 312.283 214.737 319.159C205.092 320.151 195.169 321.473 185.866 319.71C174.94 317.661 166.191 311.644 157.592 306.047C107.169 273.233 45.4363 248.507 -19.3477 241.83L-6.58715 383.905L408 344.15V344.194Z" fill="#EBA987"/>
<path d="M361.952 348.602C307.581 324.933 248.9 314.51 189.301 329.121C130.257 291.657 52.8623 271.383 -14.7598 293.001L-6.58704 383.927L361.952 348.602Z" fill="#D85B26"/>
<path d="M167.341 316.074C145.063 298.819 118.881 286.941 91.4819 281.74C88.3238 276.341 82.413 273.41 76.7369 271.074C56.0385 262.589 33.825 258.072 11.5688 257.829C8.92282 257.807 5.80738 258.094 4.69778 260.782C4.18565 262.06 4.33505 263.493 4.93253 264.727C6.04214 267.041 8.1973 268.363 10.2885 269.597C26.6552 279.36 44.0462 289.321 62.9308 289.321C69.2471 289.321 75.6273 288.197 81.8368 289.387C86.4886 290.29 90.7991 292.45 95.0241 294.676C107.4 301.243 119.414 308.647 132.324 314.024C142.929 318.454 154.345 321.473 165.719 321.275C168.408 321.231 169.517 317.705 167.362 316.052L167.341 316.074Z" fill="#8D182C"/>
<path d="M207.823 335.798C224.553 334.961 241.218 333.154 257.756 330.399C256.54 331.523 257.094 333.771 258.417 334.785C259.74 335.776 261.49 335.864 263.133 335.908C281.612 336.415 300.134 335.688 318.528 333.705C321.238 333.418 324.823 332.008 324.354 329.231C324.012 327.137 321.558 326.344 319.552 325.992C279.863 319.006 238.807 320.372 199.629 329.958C198.861 331.854 200.163 334.123 201.955 335.049C203.748 335.975 205.839 335.908 207.845 335.798H207.823Z" fill="#8D182C"/>
<path d="M59.0947 293.905C55.3604 293.288 51.4981 293.376 47.8066 294.192C46.3342 294.522 44.5631 295.337 44.5418 296.902C44.4991 298.511 46.2915 299.37 47.8066 299.767C55.083 301.662 62.8076 301.64 70.0627 299.679C70.7669 299.48 71.6204 299.062 71.5777 298.313C71.5351 297.673 70.8309 297.321 70.2335 297.122C67.7368 296.307 61.6767 294.324 59.0947 293.883V293.905Z" fill="#EBA987"/>
<path d="M79.3878 296.813C77.1686 295.932 74.7573 295.579 72.3887 295.844C71.7699 295.91 71.0231 296.108 70.8097 296.725C70.511 297.585 71.4712 298.312 72.2821 298.62C75.0347 299.722 78.0648 300.075 80.9882 299.656C81.6497 299.568 82.5032 299.149 82.3752 298.488C82.2898 298.025 81.799 297.805 81.3723 297.651C79.8999 297.144 80.8388 297.408 79.3878 296.835V296.813Z" fill="#EBA987"/>
<path d="M93.2349 303.671C96.521 306.998 100.981 309.048 105.569 309.356C106.465 309.423 107.51 309.334 107.98 308.563C108.641 307.505 107.724 306.183 106.806 305.346C102.539 301.511 97.0118 299.197 91.3571 298.889C90.845 300.608 91.9973 302.393 93.2349 303.649V303.671Z" fill="#EBA987"/>
<path d="M179.826 267.102C181.341 266.198 182.856 265.162 183.816 263.642C184.777 262.121 185.054 260.006 184.073 258.507C182.536 256.171 179.207 256.48 176.476 256.656C171.077 256.986 165.593 255.686 160.899 252.931C159.341 252.006 157.421 250.926 155.863 251.852C154.753 252.513 154.369 253.945 153.772 255.113C152.214 258.265 148.608 260.182 145.236 259.653C145.983 263.179 145.343 266.859 145.77 270.429C146.197 273.999 148.202 277.9 151.659 278.429C153.494 278.715 155.329 277.966 157.058 277.261C161.198 275.52 165.337 273.779 169.477 272.038C172.998 270.561 176.54 269.063 179.848 267.124L179.826 267.102Z" fill="#6FB2BA"/>
<path d="M178.099 264.48C179.614 263.577 181.129 262.541 182.089 261.021C183.049 259.5 183.327 257.384 182.345 255.886C180.809 253.55 177.48 253.858 174.748 254.035C169.35 254.365 163.866 253.065 159.171 250.31C157.614 249.385 155.693 248.305 154.135 249.231C153.026 249.892 152.642 251.324 152.044 252.492C150.487 255.643 146.88 257.561 143.509 257.032C144.256 260.558 143.615 264.238 144.042 267.808C144.448 271.378 146.475 275.279 149.932 275.808C151.767 276.094 153.602 275.345 155.33 274.64C159.47 272.899 163.61 271.158 167.749 269.417C171.27 267.94 174.813 266.442 178.12 264.502L178.099 264.48Z" fill="#092434"/>
<path d="M143.872 264.438C143.872 265.561 143.893 266.685 144.021 267.809C144.427 271.379 146.454 275.28 149.911 275.809C151.341 276.029 152.77 275.632 154.136 275.104C151.874 270.608 148.545 266.773 143.872 264.438Z" fill="#175672"/>
<path d="M174.642 257.473C176.114 256.526 177.352 255.314 178.397 253.947C177.202 253.859 175.922 253.947 174.749 254.013C169.35 254.344 163.866 253.044 159.171 250.289C157.614 249.363 155.693 248.284 154.135 249.209C153.431 249.628 153.026 250.355 152.663 251.126C159.833 256.548 167.728 262.365 174.642 257.473Z" fill="#175672"/>
<path d="M15.0288 125.672C10.2917 122.939 7.0269 125.782 2.67383 129.131C8.84068 145.858 15.1996 163.047 22.1773 179.729C24.2685 184.732 29.9019 187.046 34.7244 184.842C45.6284 179.883 55.1668 174.969 67.0311 169.967L59.5412 147.577C51.4539 150.089 41.8301 154.849 34.8311 159.719C29.155 150.486 25.3567 140.26 19.6593 131.027C18.4004 128.977 17.056 126.862 15.0288 125.694V125.672Z" fill="#EBA987"/>
<path d="M36.1968 165.073C24.7593 153.746 17.3121 139.091 9.7369 124.789C7.41099 125.384 5.23446 127.169 2.67383 129.108C8.84068 145.835 15.1996 163.024 22.1773 179.706C24.2685 184.709 29.9019 187.023 34.7244 184.819C45.6284 179.86 55.1668 174.946 67.0311 169.944L60.0319 148.986C51.7312 153.526 43.8359 158.991 36.1754 165.051L36.1968 165.073Z" fill="#F28953"/>
<path d="M19.6593 131.005C18.4004 128.955 17.056 126.839 15.0288 125.672C10.2917 122.939 7.0269 125.782 2.67383 129.131C6.62147 139.82 10.6331 150.706 14.8582 161.526C19.7874 157.824 24.9299 154.342 30.1579 151.191C26.7224 144.425 23.671 137.484 19.6807 131.027L19.6593 131.005Z" fill="white"/>
<path d="M5.98129 126.662C4.91436 127.389 3.82611 128.249 2.67383 129.13C6.62147 139.818 10.6331 150.705 14.8582 161.525C16.6079 160.203 18.4217 158.925 20.2142 157.669C15.1142 147.487 10.5264 137.02 5.98129 126.662Z" fill="#DAD2BF"/>
<path d="M66.3885 127.518L60.8832 140.476C54.2469 146.272 46.9063 151.385 38.627 155.638C43.3001 163.748 46.3729 176.551 51.8143 184.044C59.8802 180.077 75.6495 179.659 89.0288 170.513C98.1404 164.276 98.9085 148.608 107.465 137.06C93.8086 133.755 80.0025 131.066 66.3885 127.496V127.518Z" fill="#F2C345"/>
<path d="M66.3885 127.518L60.8832 140.476C54.2469 146.272 46.9063 151.385 38.627 155.638C43.3001 163.748 46.3729 176.551 51.8143 184.044C59.8802 180.077 75.6495 179.659 89.0288 170.513C98.1404 164.276 98.9085 148.608 107.465 137.06C93.8086 133.755 80.0025 131.066 66.3885 127.496V127.518Z" fill="#F2C345"/>
<path d="M60.9065 140.455C54.2702 146.25 46.9298 151.363 38.6504 155.616C42.2993 161.941 44.9666 171.131 48.5515 178.425C60.5652 173.489 72.28 168.618 84.7418 165.952C86.5982 154.999 90.6099 144.421 95.9872 134.372C86.1074 132.147 76.2063 130.031 66.3906 127.475L60.8852 140.433L60.9065 140.455Z" fill="#8D182C"/>
<path d="M143.443 259.129C148.073 257.52 152.704 255.911 157.334 254.302C153.749 241.256 150.165 228.21 146.58 215.164C144.04 205.952 141.416 196.521 136.017 188.741C128.378 177.723 111.99 157.096 111.99 157.096C111.99 157.096 99.6561 167.277 93.4893 172.346C100.254 183.651 112.438 190.416 119.906 201.237C131.749 218.426 123.811 218.558 143.486 259.129H143.443Z" fill="#EBA987"/>
<path d="M134.225 197.38C128.741 183.166 118.819 171.817 108.555 159.895C104.437 163.288 97.5871 168.93 93.4688 172.324C100.233 183.629 112.417 190.394 119.886 201.215C131.729 218.404 123.791 218.536 143.465 259.107C147.775 257.608 152.086 256.11 156.375 254.611C148.458 235.989 141.907 216.509 134.225 197.358V197.38Z" fill="#F28953"/>
<path d="M130.3 226.952C132.391 233.872 135.869 243.502 143.444 259.127C149.611 260.603 154.05 258.598 157.336 254.301C154.327 243.37 151.34 232.462 148.331 221.531C142.335 223.316 136.317 225.079 130.321 226.952H130.3Z" fill="white"/>
<path d="M110.07 137.704C97.5655 134.597 84.8904 132.063 72.3646 129.021C70.1881 131.335 68.1182 133.782 66.4111 136.47C63.6798 140.767 61.866 145.858 62.2714 150.971C62.9543 159.675 69.7826 166.617 77.1871 170.87C79.9611 172.479 82.8632 173.823 85.7865 175.124C92.8923 183.145 100.275 190.88 107.957 198.307C115.277 191.718 122.574 185.129 129.893 178.539C123.492 168.733 117.09 158.904 110.689 149.097C109.963 145.351 109.771 141.517 110.049 137.704H110.07Z" fill="#F2C345"/>
<path d="M103.412 153.99C100.937 149.869 100.937 142.663 101.556 135.655C91.8469 133.408 82.0738 131.358 72.386 129C70.2095 131.314 68.1396 133.76 66.4325 136.449C63.7012 140.746 61.8875 145.837 62.2929 150.949C62.4423 152.999 62.9544 154.938 63.7226 156.789C64.4908 157.759 65.3016 158.64 66.1979 159.412C71.9593 163.488 81.7323 162.563 83.9302 166.97C89.969 175.785 96.3066 184.71 102.964 193.349C104.607 195.002 106.272 196.655 107.958 198.263C112.673 194.032 117.368 189.779 122.084 185.526C115.917 175.036 109.601 164.546 103.391 153.946L103.412 153.99Z" fill="#8D182C"/>
<path d="M118.412 162.031C117.11 158.505 115.787 154.979 114.486 151.475C96.0277 153.371 77.0577 149.338 60.819 140.082C59.624 142.087 57.5329 142.616 56.3379 144.622C59.304 145.68 60.4349 148.5 62.0993 151.255C75.884 153.392 91.8666 157.337 105.203 161.524C109.535 162.891 114.443 164.301 118.412 162.053V162.031Z" fill="#092434"/>
<path d="M-2.36266 116.083C-4.47518 117.626 -7.03578 118.309 -9.40437 119.367C-14.9311 121.857 -19.4549 126.617 -21.7808 132.347C-22.5917 134.352 -23.1038 136.776 -22.0155 138.627C-20.3297 141.492 -16.0834 141.096 -13.3094 139.377C-10.5353 137.68 -8.20941 135.013 -5.07263 134.176C-0.932945 133.052 3.5908 135.41 7.68781 134.11C12.5743 132.545 14.2815 129.438 19.1893 128.005C17.589 123.422 16.3513 115.929 13.9827 111.72C13.2359 110.398 12.425 109.053 11.1234 108.326C8.71209 106.938 5.61802 108.194 3.54818 110.089C1.47833 111.984 -0.0794048 114.453 -2.3413 116.105L-2.36266 116.083Z" fill="#6FB2BA"/>
<path d="M-1.44471 119.013C-3.55723 120.556 -6.11784 121.239 -8.48642 122.297C-14.0131 124.787 -18.5369 129.547 -20.8628 135.276C-21.6736 137.282 -22.1858 139.706 -21.0975 141.557C-19.4118 144.422 -15.1654 144.025 -12.3914 142.306C-9.61734 140.609 -7.29146 137.943 -4.15469 137.106C-0.0149956 135.982 4.50881 138.34 8.60582 137.04C13.4924 135.475 15.1994 132.368 20.1073 130.935C18.5069 126.351 17.2693 118.859 14.9007 114.649C14.1538 113.327 13.343 111.983 12.0413 111.256C9.63004 109.867 6.53597 111.124 4.46613 113.019C2.39628 114.914 0.838545 117.382 -1.42335 119.035L-1.44471 119.013Z" fill="#092434"/>
<path d="M5.38403 131.883C-1.10291 129.723 -8.93415 132.323 -13.8634 137.436C-14.4182 138.891 -13.3726 140.742 -12.3697 142.306C-9.59569 140.609 -7.26977 137.943 -4.15433 137.105C-0.0146418 135.982 4.50916 138.34 8.60617 137.039C9.22499 136.841 9.77975 136.621 10.2919 136.4C9.09692 134.527 7.56056 132.918 5.38403 131.883Z" fill="#175672"/>
<path d="M16.714 118.991C16.1806 117.36 15.5831 115.861 14.9002 114.627C14.1534 113.305 13.3425 111.961 12.0409 111.233C10.2698 110.22 8.1359 110.616 6.30078 111.652C8.58401 116.038 12.5957 119.343 16.714 118.991Z" fill="#175672"/>
<path d="M58.7516 40.4059C57.834 39.282 57.706 37.5632 58.0261 36.1087C58.3248 34.6542 58.9863 33.354 59.4771 31.9657C60.3733 29.4754 60.736 26.6988 60.5227 23.9441C59.6478 23.2389 58.5808 24.3848 58.2394 25.4867C57.898 26.5885 57.5353 27.9989 56.5323 28.2413C55.7642 28.4176 54.9746 27.7345 54.6332 26.8971C54.2918 26.0597 54.2705 25.1121 54.2705 24.2085C54.2705 22.732 54.2705 21.2776 54.2705 19.8011C54.2705 19.162 54.2704 18.5009 54.0357 17.9279C53.801 17.3329 53.2675 16.848 52.7341 16.9362C52.2006 17.0243 51.8379 17.8618 52.222 18.3466C50.6856 17.7296 48.9145 19.2501 48.9998 21.0792C48.4237 21.0792 47.8476 21.0792 47.2928 21.1013L46.5672 23.7237C45.8417 26.1919 45.5643 28.8584 45.7564 31.4808C46.0765 36.2189 47.8475 40.7365 49.5759 45.122C52.478 43.8218 55.5081 42.808 58.5808 42.0808C58.3674 40.3619 58.1541 38.643 57.9407 36.9241L58.8156 40.384L58.7516 40.4059Z" fill="#EBA987"/>
<path d="M48.6347 46.2464C47.7385 43.8003 46.9917 41.3101 46.3516 38.7978C50.3632 36.0211 54.9297 34.0818 59.6882 33.1562C60.0723 36.572 60.9045 39.9438 62.1208 43.1392C57.4689 43.0731 52.7958 44.1529 48.6134 46.2684L48.6347 46.2464Z" fill="#C52147"/>
<path d="M94.662 77.6492C89.2206 71.8754 76.8016 70.3768 73.238 64.0962C68.4582 55.6779 64.9586 46.7307 61.5871 36.9902C55.719 38.6871 52.2622 40.7807 47.1836 44.4389C50.7045 54.8405 53.2651 65.6829 58.7064 75.181C65.6628 87.3677 82.2856 94.1552 92.016 104.116C98.0122 97.1082 102.493 88.712 105.033 79.7428L94.662 77.6271V77.6492Z" fill="#D85B26"/>
<path d="M48.0158 43.8457C47.7384 44.044 47.461 44.2424 47.1836 44.4407C50.7045 54.8423 53.2651 65.6847 58.7064 75.1828C65.6628 87.3695 82.2856 94.157 92.016 104.118C94.598 101.099 96.8598 97.8371 98.8443 94.3773C74.6037 85.5623 53.5425 70.6211 48.0158 43.8457Z" fill="#AF5926"/>
<path d="M94.6657 77.6492C89.2243 71.8754 76.8053 70.3768 73.2417 64.0962C68.4619 55.6779 64.9623 46.7307 61.5908 36.9902C56.0642 38.5769 52.65 40.5603 48.0195 43.8439C53.5462 70.6193 74.6074 85.5605 98.848 94.3755C101.494 89.7917 103.585 84.8554 105.036 79.7428L94.6657 77.6492Z" fill="#D85B26"/>
<path d="M102.603 64.1855C101.473 70.1356 99.488 75.9094 96.7354 81.2424C103.82 81.4408 110.883 82.3883 117.775 84.0632C117.477 78.6199 117.967 73.1327 119.184 67.8437C113.465 68.3285 107.618 67.0284 102.603 64.1855Z" fill="#EBA987"/>
<path d="M106.596 66.0586C108.922 71.1051 113.04 75.0939 117.82 77.3417C118.012 74.1463 118.46 70.9729 119.185 67.8657C114.939 68.2183 110.607 67.6012 106.596 66.0807V66.0586Z" fill="#092434"/>
<path d="M119.887 82.5193C119.439 82.6515 118.97 82.4532 118.522 82.2769C110.392 78.9934 101.685 77.2744 92.958 77.2965C93.7689 75.247 94.5797 73.1976 95.4119 71.126C104.993 69.914 115.022 72.8449 122.576 79.0815C121.082 79.1917 121.36 82.1007 119.909 82.4974L119.887 82.5193Z" fill="#C52147"/>
<path d="M134.868 79.3025C117.413 79.1483 99.9793 76.4157 83.2498 71.2148C81.8628 96.5358 72.5165 121.306 56.918 140.897C78.0432 151.585 94.7513 155.75 118.16 158.086C118.096 125.449 137.087 106.783 134.847 79.3025H134.868Z" fill="#D85B26"/>
<path d="M170.864 116.283C169.712 116.591 168.517 116.283 167.343 116.106C163.332 115.489 159.128 116.437 155.714 118.707C155.714 116.327 153.431 114.343 153.644 111.963C153.708 111.302 153.964 110.685 154.284 110.112C155.906 107.115 158.915 105.154 162.094 104.228C163.844 103.699 165.679 103.479 167.514 103.523C167.919 104.052 167.663 104.889 167.151 105.33C166.639 105.771 165.956 105.903 165.316 106.035C164.676 106.19 163.993 106.388 163.545 106.873C163.097 107.358 163.033 108.283 163.588 108.68C163.951 108.944 164.463 108.878 164.911 108.834C168.154 108.548 171.227 110.244 174.065 111.875C174.3 112.007 174.534 112.162 174.62 112.404C174.748 112.757 174.492 113.131 174.278 113.418C173.339 114.63 172.315 115.886 170.864 116.283Z" fill="#EBA987"/>
<path d="M76.3366 149.735C71.9622 147.663 67.3317 145.328 64.9844 140.986C62.6585 136.689 63.1706 131.378 64.1735 126.552C66.9049 113.439 72.8157 101.253 79.452 89.7272C82.034 85.2536 85.1281 80.5377 89.9292 78.995C94.6878 77.4745 99.745 79.524 104.333 81.5073C110.478 84.1959 117.072 87.3031 120.145 93.4074C122.087 97.264 122.535 101.804 122.215 106.123C121.51 115.07 120.571 123.863 118.182 132.348C116.859 137.019 115.109 141.603 112.442 145.592C109.774 149.581 106.061 152.974 101.58 154.517C97.4191 155.95 92.8526 155.729 88.5849 154.627C84.3172 153.525 80.3055 151.63 76.3152 149.735H76.3366Z" fill="#092434"/>
<path d="M137.345 56.1187C138.198 56.1187 139.052 55.9424 139.841 55.5898C139.713 56.7358 138.561 57.6173 137.473 57.419C137.43 56.9782 137.387 56.5595 137.345 56.1187Z" fill="#092434"/>
<path d="M133.185 37.5878C128.854 32.5192 122.303 29.8748 115.773 29.2577C111.548 28.861 107.11 29.2797 103.461 31.5276C99.6412 33.8856 97.0592 38.0726 96.035 42.5462C94.3919 49.6643 96.5898 57.4876 101.22 63.019C105.851 68.5724 112.722 71.9 119.785 72.6713C124.33 73.1782 129.259 72.5611 132.801 69.586C135.149 67.6027 136.664 64.7819 137.581 61.7628C137.837 60.9254 137.581 58.303 137.731 57.4436C139.182 49.9288 138.136 43.3396 133.207 37.6099L133.185 37.5878Z" fill="#EBA987"/>
<path d="M97.6759 64.5616C100.365 67.8011 103.971 70.71 108.111 70.732C111.439 70.732 114.469 68.9028 117.307 67.0958C121.532 64.4293 126.184 61.1236 126.995 56.0771C133.759 56.2975 140.182 50.3475 140.673 43.3616C141.292 44.3533 142.956 44.0227 143.554 43.009C144.151 41.9953 143.981 40.6951 143.639 39.5491C141.292 31.5275 132.693 27.2302 124.648 26.0402C116.987 24.9163 108.815 25.8419 102.2 29.9849C95.5847 34.128 90.8262 41.841 91.2743 49.8186C91.5944 55.2838 94.2404 60.3965 97.6973 64.5395L97.6759 64.5616Z" fill="#092434"/>
<path d="M136.511 30.8242C131.795 26.9897 126.887 23.045 121.104 21.3701C115.322 19.6953 108.323 20.8192 104.631 25.7115C97.8454 25.447 92.2119 32.1685 91.4437 39.1543C90.6756 46.1181 93.6844 52.9717 97.504 58.7896L136.511 30.8242Z" fill="#092434"/>
<path d="M82.0117 85.5602C84.679 85.4059 87.3464 85.2517 90.0351 85.0975C90.1844 80.6019 91.102 76.1503 92.745 71.9852C89.7576 71.5004 86.7702 71.0376 83.7828 70.5527C83.2067 75.5552 82.6306 80.5577 82.0331 85.5602H82.0117Z" fill="#F2C345"/>
<path d="M123.108 78.0885C122.02 78.4852 121.06 79.1683 120.121 79.8515C116.685 82.2976 113.25 84.7657 109.814 87.2119C111.714 89.9886 113.613 92.7433 115.512 95.52C121.081 89.2173 127.291 83.4876 133.97 78.4631C130.321 78.6614 126.544 76.8324 123.108 78.0885Z" fill="#F2C345"/>
<path d="M128.913 122.939C123.493 127.876 117.305 131.909 110.648 134.818C109.943 137.198 109.218 139.578 108.514 141.98C113.848 138.41 119.162 134.862 124.496 131.292C126.523 129.947 128.593 128.537 129.916 126.465C131.239 124.394 130.364 124.923 128.935 122.939H128.913Z" fill="#F2C345"/>
<path d="M152.195 111.783C153.476 110.153 154.756 108.5 156.058 106.869C158.789 109.514 161.222 112.489 163.313 115.706C160.475 117.579 157.786 119.695 155.289 122.009L152.217 111.783H152.195Z" fill="#AF5926"/>
<path d="M153.155 109.073C148.887 112.885 146.754 113.282 142.486 117.117C141.696 106.34 138.538 99.024 137.237 88.2918C136.981 86.1101 136.682 83.8843 135.572 82.0111C135.487 81.8568 135.38 81.7246 135.273 81.5703C129.341 86.0219 125.138 92.2365 122.406 99.2664C124.241 111.916 127.826 124.301 133.033 135.937C137.813 138.669 143.467 139.022 148.589 137.457C152.515 130.736 156.441 124.036 160.368 117.315C157.956 114.582 155.566 111.828 153.155 109.095V109.073Z" fill="#D85B26"/>
<path d="M122.429 99.265C124.264 111.914 127.849 124.299 133.055 135.935C136.576 137.941 140.567 138.668 144.45 138.293C135.061 123.749 141.463 99.1107 129.876 86.6816C126.696 90.3398 124.242 94.6372 122.429 99.2871V99.265Z" fill="#AF5926"/>
<path d="M119.801 101.25C119.587 96.1813 118.905 90.8263 116.173 86.8155C112.503 81.4384 106.208 79.9179 100.447 78.7719C93.725 77.4277 86.3846 76.1935 80.5591 80.1162C76.5262 82.8268 73.8801 87.5869 71.5115 92.2809C67.5212 100.214 63.9577 108.434 60.8209 116.897C58.9645 121.921 57.236 127.651 58.9218 132.874C60.6715 138.251 65.4514 141.314 69.8471 143.914C75.95 147.506 82.1382 151.121 88.7958 152.619C95.4535 154.118 102.773 153.236 108.065 148.454C112.908 144.091 115.469 137.083 117.112 130.141C119.331 120.797 120.249 111.013 119.822 101.272L119.801 101.25Z" fill="#C52147"/>
<path d="M111.929 97.9879C111.758 93.8669 111.204 89.5034 108.963 86.2419C105.976 81.8565 100.833 80.6224 96.1386 79.6748C90.6546 78.5729 84.6798 77.5812 79.9213 80.7546C76.6351 82.9584 74.48 86.8369 72.5595 90.6714C69.316 97.1284 66.3926 103.828 63.8533 110.726C62.3383 114.824 60.93 119.496 62.2956 123.75C63.704 128.135 67.6089 130.647 71.1938 132.741C76.1657 135.672 81.2016 138.625 86.6429 139.837C92.0843 141.049 98.0378 140.344 102.348 136.443C106.296 132.873 108.366 127.165 109.71 121.524C111.524 113.921 112.271 105.943 111.929 97.9879Z" fill="#8D182C"/>
<path d="M62.0177 113.77C61.6123 114.805 61.2068 115.841 60.8014 116.899C58.9449 121.923 57.2165 127.653 58.9022 132.876C60.652 138.253 65.4319 141.316 69.8277 143.917C75.9305 147.509 82.1186 151.123 88.7763 152.621C95.4339 154.12 102.753 153.238 108.045 148.456C112.889 144.093 115.45 137.085 117.093 130.143C117.349 129.041 117.583 127.962 117.818 126.86C99.4029 121.637 80.9023 117.185 62.039 113.791L62.0177 113.77Z" fill="#175672"/>
<path d="M67.4158 115.666C66.605 115.996 66.0501 116.789 65.6661 117.583C64.023 120.977 64.6632 125.23 66.6263 128.425C68.6108 131.621 71.7689 133.868 75.119 135.411C80.1336 137.725 86.0231 138.562 91.0803 136.403C96.1589 134.243 99.9785 128.557 98.9969 122.982C89.4159 120.095 79.7068 117.649 69.9124 115.644C69.0802 115.467 68.184 115.313 67.3945 115.644L67.4158 115.666Z" fill="#6FB2BA"/>
<path d="M124.283 61.6305C124.155 59.8676 123.963 58.0605 123.088 56.5399C122.213 55.0414 120.442 53.9395 118.799 54.4244C117.135 54.9312 116.217 56.8044 115.833 58.5454C115.3 60.9915 115.385 63.5918 116.068 65.9939C116.644 67.9773 117.796 69.9827 119.695 70.6218C121.189 71.1287 122.875 70.6218 124.176 69.7182C125.478 68.8147 126.481 67.5146 127.484 66.2364L124.283 61.6085V61.6305Z" fill="#EBA987"/>
<path d="M114.426 126.131L113.53 125.844C116.155 116.721 116.816 106.936 115.408 97.5262C114.896 94.0663 113.935 89.7028 111.204 86.5735C109.433 84.5461 106.958 82.9594 103.885 81.8575C97.8674 79.6978 91.3165 78.5299 84.8936 78.4638V77.4941C91.4018 77.5603 98.0808 78.7723 104.184 80.954C107.427 82.122 110.009 83.7969 111.887 85.9345C114.789 89.2401 115.77 93.8017 116.325 97.3938C117.755 106.936 117.093 116.875 114.426 126.153V126.131Z" fill="white"/>
<path d="M119.46 63.4359C119.674 63.7224 120.037 63.8986 120.207 64.2072C120.485 64.67 120.207 65.3531 119.759 65.5955C119.29 65.8379 118.692 65.7279 118.265 65.4193C117.839 65.1108 117.54 64.6039 117.348 64.1191C116.75 62.6426 116.793 60.9016 117.476 59.4472C117.732 58.8742 118.116 58.3452 118.607 58.0147C119.098 57.6841 119.781 57.5519 120.335 57.7944C120.847 58.0147 121.21 58.5216 121.381 59.0505C121.552 59.5794 121.616 60.1745 121.658 60.7474C120.997 60.9017 120.293 61.078 119.78 61.5628C119.268 62.0256 119.034 62.907 119.46 63.458V63.4359Z" fill="#092434"/>
<path d="M118.608 22.7579C116.474 21.7663 114.063 21.3034 111.78 21.7662C109.497 22.2511 107.341 23.7717 106.424 25.9974C109.283 23.3089 114.767 22.2511 118.608 22.7579Z" fill="#175672"/>
<path d="M108.087 34.6098C108.023 35.337 107.959 36.0642 108.151 36.7694C108.343 37.4746 108.834 38.1137 109.495 38.29C110.392 38.5103 111.245 37.8272 112.056 37.3864C112.867 36.9236 114.126 36.7914 114.531 37.6509C114.723 38.0475 114.659 38.5324 114.894 38.885C115.257 39.458 116.11 39.3478 116.729 39.0613C117.327 38.7748 117.967 38.3561 118.628 38.4883C119.802 38.7527 120.293 40.692 121.509 40.5598C122.512 40.4496 122.811 38.9511 123.771 38.5985C124.475 38.3341 125.222 38.7968 125.862 39.1714C126.524 39.5461 127.42 39.8106 127.953 39.2596C128.679 38.4883 127.911 36.9017 128.722 36.1965C129.17 35.8218 129.852 35.976 130.365 36.2846C130.877 36.5931 131.303 37.0339 131.858 37.2322C132.413 37.4085 133.181 37.1881 133.267 36.5931C133.331 36.2405 133.139 35.8879 133.16 35.5133C133.203 34.8522 133.992 34.4775 134.611 34.6318C135.23 34.786 135.699 35.3149 136.083 35.8218C136.894 36.8796 137.62 38.0476 137.918 39.3478C138.217 40.648 138.068 42.1245 137.278 43.2043C137.769 42.411 137.193 41.1989 136.297 41.0006C135.401 40.8023 134.462 41.5295 134.248 42.4551C134.099 43.1162 134.248 43.8213 134.12 44.4825C133.971 45.1436 133.267 45.7827 132.712 45.4521C132.498 45.3199 132.37 45.0996 132.2 44.9453C131.581 44.3723 130.557 44.7028 130.002 45.2978C129.447 45.8928 129.127 46.7303 128.615 47.4135C128.103 48.0966 127.249 48.6255 126.481 48.317C125.499 47.9203 125.265 46.3998 124.262 46.0472C123.43 45.7607 122.597 46.4438 121.893 46.9727C121.189 47.5236 120.079 47.8983 119.503 47.1931C119.034 46.6201 119.29 45.6284 118.735 45.1436C117.903 44.3944 116.302 45.6725 115.598 44.791C115.172 44.2401 115.598 43.3365 115.214 42.7195C114.83 42.0804 113.87 42.2346 113.23 42.6093C112.59 42.9839 111.949 43.5128 111.224 43.3806C110.306 43.2043 109.858 42.0584 109.005 41.6837C108.215 41.3532 107.34 41.7278 106.551 42.0143C105.74 42.3008 104.716 42.389 104.182 41.7058C103.713 41.0888 103.819 39.9648 103.094 39.6783C102.432 39.4139 101.515 40.1411 101.024 39.5902C100.725 39.2596 100.875 38.7528 101.024 38.3341C101.643 36.7694 102.262 35.2268 102.88 33.6621C102.838 34.764 103.99 35.6014 105.057 35.6235C106.124 35.6455 107.127 35.0946 108.066 34.5437L108.087 34.6098Z" fill="#175672"/>
<path d="M135.315 32.4492C137.343 33.5952 139.05 35.3802 140.117 37.4958C140.415 38.0908 140.671 38.7079 140.693 39.369C140.693 40.0301 140.458 40.7353 139.903 41.0879C139.733 39.6334 139.562 38.1569 139.007 36.8126C138.452 35.4684 136.681 32.8459 135.315 32.4492Z" fill="#175672"/>
<path d="M101.749 33.5723C101.13 35.203 100.362 36.7456 99.4658 38.2221C99.103 36.988 99.5085 35.6438 100.255 34.608C100.981 33.5723 100.767 34.3215 101.77 33.5723H101.749Z" fill="#175672"/>
<path d="M100.982 30.73C99.5955 32.5151 98.5712 34.6086 97.9524 36.8124C96.8215 35.0935 97.2056 32.6693 98.4219 31.0165C99.6382 29.3637 101.495 28.3721 103.394 27.7109L100.982 30.73Z" fill="#175672"/>
<path d="M274.141 105.816C273.992 105.529 273.821 105.243 273.672 104.979L274.141 105.816Z" fill="#175672"/>
<path d="M177.051 113.284C176.133 112.689 175.429 111.807 174.768 110.882C174.192 110.066 173.551 109.273 172.911 108.501C172.591 108.171 172.271 107.84 171.93 107.51C170.372 107.862 168.857 108.413 167.406 109.118C167.128 109.251 166.83 109.427 166.616 109.647C166.403 109.868 166.254 110.22 166.339 110.551C166.424 110.948 166.83 111.19 167.214 111.234C167.598 111.278 167.982 111.168 168.366 111.036C168.43 111.036 168.494 110.992 168.558 110.97C168.153 111.212 167.769 111.454 167.406 111.719C167.022 112.005 166.616 112.468 166.83 112.909C167 113.262 167.491 113.306 167.875 113.284C169.561 113.173 171.225 112.799 172.804 112.226C171.972 112.755 171.183 113.35 170.457 114.011C170.03 114.407 169.604 114.936 169.753 115.509C169.881 115.972 170.372 116.237 170.82 116.259C171.289 116.259 171.716 116.06 172.143 115.862C173.807 115.046 175.45 114.077 177.179 113.438C177.136 113.372 177.094 113.328 177.051 113.261V113.284Z" fill="#F28953"/>
<path d="M175.941 113.044C176.133 114.697 175.407 116.438 174.084 117.385C173.572 117.76 172.889 118.135 172.825 118.796C172.761 119.523 173.508 120.052 174.212 120.096C175.343 120.162 176.346 119.369 177.178 118.553C178.01 117.76 178.843 116.856 179.952 116.592C180.528 116.46 181.275 116.438 181.531 115.887C181.681 115.556 181.595 115.182 181.467 114.829C180.998 113.551 180.144 112.449 179.056 111.678L175.941 113.022V113.044Z" fill="#F28953"/>
<path d="M173.722 104.624C172.655 104.778 171.546 104.8 170.479 104.932C168.174 105.241 165.934 106.189 164.077 107.643C164.248 108.348 165.016 108.767 165.72 108.767C166.424 108.767 167.107 108.502 167.79 108.304C168.473 108.106 169.241 108.018 169.86 108.37C170.351 108.657 170.671 109.164 171.14 109.45C171.78 109.869 172.591 109.825 173.295 110.133C174.618 110.728 175.152 112.315 175.6 113.725C176.048 115.136 176.688 116.722 178.075 117.141C178.673 117.317 179.313 117.251 179.91 117.141C182.13 116.7 184.242 115.621 185.907 114.056C185.053 113.241 184.733 112.05 184.349 110.927C183.965 109.803 183.431 108.635 182.386 108.106C181.724 107.775 180.977 107.753 180.273 107.643C178.993 107.423 177.798 106.784 176.859 105.858C176.347 105.351 175.856 104.712 175.152 104.536C174.704 104.426 174.234 104.536 173.765 104.58L173.722 104.624Z" fill="#EBA987"/>
<path d="M182.194 117.933C183.987 116.809 185.993 116.038 188.062 115.685C185.032 112.909 182.835 109.162 181.832 105.107C180.082 105.306 178.332 105.482 176.582 105.68C176.241 110.396 178.46 115.223 182.194 117.955V117.933Z" fill="#175672"/>
<path d="M243.864 83.9298C242.434 82.0567 240.023 81.3516 237.825 81.5499C235.627 81.7482 233.536 82.6957 231.509 83.6213C214.182 91.4886 196.386 98.0779 178.504 104.359C178.845 108.127 183.732 114.826 186.1 117.801C200.312 115.311 211.173 109.515 225.171 105.901C229.162 104.865 233.195 103.763 236.801 101.582C240.386 99.4001 243.544 96.0284 244.803 91.7311C245.571 89.1307 245.507 86.0013 243.885 83.9078L243.864 83.9298Z" fill="#175672"/>
<path d="M184.284 115.466C184.946 116.391 185.586 117.207 186.098 117.846C200.309 115.356 211.171 109.56 225.169 105.946C229.159 104.91 233.192 103.808 236.799 101.626C240.383 99.4446 243.542 96.0728 244.8 91.7755C245.099 90.7618 245.27 89.6599 245.27 88.5801C225.105 92.8774 205.367 105.483 187.037 114.827C186.055 115.267 185.18 115.444 184.327 115.466H184.284Z" fill="#092434"/>
<path d="M258.01 70.3984C255.557 76.4807 252.313 82.2326 248.387 87.4555C256.197 88.0505 263.985 89.3947 271.56 91.4442C270.856 85.0754 271.304 78.5743 272.819 72.3377C267.826 73.087 262.641 72.4038 257.989 70.3984H258.01Z" fill="#EBA987"/>
<path d="M263.879 72.1621C264.156 74.7405 264.988 77.1205 265.821 79.0378C267.229 81.3517 269.192 82.5857 271.326 82.9824C271.497 79.3903 271.988 75.8202 272.841 72.3383C269.875 72.7791 266.845 72.713 263.879 72.1621Z" fill="#092434"/>
<path d="M277.515 86.9946C267.699 87.0387 257.862 86.2012 248.195 84.5044C249.198 82.4769 250.201 80.4715 251.204 78.4441C260.614 77.2981 270.451 80.4936 277.536 87.0167L277.515 86.9946Z" fill="#C52147"/>
<path d="M243.778 150.769C252.74 152.268 261.617 152.598 270.281 151.1C270.644 150.395 271.028 149.711 271.39 149.028C281.91 129.195 286.754 106.188 285.154 83.6433C268.894 85.6707 252.25 84.3265 236.48 79.7207C236.438 100.788 230.719 121.812 220.178 139.839C228.158 143.21 235.051 149.315 243.757 150.747L243.778 150.769Z" fill="#8D182C"/>
<path d="M281.931 114.385C283.894 109.074 285.772 103.498 285.196 97.8348C284.641 92.1712 280.928 86.4635 275.487 85.582C271.966 89.108 270.131 94.1987 269.725 99.2452C269.32 104.314 270.195 109.382 271.432 114.297C272.094 116.919 273.374 120.004 275.977 120.335C277.45 120.511 278.922 119.652 279.882 118.484C280.843 117.316 281.398 115.839 281.931 114.385Z" fill="#092434"/>
<path d="M265.737 150.504L264.926 150.019C272.736 136.114 277.75 120.313 279.436 104.336L280.375 104.446C278.668 120.555 273.611 136.488 265.758 150.504H265.737Z" fill="#D85B26"/>
<path d="M263.495 133.886C262.834 139.703 261.468 145.676 257.883 150.215C254.192 154.909 248.43 157.576 242.583 158.215C236.758 158.854 230.847 157.62 225.32 155.57C220.818 153.895 216.252 151.471 213.84 147.196C211.002 142.216 211.706 135.891 213.371 130.36C216.486 119.936 222.546 110.702 229.161 102.174C231.722 98.8682 234.432 95.5846 237.868 93.2046C241.303 90.8245 245.528 89.4582 249.561 90.3397C253.637 91.2212 257.03 94.3285 259.142 98.0307C261.255 101.733 262.258 106.008 262.94 110.239C264.178 118.041 264.413 125.996 263.517 133.841L263.495 133.886Z" fill="#092434"/>
<path d="M282.378 204.098C277.108 207.624 271.389 210.422 265.414 212.362C270.386 223.16 275.379 233.98 281.717 243.985C288.076 253.968 295.864 263.18 305.531 269.725C307.921 267.389 310.631 265.384 313.575 263.819C304.442 243.258 294.008 223.292 282.378 204.098Z" fill="#EBA987"/>
<path d="M282.378 204.1C277.108 207.626 271.389 210.425 265.414 212.364C269.81 221.928 274.248 231.515 279.604 240.528C285.686 237.641 291.746 234.644 297.785 231.294C292.92 222.061 287.777 212.981 282.378 204.078V204.1Z" fill="#EBA987"/>
<path d="M265.414 212.361C269.81 221.925 274.248 231.512 279.604 240.525C282.805 239.004 286.006 237.462 289.207 235.831C285.856 225.892 281.866 216.24 276.211 207.777C272.755 209.606 269.127 211.149 265.414 212.361Z" fill="#F28953"/>
<path d="M297.786 231.314C291.747 234.664 285.687 237.661 279.605 240.548C280.288 241.716 280.992 242.862 281.718 243.986C288.056 253.969 295.865 263.18 305.532 269.726C307.922 267.39 310.632 265.384 313.576 263.82C308.669 252.801 303.398 241.958 297.786 231.314Z" fill="white"/>
<path d="M290.445 235.217C286.838 237.068 283.232 238.831 279.626 240.528C280.309 241.696 281.013 242.842 281.739 243.966C288.076 253.948 295.886 263.16 305.552 269.705C306.641 268.647 307.793 267.656 309.009 266.752C301.84 256.747 294.584 246.764 290.445 235.217Z" fill="#DAD2BF"/>
<path d="M200.354 166.197L193.376 172.522C170.33 174.153 147.669 181.183 127.504 192.796C128.848 197.028 130.086 201.303 131.174 205.622C156.119 197.689 182.045 193.127 208.121 192.113C203.96 184.092 201.314 175.233 200.354 166.197Z" fill="#EBA987"/>
<path d="M208.119 192.113C203.958 184.092 201.312 175.233 200.351 166.197L193.374 172.522C182.768 173.271 172.249 175.166 162.027 178.119C164.737 183.871 166.551 190.13 167.746 196.565C181.083 194.141 194.59 192.642 208.14 192.135L208.119 192.113Z" fill="#EBA987"/>
<path d="M193.374 172.519C182.768 173.269 172.249 175.164 162.027 178.117C163.372 180.982 164.481 183.935 165.42 186.998C172.846 186.293 181.168 185.522 188.85 187.681C194.249 188.386 198.9 184.949 203.936 182.304C202.144 177.103 200.949 171.704 200.351 166.217L193.374 172.542V172.519Z" fill="#F28953"/>
<path d="M162.029 178.119C149.888 181.623 138.13 186.626 127.141 192.994C128.357 197.226 129.488 201.523 130.576 205.842C142.761 201.942 155.18 198.834 167.748 196.564C166.553 190.129 164.739 183.893 162.029 178.119Z" fill="white"/>
<path d="M128.507 197.992C129.211 200.592 129.894 203.192 130.555 205.815C142.74 201.914 155.159 198.807 167.727 196.537C166.98 192.504 165.977 188.538 164.676 184.703C152.193 187.766 140.179 192.394 128.507 197.97V197.992Z" fill="#DAD2BF"/>
<path d="M219.454 144.026C216.616 145.194 214.162 147.112 211.729 149.007C201.338 157.161 190.946 165.292 180.554 173.446C190.818 193.743 207.099 211.262 227.563 219.989C248.048 228.738 272.779 227.812 291.258 215.163C278.092 196.431 269.024 174.658 264.905 151.916C257.138 152.996 249.541 149.492 242.265 146.495C234.967 143.52 226.73 141.007 219.454 144.004V144.026Z" fill="#C52147"/>
<path d="M186.588 180.078C190.023 178.954 197.044 178.382 198.964 175.12C200.543 172.431 202.208 169.787 204.021 167.275C210.466 158.35 217.913 150.152 225.958 142.703C223.738 142.769 221.562 143.166 219.471 144.025C216.633 145.193 214.179 147.111 211.746 149.006C201.354 157.16 190.962 165.291 180.57 173.445C181.829 175.913 183.174 178.359 184.582 180.739C185.243 180.519 185.905 180.299 186.566 180.078H186.588Z" fill="#8D182C"/>
<path d="M232.123 147.621C228.303 150.662 224.484 153.88 220.856 157.273C215.65 164.458 211.019 172.105 206.133 179.597C203.636 183.41 201.886 185.459 198.088 187.905C196.103 189.183 194.098 190.462 192.092 191.74C195.506 196.147 199.262 200.268 203.295 204.037C204.788 202.979 206.346 201.987 207.84 200.952C209.163 199.255 210.507 197.58 211.766 195.817C212.321 195.045 213.068 194.935 213.708 195.2C218.701 180.413 223.609 165.449 230.544 151.61C231.099 150.332 231.696 149.075 232.315 147.819C232.23 147.753 232.166 147.709 232.08 147.643L232.123 147.621Z" fill="#8D182C"/>
<path d="M237.524 150.813C230.525 171.616 222.16 191.869 212.473 211.46C216.847 214.567 221.478 217.256 226.364 219.437C227.9 212.518 229.159 205.554 230.632 198.766C234.003 183.252 238.869 168.178 242.795 152.818C240.981 152.267 239.21 151.584 237.524 150.791V150.813Z" fill="#8D182C"/>
<path d="M248.192 154.162C247.574 157.754 246.784 161.368 246.144 164.983C244.181 176.023 241.385 186.866 238.099 197.554C235.667 205.487 232.957 213.288 230.055 221.001C231.762 221.663 233.49 222.236 235.219 222.764C237.907 215.073 240.468 207.338 242.644 199.471C246.4 185.94 251.052 170.668 251.073 155.947C250.945 155.484 250.796 155.044 250.646 154.603C249.814 154.493 249.003 154.338 248.192 154.184V154.162Z" fill="#8D182C"/>
<path d="M254.892 155.043C254.892 155.263 254.935 155.506 254.935 155.726C258.605 169.654 255.767 185.653 253.932 199.47C252.758 208.241 250.966 216.858 248.832 225.408C252.353 225.761 255.916 225.827 259.437 225.651C261.614 202.049 261.614 178.182 256.471 155.153C255.938 155.131 255.404 155.087 254.871 155.043H254.892Z" fill="#8D182C"/>
<path d="M265.583 155.154C264.858 155.198 264.111 155.22 263.364 155.242C263.94 157.468 264.517 159.716 265.05 161.964C270.769 181.335 277.234 200.485 283.273 219.746C286.047 218.446 288.715 216.925 291.275 215.184C278.749 197.334 269.958 176.729 265.583 155.154Z" fill="#8D182C"/>
<path d="M268.527 203.596C268.826 205.733 269.125 207.893 269.445 210.031C269.167 207.893 268.847 205.733 268.527 203.596Z" fill="#8D182C"/>
<path d="M264.493 201.828C264.365 209.651 263.917 217.497 263.213 225.32C264.728 225.166 266.222 224.923 267.694 224.659C266.648 217.034 265.539 209.431 264.493 201.828Z" fill="#8D182C"/>
<path d="M250.84 146.932C259.951 148.387 269.127 143.252 275.187 136.068C281.247 128.884 284.768 119.848 288.204 111.011C286.177 110.593 284.235 109.733 282.57 108.455C281.973 116.895 278.495 125.071 272.883 131.242C267.271 137.412 259.567 141.489 251.459 142.635C251.245 144.067 251.053 145.5 250.84 146.932Z" fill="#F2C345"/>
<path d="M251.459 142.637C251.245 144.07 251.053 145.502 250.84 146.935C255.406 147.662 259.973 146.736 264.155 144.753C263.366 142.99 262.619 141.205 261.957 139.42C258.65 141.029 255.086 142.153 251.459 142.659V142.637Z" fill="#D85B26"/>
<path d="M356.126 117.666C355.956 117.313 355.764 116.96 355.508 116.652C354.889 115.881 353.843 115.352 352.926 115.682C352.264 115.925 351.667 116.608 350.984 116.409C350.578 116.277 350.301 115.837 349.896 115.704C349.362 115.528 348.829 115.881 348.402 116.233C347.676 116.806 346.929 117.379 346.204 117.952C345.735 118.128 345.286 118.327 344.838 118.525C341.573 119.98 338.223 121.72 334.681 121.412C334.318 123.55 333.55 125.599 332.462 127.428C336.089 128.376 339.738 129.345 343.473 129.522C347.207 129.698 351.091 129.015 354.227 126.899C355.828 125.819 357.641 124.321 359.413 125.048C360.373 125.445 360.97 126.392 361.824 127.009C362.656 127.626 364.086 127.715 364.491 126.723C361.482 123.924 359.626 119.649 356.19 117.666H356.126Z" fill="#EBA987"/>
<path d="M356.425 122.275C348.508 123.025 342.341 124.479 333.785 124.589C333.422 125.581 332.952 126.529 332.419 127.432C336.047 128.38 339.695 129.349 343.43 129.526C347.164 129.702 351.048 129.019 354.184 126.903C355.785 125.823 357.599 124.325 359.37 125.052C360.33 125.449 360.927 126.396 361.781 127.013C362.464 127.52 363.509 127.652 364.107 127.168C361.695 124.479 358.815 122.65 356.446 122.275H356.425Z" fill="#F28953"/>
<path d="M341.297 120.243C334.447 119.141 327.683 117.445 321.089 115.219C320.577 119.23 320.044 123.262 319.425 127.273C326.509 128.463 333.679 129.168 340.849 129.367C340.998 126.326 341.126 123.284 341.276 120.243H341.297Z" fill="#175672"/>
<path d="M283.594 84.7216C269.02 84.6114 268.635 94.8368 274.61 109.712C292.62 122.758 312.614 131.661 333.185 135.937C333.74 131.287 334.401 122.824 334.849 118.174C315.879 110.483 298.04 101.514 283.594 84.7216Z" fill="#175672"/>
<path d="M274.592 109.713C292.601 122.759 312.596 131.662 333.166 135.938C333.486 133.117 333.87 128.908 334.233 124.985C312.489 123.156 291.513 115.862 272.714 104.49C273.247 106.165 273.866 107.906 274.613 109.713H274.592Z" fill="#092434"/>
<path d="M290.339 60.4183C291.47 60.6167 292.643 60.3743 293.646 59.7793C293.518 60.5065 292.921 61.1235 292.217 61.2558C291.513 61.388 290.744 61.0354 290.36 60.4183H290.339Z" fill="#092434"/>
<path d="M286.858 35.5346C282.463 31.1712 276.104 29.4744 270.001 29.3642C263.3 29.232 256.195 31.017 251.522 35.9754C247.062 40.7135 245.419 47.8976 246.699 54.3766C247.979 60.8556 251.927 66.5853 257.048 70.5961C262.105 74.5628 268.315 76.9208 274.653 77.3175C278.707 77.5599 283.039 76.9208 286.175 74.2542C289.206 71.6759 290.657 67.6652 291.638 63.7425C294.071 54.0461 293.879 42.4764 286.88 35.5346H286.858Z" fill="#EBA987"/>
<path d="M292.709 35.9583C290.084 32.4323 286.158 29.2369 282.125 27.9808C276.022 26.0856 269.386 26.0415 263.069 26.5043C256.753 26.9671 250.266 30.0743 247.151 35.9583C244.185 41.5117 244.697 48.4756 246.212 54.6901C248.431 63.7034 253.552 73.0031 261.981 75.3611C269.642 73.0251 276.619 68.2651 281.805 61.8082C281.762 63.6373 281.293 65.4663 280.012 66.7004C283.256 64.9594 285.731 61.7861 286.798 58.194C289.551 56.2327 291.941 53.7425 293.456 50.6352C295.696 46.0735 295.739 40.0573 292.709 35.9804V35.9583Z" fill="#092434"/>
<path d="M296.759 48.6498C298.253 49.4872 299.341 51.0519 299.661 52.7708C299.981 54.4897 299.491 56.3629 298.402 57.7072C298.744 53.9168 296.162 50.0602 292.62 49.0465C293.9 49.928 294.839 51.3384 295.159 52.903C295.479 54.4677 295.202 56.1425 294.369 57.4868C294.327 55.5915 294.284 53.6523 293.58 51.9113C292.876 50.1703 291.382 48.6278 289.547 48.4955C291.233 46.8868 293.665 46.0273 295.906 46.5562C298.146 47.0851 300.067 49.1346 300.173 51.5146C299.213 50.3687 298.04 49.399 296.759 48.6718V48.6498Z" fill="#092434"/>
<path d="M262.619 31.8786C260.698 31.2616 258.671 32.1651 256.751 32.7822C254.83 33.3992 252.398 33.5314 251.16 31.8786C249.773 30.0275 250.861 27.383 251.949 25.3115C254.083 21.2346 256.025 16.2321 253.849 12.1772C252.013 8.76142 247.916 7.46124 244.182 6.82215C241.515 6.35937 238.698 6.09491 236.159 7.02048C233.62 7.94605 231.358 10.3482 231.379 13.1249C226.621 12.8604 222.267 10.1939 217.53 9.59888C213.668 9.11406 209.528 10.1057 206.605 12.7502C203.682 15.3947 202.145 19.7801 203.233 23.6367C203.916 26.0828 205.559 28.6392 204.535 30.9531C203.703 32.8042 201.505 33.5094 199.542 33.5314C197.579 33.5535 195.573 33.0907 193.652 33.4874C188.04 34.6333 190.814 44.9909 180.657 44.6383C183.004 46.0487 185.971 47.4591 188.296 46.0266C190.622 44.5942 191.348 40.8037 194.037 40.4071C195.637 40.1647 197.131 41.3767 197.941 42.8312C198.752 44.2857 199.03 45.9605 199.585 47.5252C201.014 51.58 204.386 54.8415 208.376 56.0756C212.366 57.3317 216.911 56.5164 220.283 53.9821C222.267 52.4836 223.911 50.3901 226.194 49.4204C228.029 48.6491 230.205 48.6491 231.763 47.3709C233.3 46.0927 233.79 43.8669 233.62 41.8615C233.449 39.8561 232.787 37.8949 232.382 35.9115C231.998 33.8841 231.912 31.7244 232.681 29.8292C233.449 27.934 235.177 26.3473 237.162 26.2591C239.146 26.193 241.152 28.0001 240.96 30.0496C240.811 31.5481 239.658 32.8042 239.53 34.3027C239.381 35.9776 240.64 37.5423 242.155 38.1813C243.67 38.8204 245.377 38.7323 246.999 38.5119C252.654 37.7406 258.095 35.4266 262.64 31.8786H262.619Z" fill="#092434"/>
<path d="M240.598 22.1816C237.568 22.38 234.708 24.2752 233.257 27.0299C231.806 29.7846 231.849 33.2885 233.321 36.0211C234.324 37.8722 235.903 39.3047 236.991 41.1117C238.058 42.9188 238.506 45.4311 237.183 47.0398C236.138 48.2959 234.388 48.5824 232.788 48.5604C231.187 48.5383 229.544 48.2739 228.029 48.7808C225.703 49.53 224.103 52.1745 224.444 54.6648C224.167 52.4831 226.279 50.6539 228.371 50.2793C230.462 49.9046 232.617 50.4556 234.73 50.5437C236.842 50.6319 239.275 50.0368 240.32 48.1196C241.28 46.3786 240.726 44.1088 239.68 42.4119C238.634 40.715 237.162 39.3267 236.074 37.6739C233.983 34.4564 233.513 30.1812 234.836 26.5671C236.159 22.9529 236.949 23.1733 240.576 22.1816H240.598Z" fill="#092434"/>
<path d="M227.923 15.7248C224.573 15.0637 221.543 13.3448 218.449 11.8904C215.355 10.4359 212.005 9.20179 208.612 9.59846C205.241 9.99513 201.869 12.4633 201.4 15.9452C201.165 17.7082 201.656 19.4492 202.018 21.1901C202.381 22.909 202.616 24.7822 201.912 26.413C201.208 28.0217 199.223 29.1456 197.708 28.3082C199.863 28.4404 201.144 25.6858 200.909 23.46C200.674 21.2342 199.586 19.1626 199.586 16.9369C199.586 14.094 201.442 11.4936 203.832 10.1053C206.222 8.71692 209.081 8.38638 211.813 8.54064C217.766 8.89324 223.57 11.4937 227.902 15.7469L227.923 15.7248Z" fill="#092434"/>
<path d="M232.893 4.64131C230.781 3.91407 228.882 2.0409 226.705 2.43757C225.275 2.70202 224.23 3.89201 223.099 4.81758C221.968 5.74314 220.346 6.47041 219.13 5.67707C220.538 6.07374 221.947 4.99389 222.907 3.86999C223.888 2.74608 224.827 1.40178 226.236 1.02715C228.668 0.388064 230.738 2.83423 233.107 3.73777C235.39 4.59722 237.929 3.98021 240.17 3.01056C242.41 2.04092 244.544 0.740694 246.913 0.233834C250.754 -0.603585 255 0.850843 257.582 3.91404C260.164 6.97723 260.996 11.517 259.652 15.3294C258.777 17.8417 257.091 19.9352 255.576 22.0949C254.04 24.2545 252.61 26.6125 252.354 29.257C252.098 31.9015 253.4 34.8986 255.854 35.714C253.272 36.8599 250.263 34.2154 249.943 31.3285C249.623 28.4416 251.138 25.687 252.845 23.3731C254.552 21.0591 256.536 18.8554 257.39 16.0787C258.5 12.5307 257.475 8.40967 254.979 5.72112C252.482 3.03256 248.641 1.8205 245.078 2.41551C240.938 3.09867 236.884 6.02964 232.893 4.68536V4.64131Z" fill="#092434"/>
<path d="M247.106 40.6941C246.551 41.201 245.975 41.7079 245.27 41.9943C244.588 42.2808 243.734 42.3029 243.137 41.8401C242.539 41.3994 242.304 40.3856 242.817 39.8127C243.307 39.2397 244.46 39.5262 244.502 40.2975C243.691 40.2755 243.03 39.3499 243.222 38.5565C243.414 37.7411 244.417 37.2563 245.142 37.6089C244.438 37.1021 244.481 35.8239 245.228 35.3831C245.975 34.9424 247.063 35.5374 247.148 36.4189C246.337 35.912 246.039 34.7221 246.465 33.8626C246.914 33.0032 248.044 32.6065 248.898 33.0252C248.535 32.3641 248.279 31.5927 248.386 30.8434C248.514 30.0942 249.09 29.389 249.837 29.3229C250.584 29.2567 251.309 30.0501 251.096 30.7773C251.096 30.0721 251.096 29.3669 251.352 28.7058C251.608 28.0667 252.163 27.4938 252.846 27.4497C253.529 27.4277 254.19 28.1108 253.998 28.7719C253.849 27.8904 255.15 27.3175 255.812 27.8904C256.473 28.4634 256.431 29.5874 255.961 30.3366C255.47 31.0859 254.681 31.5266 253.934 31.9453C254.489 31.8792 254.958 32.5183 254.873 33.0913C254.788 33.6643 254.275 34.105 253.742 34.2813C253.208 34.4576 252.632 34.4135 252.056 34.3694C252.376 35.0306 252.696 35.8018 252.44 36.485C252.184 37.1682 251.011 37.3665 250.818 36.6613C250.861 37.4106 250.861 38.248 250.328 38.7769C249.794 39.3058 248.663 38.9753 248.77 38.248C249.261 39.1075 248.77 40.3857 247.831 40.6722C248.151 41.179 248.108 41.8842 247.746 42.3469C247.383 42.8097 247.639 40.8925 247.084 40.7162L247.106 40.6941Z" fill="#F2C345"/>
<path d="M309.841 282.355C312.358 283.413 314.151 285.705 316.327 287.358C318.632 289.099 321.449 290.09 324.287 290.223C325.503 290.267 326.762 290.157 327.872 289.628C328.981 289.099 329.942 288.129 330.219 286.895C330.646 285.044 329.536 283.215 328.362 281.76C325.375 278.08 321.577 275.039 317.224 273.342C312.871 271.645 307.984 271.315 303.546 272.769C302.009 273.276 300.388 274.157 299.918 275.744C299.491 277.199 300.259 278.807 301.433 279.755C302.607 280.68 304.079 281.077 305.53 281.342C306.981 281.606 308.475 281.76 309.841 282.333V282.355Z" fill="#F2C345"/>
<path d="M327.957 281.033C323.476 274.642 319.016 268.229 314.535 261.838C313.831 260.846 312.807 259.723 311.676 260.053C310.694 260.34 310.289 261.53 309.819 262.477C308.198 265.739 303.781 267.127 300.665 265.364C300.772 266.863 300.879 268.361 300.985 269.838C300.558 271.006 300.217 272.218 300.153 273.452C300.046 275.457 300.751 277.661 302.415 278.719C304.421 279.997 307.003 279.314 309.329 279.71C315.069 280.68 318.44 288.018 324.244 288.547C326.698 288.768 329.579 287.049 329.494 284.514C329.451 283.214 328.704 282.09 327.957 281.055V281.033Z" fill="#175672"/>
<path d="M318.526 277.462C320.617 277.793 321.961 276.162 323.007 273.959C320.19 269.926 317.352 265.871 314.535 261.838C313.831 260.846 312.807 259.723 311.676 260.053C310.694 260.34 310.289 261.53 309.819 262.477C309.499 263.138 309.051 263.711 308.539 264.196C311.526 269.551 314.066 276.096 318.547 277.462H318.526Z" fill="#092434"/>
<path d="M271.944 80.8008C274.249 82.4315 276.959 83.4012 279.754 83.5555C270.514 88.6902 262.043 95.3014 254.767 103.103C251.288 101.648 248.408 98.7391 246.893 95.2132C255.236 90.409 263.579 85.6049 271.944 80.8008Z" fill="#F2C345"/>
<path d="M241.365 95.2584C238.505 94.399 235.539 93.9141 232.552 93.848C236.457 90.2339 239.7 85.8484 242.047 81.0222C244.672 80.89 247.275 80.7578 249.9 80.6035C246.785 85.3195 243.947 90.2118 241.365 95.2364V95.2584Z" fill="#F2C345"/>
<path d="M259.951 112.692C259.908 108.086 259.844 103.304 257.945 99.1389C254.829 92.3073 247.105 88.4948 239.807 88.8914C232.509 89.2881 225.745 93.321 220.56 98.6321C215.374 103.943 211.576 110.51 207.991 117.099C204.812 122.917 201.675 129.616 203.531 136.007C205.644 143.28 213.241 146.982 220.048 149.847C226.961 152.756 234.451 155.709 241.685 153.858C249.367 151.896 255 144.734 257.518 136.977C260.057 129.242 260.015 120.868 259.929 112.714L259.951 112.692Z" fill="#6FB2BA"/>
<path d="M206.541 119.854C203.959 124.966 201.975 130.608 203.554 136.007C205.666 143.279 213.263 146.982 220.07 149.846C226.984 152.755 234.473 155.708 241.707 153.857C248.898 152.006 254.297 145.615 257.028 138.431C240.299 132.062 223.484 125.804 206.541 119.876V119.854Z" fill="#219982"/>
<path d="M203.02 130.76C202.892 132.501 203.02 134.264 203.532 135.983C205.644 143.255 213.241 146.957 220.048 149.822C226.962 152.731 234.452 155.684 241.685 153.833C245.441 152.863 248.706 150.66 251.352 147.751C250.712 147.905 250.05 148.037 249.389 148.103C233.811 150.417 210.382 145.966 203.02 130.76Z" fill="#175672"/>
<path d="M246.337 126.529C247.831 120.513 248.599 114.342 248.663 108.128C248.706 102.53 247.81 96.2273 243.478 92.8997C240.64 90.718 236.756 90.2773 233.321 91.1588C229.885 92.0403 226.834 94.1118 224.166 96.5359C218.021 102.155 213.796 109.648 210.19 117.229C208.675 120.402 207.224 124.016 208.269 127.388C209.272 130.628 212.323 132.655 215.14 134.418C219.002 136.82 222.95 139.222 227.346 140.302C231.72 141.382 236.671 140.963 240.234 138.098C243.67 135.344 245.27 130.848 246.337 126.507V126.529Z" fill="#F2C345"/>
<path d="M213.496 110.752C212.322 112.89 211.213 115.071 210.167 117.253C208.652 120.426 207.201 124.04 208.247 127.412C209.25 130.652 212.301 132.679 215.118 134.442C218.98 136.844 222.928 139.246 227.323 140.326C231.698 141.406 236.648 140.987 240.212 138.122C243.647 135.368 245.248 130.872 246.315 126.531C246.613 125.319 246.87 124.106 247.126 122.894C235.752 119.28 224.379 115.688 213.496 110.752Z" fill="#F28953"/>
<path d="M213.454 115.444C212.836 115.621 212.345 116.106 211.939 116.635C209.123 120.381 210.36 126.133 213.518 129.548C216.677 132.986 221.222 134.595 225.639 135.851C227.943 136.512 230.461 137.085 232.702 136.182C234.75 135.344 236.201 133.405 237.226 131.378C238.25 129.35 238.997 127.168 240.256 125.295C232.104 122.122 223.953 118.948 215.78 115.797C215.034 115.511 214.201 115.202 213.433 115.423L213.454 115.444Z" fill="#F9F0D4"/>
<path d="M281.567 62.4227C281.481 60.5936 281.183 58.412 279.604 57.5746C278.089 56.7813 276.232 57.7289 275.016 58.963C272.455 61.5634 271.26 65.53 271.986 69.1662C272.327 70.8851 273.138 72.582 274.568 73.4855C275.955 74.367 277.79 74.3671 279.284 73.6839C280.777 73.0008 281.972 71.7226 282.783 70.2461L281.567 62.4008V62.4227Z" fill="#EBA987"/>
<path d="M99.8473 212.896C99.2498 214.637 98.9511 216.797 100.167 218.141C101.682 219.816 104.35 219.066 106.398 218.163C115.382 214.196 124.045 209.48 132.282 204.081C130.041 199.365 129.209 193.944 129.913 188.743C128.142 187.707 126.328 186.649 124.344 186.275C122.338 185.878 120.098 186.253 118.647 187.729C116.726 189.713 116.811 192.93 115.617 195.442C113.931 198.968 110.068 200.621 106.996 202.957C103.731 205.447 101.213 208.929 99.8473 212.874V212.896Z" fill="#F2C345"/>
<path d="M102.046 213.56C101.448 215.301 101.149 217.461 102.366 218.805C103.881 220.48 106.548 219.73 108.596 218.827C117.58 214.86 126.244 210.144 134.48 204.745C132.24 200.029 131.407 194.608 132.112 189.407C130.341 188.371 128.527 187.313 126.542 186.939C124.536 186.542 122.296 186.917 120.845 188.393C118.924 190.377 119.01 193.594 117.815 196.106C116.129 199.632 112.267 201.285 109.194 203.621C105.929 206.111 103.411 209.593 102.046 213.538V213.56Z" fill="#175672"/>
<path d="M132.879 200.379C126.008 203.464 118.412 204.654 114.699 212.301C113.675 213.844 113.333 215.276 113.461 216.598C120.716 213.139 127.758 209.194 134.501 204.764C133.84 203.354 133.306 201.899 132.901 200.379H132.879Z" fill="#092434"/>
<path d="M251.78 137.04L250.883 136.709C253.295 129.569 254.81 122.12 255.343 114.562C255.663 110.132 255.727 104.424 253.529 99.466C250.478 92.6123 243.031 88.2049 235.776 88.8881C235.712 88.8881 235.669 88.8881 235.605 88.8881L235.52 87.9184C235.52 87.9184 235.648 87.9184 235.69 87.9184C243.329 87.1912 251.182 91.841 254.404 99.0473C256.709 104.204 256.623 110.066 256.303 114.606C255.749 122.231 254.233 129.767 251.801 136.996L251.78 137.04Z" fill="white"/>
<path d="M204.343 26.3914C204.066 23.6588 203.938 20.838 204.599 18.1715C205.261 15.505 206.797 12.9486 209.166 11.6484C206.669 12.9266 204.706 15.2626 203.81 17.9952C202.914 20.7278 203.127 23.8131 204.343 26.3914Z" fill="#175672"/>
<path d="M246.039 9.13587C247.063 9.88514 248.002 10.9429 249.24 11.0531C250.222 11.1413 251.267 10.5903 252.185 10.987C253.145 11.4278 253.422 12.6838 253.401 13.7637C253.294 16.5624 251.929 19.1188 250.584 21.5649C251.63 19.3391 251.886 16.7387 251.352 14.3367C251.203 13.6535 250.926 12.9042 250.307 12.5957C249.517 12.199 248.578 12.6618 247.725 12.5076C246.743 12.3313 246.103 11.3837 245.356 10.7005C243.948 9.37827 241.964 8.89345 240.064 8.91549C238.165 8.95956 236.309 9.48844 234.474 9.9953C236.202 8.84935 238.144 7.98992 240.192 7.74751C242.241 7.5051 244.396 7.92382 246.061 9.13587H246.039Z" fill="#175672"/>
<path d="M239.382 10.3271C240.513 9.95251 241.793 10.0627 242.839 10.6136C243.884 11.1646 244.716 12.1783 245.079 13.3463C243.671 11.8036 241.409 9.95251 239.382 10.3271Z" fill="#175672"/>
<path d="M205.261 39.4588C204.323 39.5249 203.533 38.7757 202.85 38.1146C201.356 36.6821 199.607 35.448 197.644 34.8971C195.68 34.3461 193.44 34.5224 191.775 35.7345C193.333 34.9191 195.211 34.9192 196.854 35.4921C198.497 36.0651 199.948 37.189 201.143 38.4892C202.082 39.5029 202.914 40.6048 203.896 41.5745C204.877 42.5441 206.051 43.3595 207.395 43.6239C209.273 43.9765 211.322 42.9848 212.282 41.288C213.242 39.5911 213.071 37.2771 211.855 35.7345C211.578 35.3819 211.236 35.0514 211.172 34.6106C211.023 33.663 212.111 33.068 212.709 32.3187C213.69 31.1287 213.37 29.2776 212.645 27.9333C211.898 26.567 210.788 25.4431 210.148 24.0327C209.316 22.2036 209.358 19.9999 210.255 18.2148C209.166 19.0302 208.697 20.5067 208.697 21.895C208.697 23.2834 209.145 24.6277 209.593 25.9279C209.956 26.9416 210.255 28.2638 209.486 28.9911C208.953 29.4979 208.121 29.4539 207.481 29.8285C206.435 30.4235 206.179 31.9 206.371 33.1121C206.563 34.3241 207.097 35.4921 207.118 36.7483C207.139 37.9824 206.435 39.3927 205.219 39.4809L205.261 39.4588Z" fill="#175672"/>
<path d="M205.495 37.3855C205.751 37.0329 205.644 36.5261 205.495 36.1074C205.239 35.2259 204.983 34.3444 204.727 33.4629C204.812 34.2122 204.577 34.9835 204.086 35.5565C203.596 36.1294 202.87 36.46 202.145 36.46C202.678 37.1211 203.446 37.5839 204.257 37.7381C204.684 37.8263 205.217 37.7822 205.473 37.4076L205.495 37.3855Z" fill="#175672"/>
<path d="M244.692 29.6725C244.479 26.411 241.811 23.5021 238.675 23.1274C235.538 22.7528 232.295 24.9565 231.377 28.0858C232.807 25.6617 235.73 24.2954 238.461 24.6701C241.193 25.0447 243.625 27.0501 244.714 29.6725H244.692Z" fill="#175672"/>
<path d="M223.075 48.85C221.624 49.6654 220.579 51.0757 219.384 52.2658C218.189 53.4558 216.61 54.4916 214.967 54.2492C216.311 54.4475 217.506 53.3456 218.253 52.1997C219 51.0317 219.597 49.6874 220.686 48.8941C222.051 47.9024 223.908 47.9685 225.38 47.1751C227.215 46.2055 228.197 44.0238 228.41 41.9082C228.623 39.7927 228.175 37.6771 227.791 35.5835C227.429 33.49 227.151 31.3082 227.663 29.2588C228.197 27.2093 229.712 25.2921 231.739 24.9395C229.626 26.8126 229.221 30.0521 229.626 32.917C230.032 35.7818 231.077 38.4924 231.269 41.3793C231.376 42.8999 231.206 44.5527 230.267 45.7207C229.434 46.7785 228.111 47.3074 226.831 47.638C225.551 47.9906 224.206 48.2109 223.054 48.8721L223.075 48.85Z" fill="#175672"/>
<path d="M225.298 42.3007C226.259 40.7581 226.109 38.7306 225.661 36.9456C225.234 35.1606 224.552 33.3976 224.53 31.5685C224.53 29.7394 225.448 27.7119 227.155 27.2051C226.301 29.1003 226.387 31.3041 226.6 33.3756C226.835 35.4471 227.198 37.5627 226.899 39.6342C226.728 40.714 226.28 41.904 225.277 42.3007H225.298Z" fill="#175672"/>
<path d="M250.67 53.9183C249.177 50.5246 248.174 46.8884 247.747 43.1641C247.597 45.1254 247.427 47.1088 247.79 49.026C248.152 50.9433 249.07 52.8385 250.67 53.9183Z" fill="#175672"/>
<path d="M272.244 28.7486C272.5 29.3436 272.777 29.9386 273.033 30.5116C272.265 29.6081 270.643 30.5116 270.515 31.7016C270.409 32.9137 271.241 33.9715 272.158 34.7428C270.195 34.3682 268.083 35.7785 267.613 37.7619C266.333 36.9685 264.818 38.2027 263.623 39.1503C260.187 41.9049 255.706 42.7644 251.375 43.1831C250.948 47.1939 251.951 51.3589 254.17 54.7086C253.999 52.2624 253.829 49.8384 253.636 47.3922C254.255 48.3839 255.066 49.2874 256.133 49.7061C257.179 50.1469 258.523 50.0146 259.291 49.1552C260.059 48.2957 260.017 46.7091 259.035 46.092C262.983 46.9294 267.229 46.1802 270.665 44.0426L269.704 41.5303C270.622 40.759 271.945 40.825 273.119 40.9573C274.292 41.0895 275.573 41.2438 276.575 40.6047C277.6 39.9877 277.962 38.2026 276.96 37.5856C278.432 37.9382 279.968 37.9823 281.462 37.7178C281.867 37.6517 282.358 37.4754 282.422 37.0567C282.465 36.682 282.123 36.3735 281.825 36.1531C280.63 35.2937 279.413 34.4122 278.219 33.5527C279.606 33.4866 281.014 33.3985 282.401 33.3324C280.416 31.9881 278.432 30.6438 276.447 29.2996C277.45 29.4759 278.453 29.6521 279.456 29.8284C277.066 29.4538 274.655 29.1012 272.265 28.7266L272.244 28.7486Z" fill="#175672"/>
<path d="M275.808 27.5804C278.07 29.2332 280.908 30.0485 283.66 29.8282C280.758 28.1093 279.158 27.4702 275.808 27.5804Z" fill="#175672"/>
<path d="M293.56 44.1096C293.133 41.9719 292.728 39.8564 292.301 37.7188C292.898 38.6884 293.496 39.68 293.795 40.7819C294.115 41.8838 294.115 43.1179 293.538 44.1096H293.56Z" fill="#175672"/>
<path d="M277.129 67.5363C277.385 68.1093 277.321 68.8365 276.915 69.3214C276.531 69.8062 275.827 70.0046 275.251 69.8062C274.824 69.652 274.504 69.2993 274.248 68.9247C273.288 67.4262 273.48 65.3768 274.248 63.768C275.037 62.1593 276.318 60.8811 277.555 59.625C278.259 59.8454 278.9 60.3302 279.241 61.0134C279.582 61.6965 279.582 62.5559 279.134 63.173C278.729 63.768 278.025 64.0324 277.406 64.385C276.787 64.7596 276.211 65.3768 276.318 66.104C276.403 66.6549 276.872 67.0515 277.086 67.5584L277.129 67.5363Z" fill="#092434"/>
<mask id="mask0_2674_16988" style="mask-type:luminance" maskUnits="userSpaceOnUse" x="-18" y="242" width="251" height="142">
<path d="M221.95 242.323L-17.3379 265.248L-6.67248 383.983L232.615 361.058L221.95 242.323Z" fill="white"/>
</mask>
<g mask="url(#mask0_2674_16988)">
<path d="M214.762 369.54C215.231 369.077 215.658 368.548 216.021 367.975C218.069 364.714 217.707 360.042 215.167 357.177C212.628 354.312 208.147 353.519 204.839 355.37C207.827 351.403 204.007 345.189 199.249 344.197C195.984 343.514 192.74 344.417 189.646 345.806C190.969 343.558 191.097 340.01 189.646 337.189C187.598 333.134 182.413 331.746 178.017 332.407C175.541 332.782 173.237 333.729 170.996 334.875C173.216 331.812 173.706 327.052 171.594 323.724C168.308 318.59 161.266 317.223 155.526 318.898C149.786 320.573 145.027 324.65 140.44 328.617C143.278 321.543 145.795 312.463 140.61 306.998C135.894 302.04 127.252 303.781 122.558 308.783C119.698 311.824 117.927 315.659 116.604 319.736C116.284 317.157 115.132 314.667 113.211 312.992C109.178 309.466 102.563 309.819 98.7439 313.609C94.9456 317.4 94.2841 324.033 97.1008 328.661C94.4762 324.319 91.8515 319.978 89.2482 315.637C81.0328 322.468 76.9785 334.236 79.1337 344.902C77.4693 339.878 72.8815 336.021 67.8029 335.36C65.1142 335.007 62.3616 335.558 59.929 336.814C60.8252 335.757 61.6147 334.611 62.1908 333.333C63.7486 329.807 63.1938 324.936 59.9503 322.975C57.9231 321.741 55.3838 321.917 53.0579 322.358C46.507 323.614 40.3188 326.876 35.4749 331.614C38.8891 321.939 39.7 311.295 37.8008 301.202C37.1607 297.83 36.1151 294.304 33.5971 292.057C28.4332 287.451 19.7484 291.043 16.4622 297.213C13.1761 303.384 13.7096 310.877 14.3284 317.907C12.2159 307.505 9.50584 297.257 6.24103 287.186C5.1741 283.859 3.74445 280.245 0.671688 278.768C-2.40107 277.292 -6.19936 278.636 -8.5466 281.126C-10.8938 283.638 -12.0674 287.076 -12.857 290.47C-16.4205 305.698 -13.6039 322.424 -5.23915 335.492C-8.07718 333.906 -9.48551 330.556 -10.4884 327.405C-11.4913 324.231 -12.4089 320.837 -14.7775 318.59C-17.1461 316.342 -21.5632 316.011 -23.2276 318.854C-24.5079 321.08 -23.569 323.901 -22.6087 326.303C-20.2401 332.121 -17.8929 337.916 -15.5243 343.734C-19.3226 336.043 -25.7242 329.719 -33.3848 326.281C-29.9493 350.544 -18.341 373.463 -1.03544 390.255L214.783 369.562L214.762 369.54Z" fill="#175672"/>
<path d="M186.019 365.618C186.809 365.397 187.449 364.957 187.94 364.384C196.752 361.012 205.928 358.632 215.253 357.266C215.232 357.244 215.21 357.199 215.189 357.177C214.954 356.913 214.677 356.649 214.4 356.428C208.595 357.31 202.834 358.566 197.179 360.241C202.45 358.522 207.785 356.957 213.119 355.547C212.671 355.282 212.202 355.062 211.711 354.908C204.072 356.957 196.496 359.337 189.049 362.004C189.263 360.902 189.241 359.712 188.921 358.61C194.235 355.26 199.676 352.131 205.224 349.244C205.096 348.958 204.946 348.671 204.776 348.385C199.27 351.249 193.85 354.357 188.58 357.684C188.153 356.759 187.534 355.943 186.681 355.37C183.138 353.057 178.188 354.709 175.414 357.949C175.499 357.706 175.542 357.442 175.606 357.199C180.407 351.514 185.422 346.027 190.65 340.76C190.607 340.363 190.564 339.966 190.479 339.57C185.358 344.704 180.428 350.059 175.713 355.591C175.67 354.665 175.435 353.762 175.008 352.924C179.618 347.371 184.44 341.972 189.391 336.749C189.22 336.462 189.049 336.198 188.836 335.934C183.885 341.156 179.084 346.511 174.475 352.065C174.283 351.8 174.091 351.558 173.877 351.338C177.078 345.101 180.407 338.909 183.821 332.782C183.501 332.694 183.181 332.628 182.861 332.562C179.511 338.556 176.267 344.616 173.131 350.721C171.018 349.178 167.967 349.222 165.897 350.831C165.641 347.591 162.952 344.726 159.815 344.396C156.679 344.065 153.478 346.291 152.582 349.398C152.774 347.503 152.069 345.784 150.874 344.396C155.889 335.933 161.352 327.736 167.241 319.89C166.964 319.736 166.665 319.604 166.366 319.472C160.562 327.229 155.142 335.316 150.192 343.691C153.264 334.986 156.892 326.502 161.074 318.304C160.733 318.304 160.37 318.304 160.029 318.304C155.953 326.303 152.411 334.567 149.402 343.074C147.588 341.773 145.262 341.09 143.086 341.333C138.391 341.861 134.529 345.255 131.2 348.693C132.502 344.726 129.536 340.627 125.716 339.173C130.176 328.331 135.297 317.753 141.037 307.571C140.909 307.417 140.781 307.241 140.632 307.087C140.547 306.998 140.461 306.932 140.376 306.844C134.55 317.18 129.344 327.89 124.841 338.886C124.543 338.82 124.244 338.754 123.945 338.71C125.802 326.942 128.832 315.285 132.95 304.134C132.609 304.134 132.267 304.178 131.904 304.222C127.829 315.329 124.841 326.92 123.006 338.644C122.601 338.644 122.195 338.644 121.811 338.71C117.437 339.371 114.023 342.941 112.145 347.173C112.124 344.638 110.16 341.928 107.6 341.509C107.429 341.487 107.258 341.465 107.109 341.465C107.493 331.372 108.645 321.345 110.523 311.428C110.224 311.318 109.926 311.208 109.627 311.119C107.728 321.146 106.554 331.284 106.17 341.465C105.573 341.509 104.996 341.641 104.42 341.862C103.866 331.526 103.887 321.168 104.484 310.855C104.164 310.921 103.844 310.987 103.524 311.075C102.927 321.477 102.905 331.901 103.481 342.302C102.436 342.853 101.497 343.647 100.729 344.594C99.0216 335.272 97.72 325.884 96.8451 316.452C96.5463 317.025 96.2903 317.642 96.0769 318.282C96.9732 327.449 98.2748 336.595 99.9606 345.63C99.6192 346.159 99.3204 346.732 99.0857 347.305C97.6987 350.809 97.9334 354.731 98.4028 358.478C97.6773 358.213 96.9092 357.993 96.1623 357.795C90.5716 345.63 87.1574 332.319 86.1331 318.855C85.8344 319.185 85.557 319.538 85.2796 319.89C86.3679 332.892 89.6967 345.74 95.01 357.53C94.0071 357.31 92.9828 357.155 91.9372 357.045C87.3068 347.018 83.8926 336.44 81.7374 325.576C81.5027 326.039 81.2893 326.523 81.0759 327.008C83.2311 337.322 86.4959 347.393 90.8489 356.957C88.0322 356.759 85.2156 356.979 82.4629 357.618L82.8043 361.982C79.0274 359.756 74.6957 358.632 70.3426 358.61C71.7296 351.448 72.3271 344.153 72.135 336.881C71.8149 336.727 71.4948 336.573 71.1748 336.418C71.4095 343.845 70.812 351.316 69.3823 358.61C67.3125 358.676 65.264 358.985 63.2795 359.535L69.297 335.779C68.9983 335.691 68.6781 335.625 68.3794 335.581L62.2126 359.866C61.167 360.219 60.1427 360.615 59.1612 361.1C58.521 360.461 57.8382 359.932 57.0913 359.469C59.0545 351.382 61.4444 343.36 64.1971 335.515C63.8343 335.581 63.4715 335.647 63.1301 335.713C60.4841 343.338 58.1796 351.117 56.2591 358.962C51.5646 356.626 45.3764 357.442 41.5995 361.188C43.8187 358.103 43.0718 352.946 39.7643 350.985C39.7643 350.985 39.743 350.985 39.7217 350.985C45.2697 340.804 51.9914 331.438 59.7587 322.953C59.4599 322.777 59.1611 322.645 58.841 322.535C51.0951 331.019 44.3948 340.407 38.8468 350.566C38.5907 350.478 38.3347 350.39 38.0573 350.346C41.8982 340.099 47.4889 330.468 54.4453 322.204C53.9758 322.27 53.5064 322.336 53.0369 322.425C53.0369 322.425 53.037 322.425 53.0156 322.425C46.2726 330.645 40.8526 340.121 37.097 350.214C33.8749 350.059 30.4608 352.351 29.8846 355.701C30.0126 350.941 30.1193 345.983 28.1348 341.685C27.6014 340.539 26.8758 339.459 26.001 338.534C28.647 322.557 28.967 306.117 26.9399 290.074C26.6198 290.096 26.321 290.162 26.001 290.206C27.9855 305.941 27.708 322.05 25.1687 337.719C24.6139 337.212 24.0165 336.771 23.3977 336.396C24.806 321.389 24.5499 306.315 22.5868 291.352C22.288 291.506 21.9893 291.66 21.7119 291.837C23.5897 306.492 23.8671 321.257 22.5014 335.934C20.7516 335.118 18.8312 334.876 16.9747 335.449C15.5023 335.911 14.2434 336.859 13.2405 338.071C3.80879 319.802 -2.95551 299.924 -6.66843 279.584C-6.96717 279.76 -7.24456 279.981 -7.52196 280.179C-3.74503 300.608 3.10465 320.573 12.6003 338.909C12.3869 339.217 12.2162 339.526 12.0241 339.856C2.29374 322.535 -5.45215 304.134 -11.0855 284.961C-11.2989 285.402 -11.4909 285.865 -11.6617 286.327C-5.96425 305.39 1.80299 323.659 11.5334 340.892C11.2133 341.641 10.9572 342.412 10.7865 343.206C10.1464 346.137 10.3597 349.178 10.7012 352.175C10.3384 349.398 9.76228 346.578 8.05519 344.44C6.02802 341.928 1.82429 341.002 -0.245556 343.47C-0.757683 344.087 -1.07772 344.815 -1.26977 345.586C-9.69851 337.608 -16.6762 327.934 -21.6695 317.334C-21.9469 317.488 -22.2243 317.665 -22.459 317.863C-17.3377 328.705 -10.1466 338.556 -1.48317 346.666C-1.48317 346.82 -1.52582 346.996 -1.52582 347.15C-8.73827 342.192 -15.3533 336.352 -21.2214 329.763C-20.88 330.622 -20.5386 331.46 -20.1758 332.319C-14.5638 338.336 -8.33288 343.713 -1.56854 348.296C-1.63256 351.999 -0.778978 355.723 0.864094 359.029C0.437321 358.522 -0.0321121 358.059 -0.586916 357.706C-2.12329 356.737 -4.51322 356.957 -5.32409 358.632C-5.94291 359.91 -5.43082 361.431 -4.83334 362.709C-1.99531 368.901 2.67787 374.168 8.39662 377.672C9.2715 382.543 6.09207 385.363 5.75065 389.594L189.945 371.942C191.311 369.078 188.921 364.626 185.976 365.64L186.019 365.618Z" fill="#153A21"/>
</g>
</svg>
