<svg width="37" height="18" viewBox="0 0 37 18" fill="none" xmlns="http://www.w3.org/2000/svg">
<path fill-rule="evenodd" clip-rule="evenodd" d="M35.9863 8.99925C35.9863 13.1981 32.5824 16.602 28.3836 16.602C24.3551 16.602 21.0585 13.4688 20.7975 9.50645L29.6942 9.50645L27.3338 11.8668C27.1359 12.0647 27.1359 12.3856 27.3338 12.5836C27.5318 12.7815 27.8527 12.7815 28.0506 12.5836L31.2762 9.358C31.4741 9.16006 31.4741 8.83914 31.2762 8.6412L28.0506 5.41563C27.8527 5.21769 27.5318 5.21769 27.3338 5.41563C27.1359 5.61357 27.1359 5.93449 27.3338 6.13243L29.6942 8.49275L20.7974 8.49275C21.0581 4.53002 24.3549 1.39651 28.3836 1.39651C32.5824 1.39651 35.9863 4.80037 35.9863 8.99925ZM19.7818 8.49275C20.0439 3.96978 23.7949 0.382812 28.3836 0.382812C33.1423 0.382812 37 4.24052 37 8.99925C37 13.758 33.1423 17.6157 28.3836 17.6157C23.7951 17.6157 20.0443 14.0291 19.7818 9.50645L0.506849 9.50644C0.226924 9.50644 0 9.27952 0 8.9996C0 8.71967 0.226924 8.49275 0.506849 8.49275L19.7818 8.49275Z" fill="white"/>
</svg>
